{
.appVersion = "1338";
DisplayStrings = (
"\012\012\0120123456789\0120123456789\012/zero.sc/one.sc/two.sc/three.sc/four.sc/five.sc/six.sc/seven.sc/eight.sc/nine.sc \012/zero.sc/one.sc/two.sc/three.sc/four.sc/five.sc/six.sc/seven.sc/eight.sc/nine.sc/space \012/zero.dnom/one.dnom/two.dnom/three.dnom/four.dnom/five.dnom/six.dnom/seven.dnom/eight.dnom/nine.dnom \012/zero.dnom/one.dnom/two.dnom/three.dnom/four.dnom/five.dnom/six.dnom/seven.dnom/eight.dnom/nine.dnom \012/zero.ss18/one.ss18/two.ss18/three.ss18/four.ss18/five.ss18/six.ss18/seven.ss18/eight.ss18/nine.ss18 \012/zero.ss18/one.ss18/two.ss18/three.ss18/four.ss18/five.ss18/six.ss18/seven.ss18/eight.ss18/nine.ss18 \012/zero.ss18.sc/one.ss18.sc/two.ss18.sc/three.ss18.sc/four.ss18.sc/five.ss18.sc/six.ss18.sc/seven.ss18.sc/eight.ss18.sc/nine.ss18.sc \012/zero.ss18.sc/one.ss18.sc/two.ss18.sc/three.ss18.sc/four.ss18.sc/five.ss18.sc/six.ss18.sc/seven.ss18.sc/eight.ss18.sc/nine.ss18.sc \012/zero.ss18.dnom/one.ss18.dnom/two.ss18.dnom/three.ss18.dnom/four.ss18.dnom/five.ss18.dnom/six.ss18.dnom/seven.ss18.dnom/eight.ss18.dnom/nine.ss18.dnom \012/zero.ss18.dnom/one.ss18.dnom/two.ss18.dnom/three.ss18.dnom/four.ss18.dnom/five.ss18.dnom/six.ss18.dnom/seven.ss18.dnom/eight.ss18.dnom/nine.ss18.dnom \012",
"Dr/space Jekyll/space/ampersand.ss19/space Mr/space Hyde\012j/leftArrow///backslash/rightArrow h/space/raisedHand/smiling.face.outline/upsidedown.face.outline/right.pointing.finger \012*/question.ss20/sterling.ss19 #/space 7254"
);
copyright = "Copyright © 2020 by Jeremy Johnson. All rights reserved.";
customParameters = (
{
name = Axes;
value = (
{
Name = Weight;
Tag = wght;
},
{
Name = "Optical size";
Tag = opsz;
}
);
},
{
name = "Variable Font Family Name";
value = "Norse Pixel Variable";
}
);
date = "2020-02-25 17:12:18 +0000";
designer = "Jeremy Johnson";
disablesNiceNames = 1;
familyName = "Norse Pixel Workhorse";
featurePrefixes = (
{
automatic = 1;
code = "languagesystem DFLT dflt;\012";
name = Languagesystems;
}
);

glyphs = (
{
color = 6;
glyphname = A;
lastChange = "2020-04-27 11:15:11 +0000";
layers = (
{
layerId = "E773EBAE-783E-4D91-931E-4E5C9CF0967C";
paths = (
{
closed = 1;
nodes = (
"89 0 LINE",
"162 209 LINE",
"160 209 LINE",
"160 213 LINE",
"164 213 LINE",
"164 211 LINE",
"453 211 LINE",
"453 213 LINE",
"457 213 LINE",
"457 209 LINE",
"455 209 LINE",
"527 0 LINE",
"600 0 LINE",
"342 700 LINE",
"273 700 LINE",
"20 0 LINE"
);
},
{
closed = 1;
nodes = (
"180 265 LINE",
"182 265 LINE",
"306 620 LINE",
"306 624 LINE",
"310 624 LINE",
"310 620 LINE",
"436 265 LINE",
"438 265 LINE",
"438 261 LINE",
"434 261 LINE",
"434 263 LINE",
"184 263 LINE",
"184 261 LINE",
"180 261 LINE"
);
}
);
width = 620;
},
{
background = {
paths = (
{
closed = 1;
nodes = (
"297 700 LINE",
"297 624 LINE",
"300 624 LINE",
"300 620 LINE",
"426 265 LINE",
"428 265 LINE",
"428 261 LINE",
"426 261 LINE",
"445 213 LINE",
"447 213 LINE",
"447 209 LINE",
"445 209 LINE",
"517 0 LINE",
"590 0 LINE",
"332 700 LINE"
);
},
{
closed = 1;
nodes = (
"10 0 LINE",
"79 0 LINE",
"152 209 LINE",
"150 209 LINE",
"150 213 LINE",
"152 213 LINE",
"172 261 LINE",
"170 261 LINE",
"170 265 LINE",
"172 265 LINE",
"296 620 LINE",
"296 624 LINE",
"299 624 LINE",
"299 700 LINE",
"263 700 LINE"
);
},
{
closed = 1;
nodes = (
"114 211 LINE",
"150 211 LINE",
"150 213 LINE",
"154 213 LINE",
"154 211 LINE",
"443 211 LINE",
"443 213 LINE",
"447 213 LINE",
"447 211 LINE",
"477 211 LINE",
"477 263 LINE",
"428 263 LINE",
"428 261 LINE",
"424 261 LINE",
"424 263 LINE",
"174 263 LINE",
"174 261 LINE",
"170 261 LINE",
"170 263 LINE",
"114 263 LINE"
);
}
);
};
layerId = "C89E7CB9-06CC-4D85-8773-832B05BA201B";
paths = (
{
closed = 1;
nodes = (
"158 0 LINE",
"205 146 LINE",
"203 146 LINE",
"203 150 LINE",
"207 150 LINE",
"207 148 LINE",
"450 148 LINE",
"450 150 LINE",
"454 150 LINE",
"454 146 LINE",
"452 146 LINE",
"497 0 LINE",
"650 0 LINE",
"415 700 LINE",
"241 700 LINE",
"10 0 LINE"
);
},
{
closed = 1;
nodes = (
"238 265 LINE",
"240 265 LINE",
"326 544 LINE",
"326 548 LINE",
"330 548 LINE",
"330 544 LINE",
"416 265 LINE",
"418 265 LINE",
"418 261 LINE",
"414 261 LINE",
"414 263 LINE",
"242 263 LINE",
"242 261 LINE",
"238 261 LINE"
);
}
);
width = 660;
}
);
rightMetricsKey = "=|";
unicode = 0041;
},
{
color = 6;
glyphname = B;
lastChange = "2020-05-11 14:41:42 +0000";
layers = (
{
layerId = "E773EBAE-783E-4D91-931E-4E5C9CF0967C";
paths = (
{
closed = 1;
nodes = (
"382 0 LINE SMOOTH",
"522 0 OFFCURVE",
"590 104 OFFCURVE",
"590 196 CURVE SMOOTH",
"590 279 OFFCURVE",
"540 338 OFFCURVE",
"480 366 CURVE",
"476 366 LINE",
"476 370 LINE",
"480 370 LINE",
"522 397 OFFCURVE",
"564 453 OFFCURVE",
"564 523 CURVE SMOOTH",
"564 612 OFFCURVE",
"494 700 OFFCURVE",
"361 700 CURVE SMOOTH",
"90 700 LINE",
"90 0 LINE"
);
},
{
closed = 1;
nodes = (
"155 57 LINE",
"155 332 LINE",
"155 336 LINE",
"159 336 LINE",
"159 334 LINE",
"361 334 LINE SMOOTH",
"465 334 OFFCURVE",
"520 266 OFFCURVE",
"520 196 CURVE SMOOTH",
"520 127 OFFCURVE",
"469 55 OFFCURVE",
"361 55 CURVE SMOOTH",
"159 55 LINE",
"159 53 LINE",
"155 53 LINE"
);
},
{
closed = 1;
nodes = (
"155 390 LINE",
"155 643 LINE",
"155 647 LINE",
"159 647 LINE",
"159 645 LINE",
"340 645 LINE SMOOTH",
"444 645 OFFCURVE",
"494 592 OFFCURVE",
"494 523 CURVE SMOOTH",
"494 456 OFFCURVE",
"448 388 OFFCURVE",
"340 388 CURVE SMOOTH",
"159 388 LINE",
"159 386 LINE",
"155 386 LINE"
);
}
);
width = 660;
},
{
background = {
paths = (
{
closed = 1;
nodes = (
"175 0 LINE",
"175 53 LINE",
"173 53 LINE",
"173 57 LINE",
"175 57 LINE",
"175 334 LINE",
"173 334 LINE",
"173 338 LINE",
"175 338 LINE",
"175 384 LINE",
"173 384 LINE",
"173 388 LINE",
"175 388 LINE",
"175 643 LINE",
"173 643 LINE",
"173 647 LINE",
"175 647 LINE",
"175 700 LINE",
"110 700 LINE",
"110 0 LINE"
);
},
{
closed = 1;
nodes = (
"542 0 OFFCURVE",
"610 104 OFFCURVE",
"610 194 CURVE SMOOTH",
"610 260 OFFCURVE",
"572 332 OFFCURVE",
"500 366 CURVE",
"496 366 LINE",
"496 370 LINE",
"470 382 OFFCURVE",
"441 386 OFFCURVE",
"407 386 CURVE SMOOTH",
"177 386 LINE",
"177 384 LINE",
"173 384 LINE",
"173 386 LINE",
"136 386 LINE",
"136 336 LINE",
"173 336 LINE",
"173 338 LINE",
"177 338 LINE",
"177 336 LINE",
"381 336 LINE SMOOTH",
"485 336 OFFCURVE",
"540 266 OFFCURVE",
"540 193 CURVE SMOOTH",
"540 127 OFFCURVE",
"489 55 OFFCURVE",
"381 55 CURVE SMOOTH",
"177 55 LINE",
"177 53 LINE",
"173 53 LINE",
"173 55 LINE",
"136 55 LINE",
"136 0 LINE",
"402 0 LINE SMOOTH"
);
},
{
closed = 1;
nodes = (
"426 336 OFFCURVE",
"464 347 OFFCURVE",
"496 366 CURVE",
"496 370 LINE",
"500 370 LINE",
"556 406 OFFCURVE",
"584 465 OFFCURVE",
"584 522 CURVE SMOOTH",
"584 612 OFFCURVE",
"514 700 OFFCURVE",
"381 700 CURVE SMOOTH",
"120 700 LINE",
"120 645 LINE",
"173 645 LINE",
"173 647 LINE",
"177 647 LINE",
"177 645 LINE",
"355 645 LINE SMOOTH",
"459 645 OFFCURVE",
"514 594 OFFCURVE",
"514 521 CURVE SMOOTH",
"514 455 OFFCURVE",
"463 386 OFFCURVE",
"355 386 CURVE SMOOTH",
"320 386 LINE",
"320 336 LINE",
"376 336 LINE SMOOTH"
);
}
);
};
layerId = "C89E7CB9-06CC-4D85-8773-832B05BA201B";
paths = (
{
closed = 1;
nodes = (
"408 0 LINE SMOOTH",
"563 0 OFFCURVE",
"650 102 OFFCURVE",
"650 215 CURVE SMOOTH",
"650 295 OFFCURVE",
"604 340 OFFCURVE",
"557 372 CURVE",
"553 372 LINE",
"553 376 LINE",
"557 376 LINE",
"589 405 OFFCURVE",
"620 440 OFFCURVE",
"620 505 CURVE SMOOTH",
"620 611 OFFCURVE",
"534 700 OFFCURVE",
"378 700 CURVE SMOOTH",
"80 700 LINE",
"80 0 LINE"
);
},
{
closed = 1;
nodes = (
"225 117 LINE",
"225 313 LINE",
"225 317 LINE",
"229 317 LINE",
"229 315 LINE",
"384 315 LINE SMOOTH",
"465 315 OFFCURVE",
"500 265 OFFCURVE",
"500 215 CURVE SMOOTH",
"500 165 OFFCURVE",
"465 115 OFFCURVE",
"384 115 CURVE SMOOTH",
"229 115 LINE",
"229 113 LINE",
"225 113 LINE"
);
},
{
closed = 1;
nodes = (
"225 417 LINE",
"225 583 LINE",
"224 587 LINE",
"228 587 LINE",
"228 585 LINE",
"366 585 LINE SMOOTH",
"442 585 OFFCURVE",
"470 542 OFFCURVE",
"470 502 CURVE SMOOTH",
"470 462 OFFCURVE",
"442 415 OFFCURVE",
"366 415 CURVE SMOOTH",
"229 415 LINE",
"229 413 LINE",
"225 413 LINE"
);
}
);
width = 710;
}
);
leftMetricsKey = "=H";
rightMetricsKey = "=O+20";
unicode = 0042;
},
{
color = 6;
glyphname = C;
lastChange = "2020-05-11 14:41:42 +0000";
layers = (
{
background = {
paths = (
{
closed = 1;
nodes = (
"501 -8 OFFCURVE",
"602 74 OFFCURVE",
"644 206 CURVE",
"663 178 LINE",
"552 222 LINE",
"585 233 LINE",
"553 111 OFFCURVE",
"462 49 OFFCURVE",
"360 49 CURVE SMOOTH",
"233 49 OFFCURVE",
"120 158 OFFCURVE",
"120 352 CURVE SMOOTH",
"120 543 OFFCURVE",
"233 653 OFFCURVE",
"360 653 CURVE SMOOTH",
"450 653 OFFCURVE",
"528 606 OFFCURVE",
"569 515 CURVE",
"535 519 LINE",
"637 580 LINE",
"623 550 LINE",
"571 650 OFFCURVE",
"479 708 OFFCURVE",
"360 708 CURVE SMOOTH",
"194 708 OFFCURVE",
"50 568 OFFCURVE",
"50 352 CURVE SMOOTH",
"50 135 OFFCURVE",
"185 -8 OFFCURVE",
"360 -8 CURVE SMOOTH"
);
}
);
};
guideLines = (
{
angle = 90;
position = "{640, 135}";
}
);
layerId = "E773EBAE-783E-4D91-931E-4E5C9CF0967C";
paths = (
{
closed = 1;
nodes = (
"496 -8 OFFCURVE",
"602 74 OFFCURVE",
"644 206 CURVE",
"663 178 LINE",
"552 222 LINE",
"585 233 LINE",
"553 111 OFFCURVE",
"456 49 OFFCURVE",
"360 49 CURVE SMOOTH",
"233 49 OFFCURVE",
"120 158 OFFCURVE",
"120 352 CURVE SMOOTH",
"120 543 OFFCURVE",
"233 653 OFFCURVE",
"361 653 CURVE SMOOTH",
"446 653 OFFCURVE",
"528 606 OFFCURVE",
"569 515 CURVE",
"535 519 LINE",
"637 580 LINE",
"623 550 LINE",
"571 650 OFFCURVE",
"468 708 OFFCURVE",
"361 708 CURVE SMOOTH",
"194 708 OFFCURVE",
"50 568 OFFCURVE",
"50 352 CURVE SMOOTH",
"50 135 OFFCURVE",
"185 -8 OFFCURVE",
"360 -8 CURVE SMOOTH"
);
}
);
width = 688;
},
{
background = {
paths = (
{
closed = 1;
nodes = (
"533 -12 OFFCURVE",
"636 84 OFFCURVE",
"681 224 CURVE",
"723 160 LINE",
"493 256 LINE",
"565 289 LINE",
"528 181 OFFCURVE",
"472 108 OFFCURVE",
"370 108 CURVE SMOOTH",
"250 108 OFFCURVE",
"190 215 OFFCURVE",
"190 352 CURVE SMOOTH",
"190 496 OFFCURVE",
"269 592 OFFCURVE",
"370 592 CURVE SMOOTH",
"448 592 OFFCURVE",
"504 563 OFFCURVE",
"547 476 CURVE",
"473 474 LINE",
"692 601 LINE",
"661 537 LINE",
"606 647 OFFCURVE",
"511 712 OFFCURVE",
"370 712 CURVE SMOOTH",
"184 712 OFFCURVE",
"40 568 OFFCURVE",
"40 352 CURVE SMOOTH",
"40 135 OFFCURVE",
"175 -12 OFFCURVE",
"370 -12 CURVE SMOOTH"
);
}
);
};
layerId = "C89E7CB9-06CC-4D85-8773-832B05BA201B";
paths = (
{
closed = 1;
nodes = (
"533 -12 OFFCURVE",
"636 84 OFFCURVE",
"681 224 CURVE",
"723 160 LINE",
"493 256 LINE",
"565 289 LINE",
"528 181 OFFCURVE",
"470 108 OFFCURVE",
"370 108 CURVE SMOOTH",
"250 108 OFFCURVE",
"190 215 OFFCURVE",
"190 352 CURVE SMOOTH",
"190 496 OFFCURVE",
"263 592 OFFCURVE",
"376 592 CURVE SMOOTH",
"438 592 OFFCURVE",
"502 563 OFFCURVE",
"545 476 CURVE",
"473 474 LINE",
"692 601 LINE",
"661 537 LINE",
"606 647 OFFCURVE",
"498 712 OFFCURVE",
"371 712 CURVE SMOOTH",
"184 712 OFFCURVE",
"40 568 OFFCURVE",
"40 352 CURVE SMOOTH",
"40 135 OFFCURVE",
"175 -12 OFFCURVE",
"370 -12 CURVE SMOOTH"
);
}
);
width = 706;
}
);
leftMetricsKey = "=O";
rightMetricsKey = "=|";
unicode = 0043;
},
{
color = 6;
glyphname = D;
lastChange = "2020-05-11 14:41:42 +0000";
layers = (
{
background = {
paths = (
{
closed = 1;
nodes = (
"545 700 LINE",
"545 385 LINE",
"547 385 LINE",
"547 381 LINE",
"545 381 LINE",
"545 330 LINE",
"547 330 LINE",
"547 326 LINE",
"545 326 LINE",
"545 0 LINE",
"610 0 LINE",
"610 700 LINE"
);
}
);
};
layerId = "E773EBAE-783E-4D91-931E-4E5C9CF0967C";
paths = (
{
closed = 1;
nodes = (
"321 0 LINE SMOOTH",
"506 0 OFFCURVE",
"630 115 OFFCURVE",
"630 352 CURVE SMOOTH",
"630 588 OFFCURVE",
"505 700 OFFCURVE",
"321 700 CURVE SMOOTH",
"90 700 LINE",
"90 0 LINE"
);
},
{
closed = 1;
nodes = (
"155 57 LINE",
"155 643 LINE",
"155 647 LINE",
"159 647 LINE",
"159 645 LINE",
"321 645 LINE SMOOTH",
"458 645 OFFCURVE",
"565 564 OFFCURVE",
"565 352 CURVE SMOOTH",
"565 139 OFFCURVE",
"459 55 OFFCURVE",
"321 55 CURVE SMOOTH",
"159 55 LINE",
"159 53 LINE",
"155 53 LINE"
);
}
);
width = 680;
},
{
background = {
components = (
{
name = H;
transform = "{1, 0, 0, 1, 10, 0}";
}
);
};
layerId = "C89E7CB9-06CC-4D85-8773-832B05BA201B";
paths = (
{
closed = 1;
nodes = (
"356 0 LINE SMOOTH",
"542 0 OFFCURVE",
"690 115 OFFCURVE",
"690 352 CURVE SMOOTH",
"690 588 OFFCURVE",
"541 700 OFFCURVE",
"356 700 CURVE SMOOTH",
"80 700 LINE",
"80 0 LINE"
);
},
{
closed = 1;
nodes = (
"225 117 LINE",
"225 583 LINE",
"225 587 LINE",
"229 587 LINE",
"229 585 LINE",
"356 585 LINE SMOOTH",
"474 585 OFFCURVE",
"545 506 OFFCURVE",
"545 352 CURVE SMOOTH",
"545 197 OFFCURVE",
"474 115 OFFCURVE",
"356 115 CURVE SMOOTH",
"229 115 LINE",
"229 113 LINE",
"225 113 LINE"
);
}
);
width = 730;
}
);
leftMetricsKey = "=H";
rightMetricsKey = "=O";
unicode = 0044;
},
{
color = 6;
glyphname = E;
lastChange = "2020-05-11 19:44:27 +0000";
layers = (
{
layerId = "E773EBAE-783E-4D91-931E-4E5C9CF0967C";
paths = (
{
closed = 1;
nodes = (
"515 0 LINE",
"515 60 LINE",
"159 60 LINE",
"159 58 LINE",
"155 58 LINE",
"155 62 LINE",
"155 331 LINE",
"155 335 LINE",
"159 335 LINE",
"159 333 LINE",
"485 333 LINE",
"485 388 LINE",
"159 388 LINE",
"159 386 LINE",
"155 386 LINE",
"155 390 LINE",
"155 638 LINE",
"155 642 LINE",
"159 642 LINE",
"159 640 LINE",
"515 640 LINE",
"515 700 LINE",
"90 700 LINE",
"90 0 LINE"
);
}
);
width = 545;
},
{
layerId = "C89E7CB9-06CC-4D85-8773-832B05BA201B";
paths = (
{
closed = 1;
nodes = (
"540 0 LINE",
"540 130 LINE",
"229 130 LINE",
"229 128 LINE",
"225 128 LINE",
"225 132 LINE",
"225 301 LINE",
"225 305 LINE",
"229 305 LINE",
"229 303 LINE",
"510 303 LINE",
"510 418 LINE",
"229 418 LINE",
"229 416 LINE",
"225 416 LINE",
"225 420 LINE",
"225 578 LINE",
"225 582 LINE",
"229 582 LINE",
"229 580 LINE",
"535 580 LINE",
"535 700 LINE",
"80 700 LINE",
"80 0 LINE"
);
}
);
width = 560;
}
);
leftMetricsKey = "=H";
unicode = 0045;
},
{
color = 6;
glyphname = F;
lastChange = "2020-05-11 19:46:21 +0000";
layers = (
{
layerId = "E773EBAE-783E-4D91-931E-4E5C9CF0967C";
paths = (
{
closed = 1;
nodes = (
"155 0 LINE",
"155 306 LINE",
"155 310 LINE",
"159 310 LINE",
"159 308 LINE",
"475 308 LINE",
"475 363 LINE",
"159 363 LINE",
"159 361 LINE",
"155 361 LINE",
"155 365 LINE",
"155 638 LINE",
"155 642 LINE",
"159 642 LINE",
"159 640 LINE",
"505 640 LINE",
"505 700 LINE",
"90 700 LINE",
"90 0 LINE"
);
}
);
width = 535;
},
{
layerId = "C89E7CB9-06CC-4D85-8773-832B05BA201B";
paths = (
{
closed = 1;
nodes = (
"225 0 LINE",
"225 269 LINE",
"225 273 LINE",
"229 273 LINE",
"229 271 LINE",
"500 271 LINE",
"500 386 LINE",
"229 386 LINE",
"229 384 LINE",
"225 384 LINE",
"225 388 LINE",
"225 568 LINE",
"225 572 LINE",
"229 572 LINE",
"229 570 LINE",
"530 570 LINE",
"530 700 LINE",
"80 700 LINE",
"80 0 LINE"
);
}
);
width = 550;
}
);
leftMetricsKey = "=H";
rightMetricsKey = "=E";
unicode = 0046;
},
{
color = 6;
glyphname = G;
lastChange = "2020-05-11 19:14:40 +0000";
layers = (
{
background = {
paths = (
{
closed = 1;
nodes = (
"546 -8 OFFCURVE",
"640 102 OFFCURVE",
"670 171 CURVE",
"670 351 LINE",
"392 351 LINE",
"392 296 LINE",
"608 296 LINE",
"608 298 LINE",
"612 298 LINE",
"612 294 LINE",
"610 294 LINE",
"610 180 LINE",
"585 122 OFFCURVE",
"499 47 OFFCURVE",
"383 47 CURVE SMOOTH",
"249 47 OFFCURVE",
"120 159 OFFCURVE",
"120 353 CURVE SMOOTH",
"120 544 OFFCURVE",
"242 653 OFFCURVE",
"383 653 CURVE SMOOTH",
"485 653 OFFCURVE",
"562 595 OFFCURVE",
"603 512 CURVE",
"576 527 LINE",
"673 585 LINE",
"654 542 LINE",
"613 630 OFFCURVE",
"514 708 OFFCURVE",
"381 708 CURVE SMOOTH",
"203 708 OFFCURVE",
"50 569 OFFCURVE",
"50 353 CURVE SMOOTH",
"50 132 OFFCURVE",
"203 -8 OFFCURVE",
"383 -8 CURVE SMOOTH"
);
}
);
};
layerId = "E773EBAE-783E-4D91-931E-4E5C9CF0967C";
paths = (
{
closed = 1;
nodes = (
"545 -8 OFFCURVE",
"640 102 OFFCURVE",
"670 171 CURVE",
"670 351 LINE",
"392 351 LINE",
"392 296 LINE",
"608 296 LINE",
"608 298 LINE",
"612 298 LINE",
"612 294 LINE",
"610 294 LINE",
"610 180 LINE",
"585 122 OFFCURVE",
"499 47 OFFCURVE",
"383 47 CURVE SMOOTH",
"246 47 OFFCURVE",
"120 159 OFFCURVE",
"120 353 CURVE SMOOTH",
"120 544 OFFCURVE",
"242 653 OFFCURVE",
"383 653 CURVE SMOOTH",
"485 653 OFFCURVE",
"562 595 OFFCURVE",
"603 512 CURVE",
"576 527 LINE",
"673 585 LINE",
"654 542 LINE",
"613 630 OFFCURVE",
"514 708 OFFCURVE",
"381 708 CURVE SMOOTH",
"203 708 OFFCURVE",
"50 569 OFFCURVE",
"50 353 CURVE SMOOTH",
"50 132 OFFCURVE",
"202 -8 OFFCURVE",
"383 -8 CURVE SMOOTH"
);
}
);
width = 720;
},
{
background = {
paths = (
{
closed = 1;
nodes = (
"554 -12 OFFCURVE",
"645 81 OFFCURVE",
"690 169 CURVE",
"690 378 LINE",
"397 378 LINE",
"397 268 LINE",
"563 268 LINE",
"563 270 LINE",
"567 270 LINE",
"567 266 LINE",
"565 266 LINE",
"565 203 LINE",
"538 157 OFFCURVE",
"480 108 OFFCURVE",
"390 108 CURVE SMOOTH",
"271 108 OFFCURVE",
"185 203 OFFCURVE",
"185 352 CURVE SMOOTH",
"185 499 OFFCURVE",
"265 592 OFFCURVE",
"391 592 CURVE SMOOTH",
"471 592 OFFCURVE",
"530 555 OFFCURVE",
"564 491 CURVE",
"516 485 LINE",
"716 608 LINE",
"681 548 LINE",
"652 613 OFFCURVE",
"556 712 OFFCURVE",
"391 712 CURVE SMOOTH",
"195 712 OFFCURVE",
"40 568 OFFCURVE",
"40 352 CURVE SMOOTH",
"40 135 OFFCURVE",
"195 -12 OFFCURVE",
"390 -12 CURVE SMOOTH"
);
}
);
};
layerId = "C89E7CB9-06CC-4D85-8773-832B05BA201B";
paths = (
{
closed = 1;
nodes = (
"510 -12 OFFCURVE",
"634 49 OFFCURVE",
"695 169 CURVE",
"695 378 LINE",
"402 378 LINE",
"402 268 LINE",
"568 268 LINE",
"568 270 LINE",
"572 270 LINE",
"572 266 LINE",
"570 266 LINE",
"570 203 LINE",
"534 141 OFFCURVE",
"460 108 OFFCURVE",
"389 108 CURVE SMOOTH",
"263 108 OFFCURVE",
"185 211 OFFCURVE",
"185 352 CURVE SMOOTH",
"185 499 OFFCURVE",
"265 592 OFFCURVE",
"391 592 CURVE SMOOTH",
"471 592 OFFCURVE",
"530 555 OFFCURVE",
"564 491 CURVE",
"516 485 LINE",
"716 608 LINE",
"681 548 LINE",
"652 613 OFFCURVE",
"556 712 OFFCURVE",
"391 712 CURVE SMOOTH",
"195 712 OFFCURVE",
"40 568 OFFCURVE",
"40 352 CURVE SMOOTH",
"40 144 OFFCURVE",
"188 -12 OFFCURVE",
"386 -12 CURVE SMOOTH"
);
}
);
width = 735;
}
);
leftMetricsKey = "=O";
rightMetricsKey = "=O";
unicode = 0047;
},
{
color = 7;
glyphname = G.ss16;
lastChange = "2020-05-11 14:41:42 +0000";
layers = (
{
background = {
paths = (
{
closed = 1;
nodes = (
"551 -8 OFFCURVE",
"645 102 OFFCURVE",
"675 171 CURVE",
"615 180 LINE",
"590 122 OFFCURVE",
"504 47 OFFCURVE",
"388 47 CURVE SMOOTH",
"254 47 OFFCURVE",
"125 158 OFFCURVE",
"125 352 CURVE SMOOTH",
"125 543 OFFCURVE",
"247 653 OFFCURVE",
"388 653 CURVE SMOOTH",
"490 653 OFFCURVE",
"567 595 OFFCURVE",
"608 512 CURVE",
"581 527 LINE",
"678 585 LINE",
"659 542 LINE",
"618 630 OFFCURVE",
"519 708 OFFCURVE",
"386 708 CURVE SMOOTH",
"208 708 OFFCURVE",
"55 568 OFFCURVE",
"55 352 CURVE SMOOTH",
"55 131 OFFCURVE",
"218 -8 OFFCURVE",
"388 -8 CURVE SMOOTH"
);
}
);
};
guideLines = (
{
angle = 270;
position = "{595, 295}";
}
);
layerId = "E773EBAE-783E-4D91-931E-4E5C9CF0967C";
paths = (
{
closed = 1;
nodes = (
"591 282 LINE",
"591 284 LINE",
"595 284 LINE",
"595 280 LINE",
"593 280 LINE",
"588 130 OFFCURVE",
"481 47 OFFCURVE",
"360 47 CURVE SMOOTH",
"225 47 OFFCURVE",
"120 158 OFFCURVE",
"120 352 CURVE SMOOTH",
"120 543 OFFCURVE",
"223 653 OFFCURVE",
"360 653 CURVE SMOOTH",
"461 653 OFFCURVE",
"543 594 OFFCURVE",
"578 482 CURVE",
"541 511 LINE",
"660 570 LINE",
"638 513 LINE",
"593 635 OFFCURVE",
"494 708 OFFCURVE",
"360 708 CURVE SMOOTH",
"174 708 OFFCURVE",
"50 568 OFFCURVE",
"50 352 CURVE SMOOTH",
"50 135 OFFCURVE",
"175 -8 OFFCURVE",
"360 -8 CURVE SMOOTH",
"462 -8 OFFCURVE",
"539 37 OFFCURVE",
"591 109 CURVE",
"591 113 LINE",
"595 113 LINE",
"595 109 LINE",
"603 0 LINE",
"648 0 LINE",
"648 337 LINE",
"386 337 LINE",
"386 282 LINE"
);
}
);
width = 698;
},
{
background = {
paths = (
{
closed = 1;
nodes = (
"417 296 LINE",
"630 296 LINE",
"630 154 LINE",
"695 154 LINE",
"695 351 LINE",
"417 351 LINE"
);
},
{
closed = 1;
nodes = (
"396 263 LINE",
"562 263 LINE",
"562 281 LINE",
"598 281 LINE",
"598 245 LINE",
"580 245 LINE",
"580 197 LINE",
"559 158 OFFCURVE",
"512 108 OFFCURVE",
"400 108 CURVE SMOOTH",
"276 108 OFFCURVE",
"190 197 OFFCURVE",
"190 352 CURVE SMOOTH",
"190 505 OFFCURVE",
"274 592 OFFCURVE",
"400 592 CURVE SMOOTH",
"528 592 OFFCURVE",
"584 512 OFFCURVE",
"599 473 CURVE",
"521 485 LINE",
"727 599 LINE",
"698 528 LINE",
"687 558 OFFCURVE",
"601 712 OFFCURVE",
"400 712 CURVE SMOOTH",
"199 712 OFFCURVE",
"45 568 OFFCURVE",
"45 352 CURVE SMOOTH",
"45 135 OFFCURVE",
"200 -12 OFFCURVE",
"400 -12 CURVE SMOOTH",
"595 -12 OFFCURVE",
"678 125 OFFCURVE",
"695 163 CURVE",
"695 368 LINE",
"396 368 LINE"
);
}
);
};
guideLines = (
{
position = "{120, 356}";
}
);
layerId = "C89E7CB9-06CC-4D85-8773-832B05BA201B";
paths = (
{
closed = 1;
nodes = (
"539 246 LINE",
"539 248 LINE",
"543 248 LINE",
"543 244 LINE",
"541 244 LINE",
"523 155 OFFCURVE",
"462 112 OFFCURVE",
"375 112 CURVE SMOOTH",
"256 112 OFFCURVE",
"190 201 OFFCURVE",
"190 356 CURVE SMOOTH",
"190 509 OFFCURVE",
"254 596 OFFCURVE",
"375 596 CURVE SMOOTH",
"467 596 OFFCURVE",
"530 545 OFFCURVE",
"561 451 CURVE",
"493 464 LINE",
"709 582 LINE",
"675 518 LINE",
"626 640 OFFCURVE",
"516 716 OFFCURVE",
"375 716 CURVE SMOOTH",
"179 716 OFFCURVE",
"40 572 OFFCURVE",
"40 356 CURVE SMOOTH",
"40 139 OFFCURVE",
"180 -8 OFFCURVE",
"375 -8 CURVE SMOOTH",
"447 -8 OFFCURVE",
"507 14 OFFCURVE",
"555 52 CURVE",
"555 56 LINE",
"559 56 LINE",
"559 52 LINE",
"571 0 LINE",
"666 0 LINE",
"666 356 LINE",
"392 356 LINE",
"392 246 LINE"
);
}
);
width = 706;
}
);
leftMetricsKey = "=O";
rightMetricsKey = "=O";
},
{
color = 6;
glyphname = H;
lastChange = "2020-04-24 18:54:52 +0000";
layers = (
{
background = {
components = (
{
name = m;
transform = "{1, 0, 0, 1, -85, 0}";
}
);
};
layerId = "E773EBAE-783E-4D91-931E-4E5C9CF0967C";
paths = (
{
closed = 1;
nodes = (
"155 0 LINE",
"155 326 LINE",
"155 330 LINE",
"159 330 LINE",
"159 328 LINE",
"541 328 LINE",
"541 330 LINE",
"545 330 LINE",
"545 326 LINE",
"545 0 LINE",
"610 0 LINE",
"610 700 LINE",
"545 700 LINE",
"545 385 LINE",
"545 381 LINE",
"541 381 LINE",
"541 383 LINE",
"159 383 LINE",
"159 381 LINE",
"155 381 LINE",
"155 385 LINE",
"155 700 LINE",
"90 700 LINE",
"90 0 LINE"
);
}
);
width = 700;
},
{
layerId = "C89E7CB9-06CC-4D85-8773-832B05BA201B";
paths = (
{
closed = 1;
nodes = (
"225 0 LINE",
"225 292 LINE",
"225 296 LINE",
"229 296 LINE",
"229 294 LINE",
"501 294 LINE",
"501 296 LINE",
"505 296 LINE",
"505 292 LINE",
"505 0 LINE",
"650 0 LINE",
"650 700 LINE",
"505 700 LINE",
"505 416 LINE",
"505 412 LINE",
"501 412 LINE",
"501 414 LINE",
"229 414 LINE",
"229 412 LINE",
"225 412 LINE",
"225 416 LINE",
"225 700 LINE",
"80 700 LINE",
"80 0 LINE"
);
}
);
width = 730;
}
);
rightMetricsKey = "=|";
unicode = 0048;
},
{
color = 3;
glyphname = Hbar;
lastChange = "2020-05-28 11:52:45 +0000";
layers = (
{
layerId = "E773EBAE-783E-4D91-931E-4E5C9CF0967C";
paths = (
{
closed = 1;
nodes = (
"610 578 LINE",
"610 582 LINE",
"610 700 LINE",
"545 700 LINE",
"545 582 LINE",
"545 578 LINE",
"541 578 LINE",
"541 580 LINE",
"159 580 LINE",
"159 578 LINE",
"155 578 LINE",
"155 582 LINE",
"155 700 LINE",
"90 700 LINE",
"90 582 LINE",
"90 578 LINE",
"86 578 LINE",
"86 580 LINE",
"27 580 LINE",
"27 525 LINE",
"86 525 LINE",
"86 527 LINE",
"90 527 LINE",
"90 523 LINE",
"90 0 LINE",
"155 0 LINE",
"155 326 LINE",
"155 330 LINE",
"159 330 LINE",
"159 328 LINE",
"541 328 LINE",
"541 330 LINE",
"545 330 LINE",
"545 326 LINE",
"545 0 LINE",
"610 0 LINE",
"610 523 LINE",
"610 527 LINE",
"614 527 LINE",
"614 525 LINE",
"673 525 LINE",
"673 580 LINE",
"614 580 LINE",
"614 578 LINE"
);
},
{
closed = 1;
nodes = (
"545 523 LINE",
"545 385 LINE",
"545 381 LINE",
"541 381 LINE",
"541 383 LINE",
"159 383 LINE",
"159 381 LINE",
"155 381 LINE",
"155 385 LINE",
"155 523 LINE",
"155 527 LINE",
"159 527 LINE",
"159 525 LINE",
"541 525 LINE",
"541 527 LINE",
"545 527 LINE"
);
}
);
width = 700;
},
{
background = {
paths = (
{
closed = 1;
nodes = (
"225 0 LINE",
"225 292 LINE",
"225 296 LINE",
"229 296 LINE",
"229 294 LINE",
"501 294 LINE",
"501 296 LINE",
"505 296 LINE",
"505 292 LINE",
"505 0 LINE",
"650 0 LINE",
"650 700 LINE",
"505 700 LINE",
"505 416 LINE",
"505 412 LINE",
"501 412 LINE",
"501 414 LINE",
"229 414 LINE",
"229 412 LINE",
"225 412 LINE",
"225 416 LINE",
"225 700 LINE",
"80 700 LINE",
"80 0 LINE"
);
}
);
};
layerId = "C89E7CB9-06CC-4D85-8773-832B05BA201B";
paths = (
{
closed = 1;
nodes = (
"650 623 LINE",
"650 627 LINE",
"650 700 LINE",
"505 700 LINE",
"505 627 LINE",
"505 623 LINE",
"501 623 LINE",
"501 625 LINE",
"229 625 LINE",
"229 623 LINE",
"225 623 LINE",
"225 627 LINE",
"225 700 LINE",
"80 700 LINE",
"80 627 LINE",
"80 623 LINE",
"76 623 LINE",
"76 625 LINE",
"17 625 LINE",
"17 525 LINE",
"76 525 LINE",
"76 527 LINE",
"80 527 LINE",
"80 523 LINE",
"80 0 LINE",
"225 0 LINE",
"225 292 LINE",
"225 296 LINE",
"229 296 LINE",
"229 294 LINE",
"501 294 LINE",
"501 296 LINE",
"505 296 LINE",
"505 292 LINE",
"505 0 LINE",
"650 0 LINE",
"650 523 LINE",
"650 527 LINE",
"654 527 LINE",
"654 525 LINE",
"713 525 LINE",
"713 625 LINE",
"654 625 LINE",
"654 623 LINE"
);
},
{
closed = 1;
nodes = (
"505 523 LINE",
"505 416 LINE",
"505 412 LINE",
"501 412 LINE",
"501 414 LINE",
"229 414 LINE",
"229 412 LINE",
"225 412 LINE",
"225 416 LINE",
"225 524 LINE",
"225 527 LINE",
"229 527 LINE",
"229 525 LINE",
"501 525 LINE",
"501 527 LINE",
"505 527 LINE"
);
}
);
width = 730;
}
);
rightMetricsKey = "=|";
unicode = 0126;
},
{
color = 6;
glyphname = I;
lastChange = "2020-04-24 18:54:52 +0000";
layers = (
{
background = {
paths = (
{
closed = 1;
nodes = (
"90 735 LINE",
"90 123 LINE SMOOTH",
"90 36 OFFCURVE",
"128 -3 OFFCURVE",
"214 -3 CURVE SMOOTH",
"228 -3 OFFCURVE",
"247 -1 OFFCURVE",
"257 2 CURVE",
"257 56 LINE",
"251 55 OFFCURVE",
"234 54 OFFCURVE",
"226 54 CURVE SMOOTH",
"173 54 OFFCURVE",
"154 76 OFFCURVE",
"154 138 CURVE SMOOTH",
"154 735 LINE"
);
}
);
};
layerId = "E773EBAE-783E-4D91-931E-4E5C9CF0967C";
paths = (
{
closed = 1;
nodes = (
"155 0 LINE",
"155 700 LINE",
"90 700 LINE",
"90 0 LINE"
);
}
);
width = 245;
},
{
layerId = "C89E7CB9-06CC-4D85-8773-832B05BA201B";
paths = (
{
closed = 1;
nodes = (
"225 0 LINE",
"225 700 LINE",
"80 700 LINE",
"80 0 LINE"
);
}
);
width = 305;
}
);
leftMetricsKey = "=H";
rightMetricsKey = "=|";
unicode = 0049;
},
{
color = 6;
glyphname = J;
lastChange = "2020-05-15 09:38:23 +0000";
layers = (
{
background = {
paths = (
{
closed = 1;
nodes = (
"-181 152 LINE",
"-150 57 OFFCURVE",
"-67 -5 OFFCURVE",
"68 -5 CURVE SMOOTH",
"225 -5 OFFCURVE",
"315 100 OFFCURVE",
"315 256 CURVE SMOOTH",
"315 700 LINE",
"250 700 LINE",
"250 236 LINE SMOOTH",
"250 123 OFFCURVE",
"180 50 OFFCURVE",
"68 50 CURVE SMOOTH",
"-35 50 OFFCURVE",
"-96 97 OFFCURVE",
"-119 173 CURVE"
);
}
);
};
layerId = "E773EBAE-783E-4D91-931E-4E5C9CF0967C";
paths = (
{
closed = 1;
nodes = (
"-32 5 LINE",
"-11 -2 OFFCURVE",
"20 -8 OFFCURVE",
"63 -8 CURVE SMOOTH",
"218 -8 OFFCURVE",
"312 67 OFFCURVE",
"312 234 CURVE SMOOTH",
"312 700 LINE",
"247 700 LINE",
"247 223 LINE SMOOTH",
"247 109 OFFCURVE",
"181 57 OFFCURVE",
"68 57 CURVE SMOOTH",
"35 57 OFFCURVE",
"3 62 OFFCURVE",
"-26 74 CURVE",
"20 84 LINE",
"20 -33 LINE"
);
}
);
width = 402;
},
{
background = {
paths = (
{
closed = 1;
nodes = (
"-187 221 LINE",
"-171 111 OFFCURVE",
"-88 -15 OFFCURVE",
"101 -15 CURVE SMOOTH",
"263 -15 OFFCURVE",
"383 90 OFFCURVE",
"383 246 CURVE SMOOTH",
"383 700 LINE",
"238 700 LINE",
"238 226 LINE SMOOTH",
"238 155 OFFCURVE",
"186 110 OFFCURVE",
"101 110 CURVE SMOOTH",
"-1 110 OFFCURVE",
"-44 157 OFFCURVE",
"-64 246 CURVE"
);
}
);
};
layerId = "C89E7CB9-06CC-4D85-8773-832B05BA201B";
paths = (
{
closed = 1;
nodes = (
"-65 14 LINE",
"-2 -14 OFFCURVE",
"73 -17 OFFCURVE",
"101 -17 CURVE SMOOTH",
"263 -17 OFFCURVE",
"383 77 OFFCURVE",
"383 244 CURVE SMOOTH",
"383 700 LINE",
"238 700 LINE",
"238 240 LINE SMOOTH",
"238 154 OFFCURVE",
"168 122 OFFCURVE",
"79 122 CURVE SMOOTH",
"42 122 OFFCURVE",
"-16 128 OFFCURVE",
"-65 147 CURVE",
"10 154 LINE",
"10 -68 LINE"
);
}
);
width = 463;
}
);
rightMetricsKey = "=H";
unicode = 004A;
},
{
color = 6;
glyphname = K;
lastChange = "2020-05-13 10:03:27 +0000";
layers = (
{
background = {
paths = (
{
closed = 0;
nodes = (
"609 721 LINE",
"75 153 LINE",
"70 151 LINE"
);
},
{
closed = 1;
nodes = (
"185 0 LINE",
"185 188 LINE",
"183 188 LINE",
"183 192 LINE",
"187 192 LINE",
"290 304 LINE",
"290 307 LINE",
"294 307 LINE",
"294 305 LINE",
"506 0 LINE",
"670 0 LINE",
"387 408 LINE",
"385 408 LINE",
"385 412 LINE",
"388 412 LINE",
"650 700 LINE",
"460 700 LINE",
"187 384 LINE",
"187 382 LINE",
"183 382 LINE",
"183 386 LINE",
"185 386 LINE",
"185 699 LINE",
"40 699 LINE",
"40 0 LINE"
);
},
{
closed = 1;
nodes = (
"155 0 LINE",
"155 236 LINE",
"153 236 LINE",
"153 240 LINE",
"157 240 LINE",
"262 352 LINE",
"262 354 LINE",
"266 354 LINE",
"266 352 LINE",
"538 0 LINE",
"620 0 LINE",
"310 401 LINE",
"309 401 LINE",
"309 405 LINE",
"312 405 LINE",
"589 700 LINE",
"500 700 LINE",
"157 328 LINE",
"157 326 LINE",
"153 326 LINE",
"153 330 LINE",
"155 330 LINE",
"155 700 LINE",
"90 700 LINE",
"90 0 LINE"
);
}
);
};
guideLines = (
{
angle = 46.7063;
position = "{382, 478}";
}
);
layerId = "E773EBAE-783E-4D91-931E-4E5C9CF0967C";
paths = (
{
closed = 1;
nodes = (
"155 0 LINE",
"155 237 LINE",
"155 241 LINE",
"159 241 LINE",
"277 367 LINE",
"277 371 LINE",
"281 371 LINE",
"281 367 LINE",
"540 0 LINE",
"620 0 LINE",
"323 412 LINE",
"320 412 LINE",
"320 416 LINE",
"324 416 LINE",
"591 700 LINE",
"511 700 LINE",
"159 324 LINE",
"159 322 LINE",
"155 322 LINE",
"155 326 LINE",
"155 700 LINE",
"90 700 LINE",
"90 0 LINE"
);
}
);
width = 630;
},
{
background = {
paths = (
{
closed = 1;
nodes = (
"195 0 LINE",
"195 236 LINE",
"193 236 LINE",
"193 240 LINE",
"197 240 LINE",
"302 352 LINE",
"302 354 LINE",
"306 354 LINE",
"306 352 LINE",
"578 0 LINE",
"660 0 LINE",
"350 401 LINE",
"349 401 LINE",
"349 405 LINE",
"352 405 LINE",
"629 700 LINE",
"540 700 LINE",
"197 328 LINE",
"197 326 LINE",
"193 326 LINE",
"193 330 LINE",
"195 330 LINE",
"195 700 LINE",
"130 700 LINE",
"130 0 LINE"
);
},
{
closed = 0;
nodes = (
"196 157 LINE",
"690 700 LINE"
);
}
);
};
guideLines = (
{
angle = 227.9272;
position = "{445, 433}";
}
);
layerId = "C89E7CB9-06CC-4D85-8773-832B05BA201B";
paths = (
{
closed = 1;
nodes = (
"225 0 LINE",
"225 189 LINE",
"225 193 LINE",
"229 193 LINE",
"330 306 LINE",
"330 310 LINE",
"334 310 LINE",
"334 307 LINE",
"540 0 LINE",
"710 0 LINE",
"426 409 LINE",
"423 409 LINE",
"423 413 LINE",
"427 413 LINE",
"686 700 LINE",
"511 700 LINE",
"229 381 LINE",
"229 379 LINE",
"225 379 LINE",
"225 383 LINE",
"225 700 LINE",
"80 700 LINE",
"80 0 LINE"
);
}
);
width = 710;
}
);
leftMetricsKey = "=H";
unicode = 004B;
},
{
color = 6;
glyphname = L;
lastChange = "2020-04-24 18:54:52 +0000";
layers = (
{
layerId = "E773EBAE-783E-4D91-931E-4E5C9CF0967C";
paths = (
{
closed = 1;
nodes = (
"515 0 LINE",
"515 60 LINE",
"159 60 LINE",
"159 58 LINE",
"155 58 LINE",
"155 62 LINE",
"155 700 LINE",
"90 700 LINE",
"90 0 LINE"
);
}
);
width = 535;
},
{
layerId = "C89E7CB9-06CC-4D85-8773-832B05BA201B";
paths = (
{
closed = 1;
nodes = (
"540 0 LINE",
"540 125 LINE",
"229 125 LINE",
"229 123 LINE",
"225 123 LINE",
"225 127 LINE",
"225 700 LINE",
"80 700 LINE",
"80 0 LINE"
);
}
);
width = 550;
}
);
leftMetricsKey = "=H";
unicode = 004C;
},
{
color = 6;
glyphname = M;
lastChange = "2020-05-21 12:01:11 +0000";
layers = (
{
layerId = "E773EBAE-783E-4D91-931E-4E5C9CF0967C";
paths = (
{
closed = 1;
nodes = (
"150 0 LINE",
"150 597 LINE",
"150 601 LINE",
"154 601 LINE",
"154 597 LINE",
"389 0 LINE",
"457 0 LINE",
"692 597 LINE",
"692 601 LINE",
"696 601 LINE",
"696 597 LINE",
"696 0 LINE",
"756 0 LINE",
"756 700 LINE",
"670 700 LINE",
"425 68 LINE",
"425 64 LINE",
"421 64 LINE",
"421 68 LINE",
"176 700 LINE",
"90 700 LINE",
"90 0 LINE"
);
}
);
width = 846;
},
{
background = {
paths = (
{
closed = 1;
nodes = (
"130 0 LINE",
"195 0 LINE",
"195 585 LINE",
"194 585 LINE",
"194 589 LINE",
"195 589 LINE",
"195 700 LINE",
"130 700 LINE"
);
},
{
closed = 1;
nodes = (
"195 700 LINE",
"195 589 LINE",
"198 589 LINE",
"198 585 LINE",
"430 0 LINE",
"468 0 LINE",
"468 75 LINE",
"463 75 LINE",
"463 79 LINE",
"217 700 LINE"
);
},
{
closed = 1;
nodes = (
"735 700 LINE",
"735 589 LINE",
"736 589 LINE",
"736 585 LINE",
"735 585 LINE",
"735 0 LINE",
"800 0 LINE",
"800 700 LINE"
);
},
{
closed = 1;
nodes = (
"467 79 LINE",
"467 75 LINE",
"462 75 LINE",
"462 0 LINE",
"500 0 LINE",
"732 585 LINE",
"732 589 LINE",
"735 589 LINE",
"735 700 LINE",
"713 700 LINE"
);
}
);
};
layerId = "C89E7CB9-06CC-4D85-8773-832B05BA201B";
paths = (
{
closed = 1;
nodes = (
"213 0 LINE",
"213 463 LINE",
"213 467 LINE",
"217 467 LINE",
"217 463 LINE",
"390 0 LINE",
"520 0 LINE",
"694 462 LINE",
"694 466 LINE",
"698 466 LINE",
"698 462 LINE",
"698 0 LINE",
"831 0 LINE",
"831 700 LINE",
"658 700 LINE",
"457 151 LINE",
"457 147 LINE",
"453 147 LINE",
"453 151 LINE",
"253 700 LINE",
"80 700 LINE",
"80 0 LINE"
);
}
);
width = 911;
}
);
leftMetricsKey = "=H";
rightMetricsKey = "=|";
unicode = 004D;
},
{
color = 6;
glyphname = N;
lastChange = "2020-05-21 12:08:31 +0000";
layers = (
{
background = {
components = (
{
name = m;
transform = "{1, 0, 0, 1, -85, 0}";
}
);
};
layerId = "E773EBAE-783E-4D91-931E-4E5C9CF0967C";
paths = (
{
closed = 1;
nodes = (
"152 0 LINE",
"152 588 LINE",
"152 592 LINE",
"156 592 LINE",
"156 590 LINE",
"548 0 LINE",
"610 0 LINE",
"610 700 LINE",
"548 700 LINE",
"548 112 LINE",
"548 108 LINE",
"544 108 LINE",
"544 110 LINE",
"152 700 LINE",
"90 700 LINE",
"90 0 LINE"
);
}
);
width = 700;
},
{
layerId = "C89E7CB9-06CC-4D85-8773-832B05BA201B";
paths = (
{
closed = 1;
nodes = (
"222 0 LINE",
"222 464 LINE",
"222 468 LINE",
"226 468 LINE",
"226 466 LINE",
"541 0 LINE",
"670 0 LINE",
"670 700 LINE",
"528 700 LINE",
"528 235 LINE",
"528 231 LINE",
"524 231 LINE",
"524 233 LINE",
"209 700 LINE",
"80 700 LINE",
"80 0 LINE"
);
}
);
width = 750;
}
);
leftMetricsKey = "=H";
rightMetricsKey = "=|";
unicode = 004E;
},
{
color = 6;
glyphname = O;
lastChange = "2020-05-11 14:40:50 +0000";
layers = (
{
background = {
components = (
{
name = H;
transform = "{1, 0, 0, 1, 15, 0}";
}
);
};
layerId = "E773EBAE-783E-4D91-931E-4E5C9CF0967C";
paths = (
{
closed = 1;
nodes = (
"541 -8 OFFCURVE",
"660 135 OFFCURVE",
"660 352 CURVE SMOOTH",
"660 568 OFFCURVE",
"540 708 OFFCURVE",
"355 708 CURVE SMOOTH",
"169 708 OFFCURVE",
"50 568 OFFCURVE",
"50 352 CURVE SMOOTH",
"50 135 OFFCURVE",
"170 -8 OFFCURVE",
"355 -8 CURVE SMOOTH"
);
},
{
closed = 1;
nodes = (
"220 47 OFFCURVE",
"120 158 OFFCURVE",
"120 352 CURVE SMOOTH",
"120 543 OFFCURVE",
"218 653 OFFCURVE",
"355 653 CURVE SMOOTH",
"490 653 OFFCURVE",
"590 544 OFFCURVE",
"590 352 CURVE SMOOTH",
"590 159 OFFCURVE",
"490 47 OFFCURVE",
"355 47 CURVE SMOOTH"
);
}
);
width = 710;
},
{
background = {
paths = (
{
closed = 1;
nodes = (
"555 -12 OFFCURVE",
"710 135 OFFCURVE",
"710 352 CURVE SMOOTH",
"710 568 OFFCURVE",
"556 712 OFFCURVE",
"370 712 CURVE SMOOTH",
"185 712 OFFCURVE",
"30 568 OFFCURVE",
"30 352 CURVE SMOOTH",
"30 135 OFFCURVE",
"184 -12 OFFCURVE",
"370 -12 CURVE SMOOTH"
);
},
{
closed = 1;
nodes = (
"180 506 OFFCURVE",
"261 592 OFFCURVE",
"370 592 CURVE SMOOTH",
"481 592 OFFCURVE",
"560 505 OFFCURVE",
"560 352 CURVE SMOOTH",
"560 197 OFFCURVE",
"479 108 OFFCURVE",
"370 108 CURVE SMOOTH",
"260 108 OFFCURVE",
"180 197 OFFCURVE",
"180 352 CURVE SMOOTH"
);
}
);
};
layerId = "C89E7CB9-06CC-4D85-8773-832B05BA201B";
paths = (
{
closed = 1;
nodes = (
"566 -12 OFFCURVE",
"700 135 OFFCURVE",
"700 352 CURVE SMOOTH",
"700 568 OFFCURVE",
"565 712 OFFCURVE",
"370 712 CURVE SMOOTH",
"174 712 OFFCURVE",
"40 568 OFFCURVE",
"40 352 CURVE SMOOTH",
"40 135 OFFCURVE",
"175 -12 OFFCURVE",
"370 -12 CURVE SMOOTH"
);
},
{
closed = 1;
nodes = (
"251 108 OFFCURVE",
"190 197 OFFCURVE",
"190 352 CURVE SMOOTH",
"190 505 OFFCURVE",
"249 592 OFFCURVE",
"370 592 CURVE SMOOTH",
"489 592 OFFCURVE",
"550 506 OFFCURVE",
"550 352 CURVE SMOOTH",
"550 197 OFFCURVE",
"490 108 OFFCURVE",
"370 108 CURVE SMOOTH"
);
}
);
width = 740;
}
);
rightMetricsKey = "=|";
unicode = 004F;
},
{
color = 6;
glyphname = P;
lastChange = "2020-05-11 14:41:42 +0000";
layers = (
{
background = {
paths = (
{
closed = 1;
nodes = (
"545 700 LINE",
"545 385 LINE",
"547 385 LINE",
"547 381 LINE",
"545 381 LINE",
"545 330 LINE",
"547 330 LINE",
"547 326 LINE",
"545 326 LINE",
"545 0 LINE",
"610 0 LINE",
"610 700 LINE"
);
},
{
closed = 1;
nodes = (
"90 0 LINE",
"175 0 LINE",
"175 264 LINE",
"173 264 LINE",
"173 268 LINE",
"175 268 LINE",
"175 339 LINE",
"173 339 LINE",
"173 343 LINE",
"175 343 LINE",
"175 623 LINE",
"173 623 LINE",
"173 627 LINE",
"175 627 LINE",
"175 700 LINE",
"90 700 LINE"
);
},
{
closed = 1;
nodes = (
"116 700 LINE",
"116 625 LINE",
"173 625 LINE",
"173 627 LINE",
"177 627 LINE",
"177 625 LINE",
"320 625 LINE SMOOTH",
"410 625 OFFCURVE",
"465 578 OFFCURVE",
"465 478 CURVE SMOOTH",
"465 396 OFFCURVE",
"410 341 OFFCURVE",
"325 341 CURVE SMOOTH",
"177 341 LINE",
"177 339 LINE",
"173 339 LINE",
"173 341 LINE",
"116 341 LINE",
"116 266 LINE",
"173 266 LINE",
"173 268 LINE",
"177 268 LINE",
"177 266 LINE",
"345 266 LINE SMOOTH",
"463 266 OFFCURVE",
"555 352 OFFCURVE",
"555 478 CURVE SMOOTH",
"555 616 OFFCURVE",
"463 700 OFFCURVE",
"340 700 CURVE SMOOTH"
);
}
);
};
guideLines = (
{
angle = 90;
position = "{318, -9}";
}
);
layerId = "E773EBAE-783E-4D91-931E-4E5C9CF0967C";
paths = (
{
closed = 1;
nodes = (
"155 0 LINE",
"155 274 LINE",
"155 278 LINE",
"159 278 LINE",
"159 276 LINE",
"352 276 LINE SMOOTH",
"485 276 OFFCURVE",
"555 383 OFFCURVE",
"555 487 CURVE SMOOTH",
"555 590 OFFCURVE",
"487 700 OFFCURVE",
"347 700 CURVE SMOOTH",
"90 700 LINE",
"90 0 LINE"
);
},
{
closed = 1;
nodes = (
"155 333 LINE",
"155 643 LINE",
"155 647 LINE",
"159 647 LINE",
"159 645 LINE",
"326 645 LINE SMOOTH",
"434 645 OFFCURVE",
"485 563 OFFCURVE",
"485 485 CURVE SMOOTH",
"485 403 OFFCURVE",
"430 331 OFFCURVE",
"326 331 CURVE SMOOTH",
"159 331 LINE",
"159 329 LINE",
"155 329 LINE"
);
}
);
width = 605;
},
{
layerId = "C89E7CB9-06CC-4D85-8773-832B05BA201B";
paths = (
{
closed = 1;
nodes = (
"225 0 LINE",
"225 214 LINE",
"225 218 LINE",
"229 218 LINE",
"229 216 LINE",
"378 216 LINE SMOOTH",
"533 216 OFFCURVE",
"620 332 OFFCURVE",
"620 456 CURVE SMOOTH",
"620 579 OFFCURVE",
"533 700 OFFCURVE",
"378 700 CURVE SMOOTH",
"80 700 LINE",
"80 0 LINE"
);
},
{
closed = 1;
nodes = (
"225 333 LINE",
"225 578 LINE",
"225 582 LINE",
"229 582 LINE",
"229 580 LINE",
"341 580 LINE SMOOTH",
"427 580 OFFCURVE",
"470 523 OFFCURVE",
"470 457 CURVE SMOOTH",
"470 391 OFFCURVE",
"427 331 OFFCURVE",
"341 331 CURVE SMOOTH",
"229 331 LINE",
"229 329 LINE",
"225 329 LINE"
);
}
);
width = 660;
}
);
leftMetricsKey = "=H";
rightMetricsKey = "=O";
unicode = 0050;
},
{
color = 6;
glyphname = Q;
lastChange = "2020-05-11 14:41:42 +0000";
layers = (
{
background = {
paths = (
{
closed = 1;
nodes = (
"511 -142 OFFCURVE",
"557 -129 OFFCURVE",
"584 -113 CURVE",
"573 -146 LINE",
"573 -36 LINE",
"584 -58 LINE",
"561 -71 OFFCURVE",
"482 -79 OFFCURVE",
"453 -79 CURVE SMOOTH",
"406 -79 OFFCURVE",
"383 -58 OFFCURVE",
"383 -22 CURVE SMOOTH",
"383 -10 LINE",
"381 -10 LINE",
"381 -6 LINE",
"385 -6 LINE",
"514 -6 OFFCURVE",
"660 115 OFFCURVE",
"660 352 CURVE SMOOTH",
"660 568 OFFCURVE",
"540 708 OFFCURVE",
"355 708 CURVE SMOOTH",
"169 708 OFFCURVE",
"50 568 OFFCURVE",
"50 352 CURVE SMOOTH",
"50 115 OFFCURVE",
"197 -6 OFFCURVE",
"319 -6 CURVE",
"323 -6 LINE",
"323 -10 LINE",
"321 -10 LINE",
"321 -39 LINE SMOOTH",
"321 -111 OFFCURVE",
"385 -142 OFFCURVE",
"449 -142 CURVE SMOOTH"
);
},
{
closed = 1;
nodes = (
"222 47 OFFCURVE",
"120 158 OFFCURVE",
"120 352 CURVE SMOOTH",
"120 543 OFFCURVE",
"218 653 OFFCURVE",
"355 653 CURVE SMOOTH",
"488 653 OFFCURVE",
"590 544 OFFCURVE",
"590 352 CURVE SMOOTH",
"590 159 OFFCURVE",
"490 47 OFFCURVE",
"355 47 CURVE SMOOTH"
);
}
);
};
layerId = "E773EBAE-783E-4D91-931E-4E5C9CF0967C";
paths = (
{
closed = 1;
nodes = (
"573 -35 LINE",
"591 -57 LINE",
"546 -69 OFFCURVE",
"496 -80 OFFCURVE",
"457 -80 CURVE SMOOTH",
"414 -80 OFFCURVE",
"383 -66 OFFCURVE",
"383 -22 CURVE SMOOTH",
"383 -10 LINE",
"381 -10 LINE",
"381 -6 LINE",
"385 -6 LINE",
"514 -6 OFFCURVE",
"660 115 OFFCURVE",
"660 352 CURVE SMOOTH",
"660 568 OFFCURVE",
"540 708 OFFCURVE",
"355 708 CURVE SMOOTH",
"169 708 OFFCURVE",
"50 568 OFFCURVE",
"50 352 CURVE SMOOTH",
"50 115 OFFCURVE",
"197 -6 OFFCURVE",
"319 -6 CURVE",
"323 -6 LINE",
"323 -10 LINE",
"321 -10 LINE",
"321 -39 LINE SMOOTH",
"321 -109 OFFCURVE",
"378 -142 OFFCURVE",
"454 -142 CURVE SMOOTH",
"494 -142 OFFCURVE",
"547 -133 OFFCURVE",
"590 -111 CURVE",
"573 -146 LINE"
);
},
{
closed = 1;
nodes = (
"222 47 OFFCURVE",
"120 158 OFFCURVE",
"120 352 CURVE SMOOTH",
"120 543 OFFCURVE",
"218 653 OFFCURVE",
"355 653 CURVE SMOOTH",
"488 653 OFFCURVE",
"590 544 OFFCURVE",
"590 352 CURVE SMOOTH",
"590 159 OFFCURVE",
"490 47 OFFCURVE",
"355 47 CURVE SMOOTH"
);
}
);
width = 710;
},
{
background = {
paths = (
{
closed = 1;
nodes = (
"548 -174 OFFCURVE",
"613 -156 OFFCURVE",
"675 -121 CURVE",
"639 -197 LINE",
"639 24 LINE",
"671 -19 LINE",
"628 -44 OFFCURVE",
"559 -60 OFFCURVE",
"505 -60 CURVE SMOOTH",
"467 -60 OFFCURVE",
"427 -46 OFFCURVE",
"427 -13 CURVE SMOOTH",
"427 -11 LINE",
"425 -11 LINE",
"425 -7 LINE",
"427 -7 LINE SMOOTH",
"591 19 OFFCURVE",
"700 157 OFFCURVE",
"700 352 CURVE SMOOTH",
"700 568 OFFCURVE",
"565 712 OFFCURVE",
"370 712 CURVE SMOOTH",
"174 712 OFFCURVE",
"40 568 OFFCURVE",
"40 352 CURVE SMOOTH",
"40 158 OFFCURVE",
"150 20 OFFCURVE",
"312 -7 CURVE SMOOTH",
"314 -7 LINE",
"314 -11 LINE",
"312 -11 LINE",
"312 -13 LINE SMOOTH",
"312 -123 OFFCURVE",
"390 -174 OFFCURVE",
"478 -174 CURVE SMOOTH"
);
},
{
closed = 1;
nodes = (
"251 108 OFFCURVE",
"190 197 OFFCURVE",
"190 352 CURVE SMOOTH",
"190 505 OFFCURVE",
"249 592 OFFCURVE",
"370 592 CURVE SMOOTH",
"489 592 OFFCURVE",
"550 506 OFFCURVE",
"550 352 CURVE SMOOTH",
"550 197 OFFCURVE",
"490 108 OFFCURVE",
"370 108 CURVE SMOOTH"
);
}
);
};
layerId = "C89E7CB9-06CC-4D85-8773-832B05BA201B";
paths = (
{
closed = 1;
nodes = (
"639 24 LINE",
"671 -19 LINE",
"630 -43 OFFCURVE",
"560 -60 OFFCURVE",
"510 -60 CURVE SMOOTH",
"463 -60 OFFCURVE",
"427 -46 OFFCURVE",
"427 -13 CURVE SMOOTH",
"427 -11 LINE",
"425 -11 LINE",
"425 -7 LINE",
"427 -7 LINE",
"591 19 OFFCURVE",
"700 157 OFFCURVE",
"700 352 CURVE SMOOTH",
"700 568 OFFCURVE",
"565 712 OFFCURVE",
"370 712 CURVE SMOOTH",
"174 712 OFFCURVE",
"40 568 OFFCURVE",
"40 352 CURVE SMOOTH",
"40 158 OFFCURVE",
"150 20 OFFCURVE",
"312 -7 CURVE",
"314 -7 LINE",
"314 -11 LINE",
"312 -11 LINE",
"312 -13 LINE SMOOTH",
"312 -124 OFFCURVE",
"389 -174 OFFCURVE",
"482 -174 CURVE SMOOTH",
"538 -174 OFFCURVE",
"613 -157 OFFCURVE",
"675 -121 CURVE",
"639 -197 LINE"
);
},
{
closed = 1;
nodes = (
"251 108 OFFCURVE",
"190 197 OFFCURVE",
"190 352 CURVE SMOOTH",
"190 505 OFFCURVE",
"249 592 OFFCURVE",
"370 592 CURVE SMOOTH",
"489 592 OFFCURVE",
"550 506 OFFCURVE",
"550 352 CURVE SMOOTH",
"550 197 OFFCURVE",
"490 108 OFFCURVE",
"370 108 CURVE SMOOTH"
);
}
);
width = 740;
}
);
leftMetricsKey = "=O";
rightMetricsKey = "=O";
unicode = 0051;
},
{
color = 7;
glyphname = Q.ss05;
lastChange = "2020-05-11 14:41:42 +0000";
layers = (
{
background = {
components = (
{
name = O;
transform = "{1, 0, 0, 1, 20, 0}";
}
);
};
layerId = "E773EBAE-783E-4D91-931E-4E5C9CF0967C";
paths = (
{
closed = 1;
nodes = (
"630 -79 LINE",
"521 40 LINE",
"517 40 LINE",
"517 44 LINE",
"521 44 LINE",
"607 108 OFFCURVE",
"650 222 OFFCURVE",
"650 352 CURVE SMOOTH",
"650 568 OFFCURVE",
"535 708 OFFCURVE",
"350 708 CURVE SMOOTH",
"164 708 OFFCURVE",
"50 568 OFFCURVE",
"50 352 CURVE SMOOTH",
"50 135 OFFCURVE",
"165 -8 OFFCURVE",
"350 -8 CURVE SMOOTH",
"391 -8 OFFCURVE",
"429 -1 OFFCURVE",
"464 13 CURVE",
"464 15 LINE",
"468 15 LINE",
"468 11 LINE",
"549 -79 LINE"
);
},
{
closed = 1;
nodes = (
"227 47 OFFCURVE",
"120 148 OFFCURVE",
"120 352 CURVE SMOOTH",
"120 553 OFFCURVE",
"223 653 OFFCURVE",
"350 653 CURVE SMOOTH",
"473 653 OFFCURVE",
"580 554 OFFCURVE",
"580 352 CURVE SMOOTH",
"580 229 OFFCURVE",
"541 139 OFFCURVE",
"479 89 CURVE",
"479 87 LINE",
"475 87 LINE",
"475 91 LINE",
"394 178 LINE",
"320 178 LINE",
"424 62 LINE",
"428 62 LINE",
"428 58 LINE",
"424 58 LINE",
"406 52 OFFCURVE",
"376 47 OFFCURVE",
"350 47 CURVE SMOOTH"
);
}
);
width = 700;
},
{
background = {
components = (
{
name = O;
transform = "{1, 0, 0, 1, 20, 0}";
}
);
};
layerId = "C89E7CB9-06CC-4D85-8773-832B05BA201B";
paths = (
{
closed = 1;
nodes = (
"710 -77 LINE",
"584 62 LINE",
"580 62 LINE",
"580 66 LINE",
"584 66 LINE",
"657 127 OFFCURVE",
"700 229 OFFCURVE",
"700 352 CURVE SMOOTH",
"700 578 OFFCURVE",
"555 712 OFFCURVE",
"370 712 CURVE SMOOTH",
"184 712 OFFCURVE",
"40 578 OFFCURVE",
"40 352 CURVE SMOOTH",
"40 135 OFFCURVE",
"175 -12 OFFCURVE",
"366 -12 CURVE SMOOTH",
"408 -12 OFFCURVE",
"443 -5 OFFCURVE",
"477 6 CURVE",
"477 8 LINE",
"481 8 LINE",
"481 4 LINE",
"544 -77 LINE"
);
},
{
closed = 1;
nodes = (
"261 108 OFFCURVE",
"190 187 OFFCURVE",
"190 352 CURVE SMOOTH",
"190 515 OFFCURVE",
"259 592 OFFCURVE",
"370 592 CURVE SMOOTH",
"479 592 OFFCURVE",
"550 516 OFFCURVE",
"550 352 CURVE SMOOTH",
"550 268 OFFCURVE",
"536 203 OFFCURVE",
"497 161 CURVE",
"497 157 LINE",
"493 157 LINE",
"493 161 LINE",
"433 231 LINE",
"298 231 LINE",
"394 112 LINE",
"398 112 LINE",
"398 108 LINE",
"394 108 LINE",
"388 108 OFFCURVE",
"379 108 OFFCURVE",
"370 108 CURVE SMOOTH"
);
}
);
width = 750;
}
);
leftMetricsKey = "=O";
rightMetricsKey = "=O";
},
{
color = 6;
glyphname = R;
lastChange = "2020-05-21 16:29:42 +0000";
layers = (
{
background = {
paths = (
{
closed = 1;
nodes = (
"155 0 LINE",
"155 272 LINE",
"155 276 LINE",
"159 276 LINE",
"364 276 LINE",
"368 276 LINE",
"368 272 LINE",
"520 0 LINE",
"595 0 LINE",
"430 283 LINE",
"427 283 LINE",
"427 287 LINE",
"431 287 LINE",
"477 308 OFFCURVE",
"565 376 OFFCURVE",
"565 486 CURVE SMOOTH",
"565 590 OFFCURVE",
"497 700 OFFCURVE",
"357 700 CURVE SMOOTH",
"90 700 LINE",
"90 0 LINE"
);
}
);
};
layerId = "E773EBAE-783E-4D91-931E-4E5C9CF0967C";
paths = (
{
closed = 1;
nodes = (
"155 0 LINE",
"155 272 LINE",
"155 276 LINE",
"159 276 LINE",
"364 276 LINE",
"368 276 LINE",
"368 272 LINE",
"520 0 LINE",
"595 0 LINE",
"430 283 LINE",
"427 283 LINE",
"427 287 LINE",
"431 287 LINE",
"460 300 OFFCURVE",
"565 368 OFFCURVE",
"565 493 CURVE SMOOTH",
"565 595 OFFCURVE",
"497 700 OFFCURVE",
"357 700 CURVE SMOOTH",
"90 700 LINE",
"90 0 LINE"
);
},
{
closed = 1;
nodes = (
"155 333 LINE",
"155 643 LINE",
"155 647 LINE",
"159 647 LINE",
"159 645 LINE",
"336 645 LINE SMOOTH",
"444 645 OFFCURVE",
"495 568 OFFCURVE",
"495 490 CURVE SMOOTH",
"495 408 OFFCURVE",
"440 331 OFFCURVE",
"336 331 CURVE SMOOTH",
"159 331 LINE",
"159 329 LINE",
"155 329 LINE"
);
}
);
width = 625;
},
{
background = {
paths = (
{
closed = 1;
nodes = (
"225 0 LINE",
"225 222 LINE",
"225 226 LINE",
"229 226 LINE",
"367 226 LINE",
"371 226 LINE",
"371 222 LINE",
"489 0 LINE",
"650 0 LINE",
"508 250 LINE",
"505 250 LINE",
"505 254 LINE",
"509 254 LINE",
"588 293 OFFCURVE",
"630 372 OFFCURVE",
"630 458 CURVE SMOOTH",
"630 582 OFFCURVE",
"543 700 OFFCURVE",
"388 700 CURVE SMOOTH",
"80 700 LINE",
"80 0 LINE"
);
}
);
};
layerId = "C89E7CB9-06CC-4D85-8773-832B05BA201B";
paths = (
{
closed = 1;
nodes = (
"225 0 LINE",
"225 222 LINE",
"225 226 LINE",
"229 226 LINE",
"367 226 LINE",
"371 226 LINE",
"371 222 LINE",
"489 0 LINE",
"650 0 LINE",
"508 250 LINE",
"505 250 LINE",
"505 254 LINE",
"509 254 LINE",
"536 269 OFFCURVE",
"630 334 OFFCURVE",
"630 460 CURVE SMOOTH",
"630 582 OFFCURVE",
"543 700 OFFCURVE",
"388 700 CURVE SMOOTH",
"80 700 LINE",
"80 0 LINE"
);
},
{
closed = 1;
nodes = (
"225 343 LINE",
"225 578 LINE",
"225 582 LINE",
"229 582 LINE",
"229 580 LINE",
"351 580 LINE SMOOTH",
"437 580 OFFCURVE",
"480 526 OFFCURVE",
"480 460 CURVE SMOOTH",
"480 393 OFFCURVE",
"437 341 OFFCURVE",
"351 341 CURVE SMOOTH",
"229 341 LINE",
"229 339 LINE",
"225 339 LINE"
);
}
);
width = 670;
}
);
leftMetricsKey = "=H";
unicode = 0052;
},
{
color = 6;
glyphname = S;
lastChange = "2020-04-24 18:54:52 +0000";
layers = (
{
background = {
paths = (
{
closed = 1;
nodes = (
"444 -8 OFFCURVE",
"570 58 OFFCURVE",
"570 186 CURVE SMOOTH",
"570 296 OFFCURVE",
"490 353 OFFCURVE",
"403 375 CURVE SMOOTH",
"282 406 LINE SMOOTH",
"206 426 OFFCURVE",
"152 458 OFFCURVE",
"152 527 CURVE SMOOTH",
"152 600 OFFCURVE",
"229 648 OFFCURVE",
"323 648 CURVE SMOOTH",
"428 648 OFFCURVE",
"493 594 OFFCURVE",
"528 520 CURVE",
"473 546 LINE",
"579 611 LINE",
"576 558 LINE",
"534 641 OFFCURVE",
"448 708 OFFCURVE",
"323 708 CURVE SMOOTH",
"197 708 OFFCURVE",
"87 637 OFFCURVE",
"87 526 CURVE SMOOTH",
"87 419 OFFCURVE",
"165 370 OFFCURVE",
"276 342 CURVE SMOOTH",
"387 314 LINE SMOOTH",
"467 294 OFFCURVE",
"500 250 OFFCURVE",
"500 190 CURVE SMOOTH",
"500 93 OFFCURVE",
"412 52 OFFCURVE",
"316 52 CURVE SMOOTH",
"211 52 OFFCURVE",
"121 121 OFFCURVE",
"88 193 CURVE",
"133 185 LINE",
"19 116 LINE",
"35 163 LINE",
"78 71 OFFCURVE",
"177 -8 OFFCURVE",
"316 -8 CURVE SMOOTH"
);
}
);
};
guideLines = (
{
angle = 270;
position = "{307, 677}";
}
);
layerId = "E773EBAE-783E-4D91-931E-4E5C9CF0967C";
paths = (
{
closed = 1;
nodes = (
"444 -8 OFFCURVE",
"570 54 OFFCURVE",
"570 191 CURVE SMOOTH",
"570 299 OFFCURVE",
"492 351 OFFCURVE",
"377 381 CURVE SMOOTH",
"282 406 LINE SMOOTH",
"205 426 OFFCURVE",
"152 458 OFFCURVE",
"152 524 CURVE SMOOTH",
"152 603 OFFCURVE",
"227 648 OFFCURVE",
"325 648 CURVE SMOOTH",
"430 648 OFFCURVE",
"492 594 OFFCURVE",
"528 520 CURVE",
"473 546 LINE",
"579 611 LINE",
"576 558 LINE",
"534 641 OFFCURVE",
"448 708 OFFCURVE",
"325 708 CURVE SMOOTH",
"197 708 OFFCURVE",
"87 638 OFFCURVE",
"87 522 CURVE SMOOTH",
"87 424 OFFCURVE",
"165 370 OFFCURVE",
"276 342 CURVE SMOOTH",
"374 317 LINE SMOOTH",
"454 297 OFFCURVE",
"500 259 OFFCURVE",
"500 191 CURVE SMOOTH",
"500 91 OFFCURVE",
"400 52 OFFCURVE",
"317 52 CURVE SMOOTH",
"208 52 OFFCURVE",
"121 121 OFFCURVE",
"88 193 CURVE",
"133 185 LINE",
"19 116 LINE",
"35 163 LINE",
"78 71 OFFCURVE",
"177 -8 OFFCURVE",
"316 -8 CURVE SMOOTH"
);
}
);
width = 620;
},
{
background = {
paths = (
{
closed = 1;
nodes = (
"40 140 LINE",
"88 70 OFFCURVE",
"160 -12 OFFCURVE",
"320 -12 CURVE SMOOTH",
"500 -12 OFFCURVE",
"605 73 OFFCURVE",
"605 207 CURVE SMOOTH",
"605 316 OFFCURVE",
"521 378 OFFCURVE",
"365 413 CURVE SMOOTH",
"302 427 LINE SMOOTH",
"224 444 OFFCURVE",
"191 462 OFFCURVE",
"191 515 CURVE SMOOTH",
"191 566 OFFCURVE",
"260 592 OFFCURVE",
"319 592 CURVE SMOOTH",
"388 592 OFFCURVE",
"454 564 OFFCURVE",
"480 512 CURVE",
"582 574 LINE",
"559 613 OFFCURVE",
"486 712 OFFCURVE",
"319 712 CURVE SMOOTH",
"178 712 OFFCURVE",
"56 621 OFFCURVE",
"56 508 CURVE SMOOTH",
"56 398 OFFCURVE",
"132 335 OFFCURVE",
"273 303 CURVE SMOOTH",
"344 287 LINE SMOOTH",
"431 267 OFFCURVE",
"465 255 OFFCURVE",
"465 200 CURVE SMOOTH",
"465 135 OFFCURVE",
"384 108 OFFCURVE",
"320 108 CURVE SMOOTH",
"247 108 OFFCURVE",
"188 142 OFFCURVE",
"145 207 CURVE"
);
}
);
};
guideLines = (
{
angle = 270;
position = "{309, 652}";
}
);
layerId = "C89E7CB9-06CC-4D85-8773-832B05BA201B";
paths = (
{
closed = 1;
nodes = (
"493 -12 OFFCURVE",
"606 75 OFFCURVE",
"606 201 CURVE SMOOTH",
"606 303 OFFCURVE",
"530 372 OFFCURVE",
"413 401 CURVE SMOOTH",
"290 432 LINE SMOOTH",
"255 441 OFFCURVE",
"191 465 OFFCURVE",
"191 515 CURVE SMOOTH",
"191 558 OFFCURVE",
"238 592 OFFCURVE",
"319 592 CURVE SMOOTH",
"413 592 OFFCURVE",
"469 547 OFFCURVE",
"496 482 CURVE",
"430 489 LINE",
"622 609 LINE",
"603 535 LINE",
"578 597 OFFCURVE",
"497 712 OFFCURVE",
"319 712 CURVE SMOOTH",
"151 712 OFFCURVE",
"56 612 OFFCURVE",
"56 508 CURVE SMOOTH",
"56 412 OFFCURVE",
"130 343 OFFCURVE",
"248 311 CURVE SMOOTH",
"389 273 LINE SMOOTH",
"415 266 OFFCURVE",
"466 246 OFFCURVE",
"466 197 CURVE SMOOTH",
"466 144 OFFCURVE",
"407 108 OFFCURVE",
"321 108 CURVE SMOOTH",
"234 108 OFFCURVE",
"171 150 OFFCURVE",
"123 247 CURVE",
"194 238 LINE",
"-9 109 LINE",
"24 164 LINE",
"99 45 OFFCURVE",
"200 -12 OFFCURVE",
"332 -12 CURVE SMOOTH"
);
}
);
width = 646;
}
);
rightMetricsKey = "=|";
unicode = 0053;
},
{
color = 6;
glyphname = T;
lastChange = "2020-04-24 18:54:52 +0000";
layers = (
{
background = {
paths = (
{
closed = 1;
nodes = (
"46 328 LINE",
"83 328 LINE",
"83 330 LINE",
"87 330 LINE",
"87 328 LINE",
"473 328 LINE",
"473 330 LINE",
"477 330 LINE",
"477 328 LINE",
"510 328 LINE",
"510 383 LINE",
"477 383 LINE",
"477 381 LINE",
"473 381 LINE",
"473 383 LINE",
"87 383 LINE",
"87 381 LINE",
"83 381 LINE",
"83 383 LINE",
"46 383 LINE"
);
},
{
closed = 1;
nodes = (
"20 0 LINE",
"85 0 LINE",
"85 326 LINE",
"83 326 LINE",
"83 330 LINE",
"85 330 LINE",
"85 381 LINE",
"83 381 LINE",
"83 385 LINE",
"85 385 LINE",
"85 700 LINE",
"20 700 LINE"
);
},
{
closed = 1;
nodes = (
"475 700 LINE",
"475 385 LINE",
"477 385 LINE",
"477 381 LINE",
"475 381 LINE",
"475 330 LINE",
"477 330 LINE",
"477 326 LINE",
"475 326 LINE",
"475 0 LINE",
"540 0 LINE",
"540 700 LINE"
);
}
);
};
layerId = "E773EBAE-783E-4D91-931E-4E5C9CF0967C";
paths = (
{
closed = 1;
nodes = (
"313 0 LINE",
"313 638 LINE",
"311 638 LINE",
"311 642 LINE",
"315 642 LINE",
"315 640 LINE",
"541 640 LINE",
"541 700 LINE",
"20 700 LINE",
"20 640 LINE",
"246 640 LINE",
"246 642 LINE",
"250 642 LINE",
"250 638 LINE",
"248 638 LINE",
"248 0 LINE"
);
}
);
width = 561;
},
{
background = {
paths = (
{
closed = 1;
nodes = (
"111 296 LINE",
"148 296 LINE",
"148 298 LINE",
"152 298 LINE",
"152 296 LINE",
"448 296 LINE",
"448 298 LINE",
"452 298 LINE",
"452 296 LINE",
"495 296 LINE",
"495 411 LINE",
"452 411 LINE",
"452 409 LINE",
"448 409 LINE",
"448 411 LINE",
"152 411 LINE",
"152 409 LINE",
"148 409 LINE",
"148 411 LINE",
"111 411 LINE"
);
},
{
closed = 1;
nodes = (
"5 0 LINE",
"150 0 LINE",
"150 294 LINE",
"148 294 LINE",
"148 298 LINE",
"150 298 LINE",
"150 409 LINE",
"148 409 LINE",
"148 413 LINE",
"150 413 LINE",
"150 700 LINE",
"5 700 LINE"
);
},
{
closed = 1;
nodes = (
"450 700 LINE",
"450 413 LINE",
"452 413 LINE",
"452 409 LINE",
"450 409 LINE",
"450 298 LINE",
"452 298 LINE",
"452 294 LINE",
"450 294 LINE",
"450 0 LINE",
"595 0 LINE",
"595 700 LINE"
);
}
);
};
layerId = "C89E7CB9-06CC-4D85-8773-832B05BA201B";
paths = (
{
closed = 1;
nodes = (
"370 0 LINE",
"370 583 LINE",
"368 583 LINE",
"368 587 LINE",
"372 587 LINE",
"372 585 LINE",
"585 585 LINE",
"585 700 LINE",
"10 700 LINE",
"10 585 LINE",
"223 585 LINE",
"223 587 LINE",
"227 587 LINE",
"227 583 LINE",
"225 583 LINE",
"225 0 LINE"
);
}
);
width = 595;
}
);
rightMetricsKey = "=|";
unicode = 0054;
},
{
color = 6;
glyphname = U;
lastChange = "2020-04-24 18:54:52 +0000";
layers = (
{
background = {
paths = (
{
closed = 1;
nodes = (
"80 0 LINE",
"145 0 LINE",
"145 700 LINE",
"80 700 LINE"
);
},
{
closed = 1;
nodes = (
"535 700 LINE",
"535 0 LINE",
"600 0 LINE",
"600 700 LINE"
);
}
);
};
layerId = "E773EBAE-783E-4D91-931E-4E5C9CF0967C";
paths = (
{
closed = 1;
nodes = (
"510 -5 OFFCURVE",
"600 100 OFFCURVE",
"600 246 CURVE SMOOTH",
"600 700 LINE",
"535 700 LINE",
"535 246 LINE SMOOTH",
"535 131 OFFCURVE",
"467 50 OFFCURVE",
"345 50 CURVE SMOOTH",
"223 50 OFFCURVE",
"155 131 OFFCURVE",
"155 246 CURVE SMOOTH",
"155 700 LINE",
"90 700 LINE",
"90 246 LINE SMOOTH",
"90 100 OFFCURVE",
"180 -5 OFFCURVE",
"345 -5 CURVE SMOOTH"
);
}
);
width = 690;
},
{
background = {
paths = (
{
closed = 1;
nodes = (
"70 0 LINE",
"215 0 LINE",
"215 700 LINE",
"70 700 LINE"
);
},
{
closed = 1;
nodes = (
"515 700 LINE",
"515 0 LINE",
"660 0 LINE",
"660 700 LINE"
);
}
);
};
layerId = "C89E7CB9-06CC-4D85-8773-832B05BA201B";
paths = (
{
closed = 1;
nodes = (
"530 -5 OFFCURVE",
"650 100 OFFCURVE",
"650 246 CURVE SMOOTH",
"650 700 LINE",
"505 700 LINE",
"505 246 LINE SMOOTH",
"505 165 OFFCURVE",
"463 120 OFFCURVE",
"365 120 CURVE SMOOTH",
"267 120 OFFCURVE",
"225 165 OFFCURVE",
"225 246 CURVE SMOOTH",
"225 700 LINE",
"80 700 LINE",
"80 246 LINE SMOOTH",
"80 100 OFFCURVE",
"200 -5 OFFCURVE",
"365 -5 CURVE SMOOTH"
);
}
);
width = 730;
}
);
leftMetricsKey = "=H";
rightMetricsKey = "=H";
unicode = 0055;
},
{
color = 6;
glyphname = V;
lastChange = "2020-05-15 09:11:07 +0000";
layers = (
{
background = {
paths = (
{
closed = 1;
nodes = (
"265 0 LINE",
"454 525 LINE",
"385 525 LINE",
"226 68 LINE",
"226 64 LINE",
"223 64 LINE",
"223 0 LINE"
);
},
{
closed = 1;
nodes = (
"225 0 LINE",
"225 64 LINE",
"222 64 LINE",
"222 68 LINE",
"63 525 LINE",
"-6 525 LINE",
"183 0 LINE"
);
},
{
closed = 1;
nodes = (
"90 328 LINE",
"127 328 LINE",
"127 330 LINE",
"131 330 LINE",
"131 328 LINE",
"517 328 LINE",
"517 330 LINE",
"521 330 LINE",
"521 328 LINE",
"554 328 LINE",
"554 383 LINE",
"521 383 LINE",
"521 381 LINE",
"517 381 LINE",
"517 383 LINE",
"131 383 LINE",
"131 381 LINE",
"127 381 LINE",
"127 383 LINE",
"90 383 LINE"
);
},
{
closed = 1;
nodes = (
"64 0 LINE",
"129 0 LINE",
"129 326 LINE",
"127 326 LINE",
"127 330 LINE",
"129 330 LINE",
"129 381 LINE",
"127 381 LINE",
"127 385 LINE",
"129 385 LINE",
"129 700 LINE",
"64 700 LINE"
);
},
{
closed = 1;
nodes = (
"519 700 LINE",
"519 385 LINE",
"521 385 LINE",
"521 381 LINE",
"519 381 LINE",
"519 330 LINE",
"521 330 LINE",
"521 326 LINE",
"519 326 LINE",
"519 0 LINE",
"584 0 LINE",
"584 700 LINE"
);
}
);
};
layerId = "E773EBAE-783E-4D91-931E-4E5C9CF0967C";
paths = (
{
closed = 1;
nodes = (
"358 0 LINE",
"610 700 LINE",
"541 700 LINE",
"324 85 LINE",
"324 81 LINE",
"320 81 LINE",
"320 85 LINE",
"105 700 LINE",
"30 700 LINE",
"286 0 LINE"
);
}
);
width = 640;
},
{
background = {
guideLines = (
{
angle = 90;
position = "{343, 712}";
}
);
paths = (
{
closed = 1;
nodes = (
"154 296 LINE",
"191 296 LINE",
"191 298 LINE",
"195 298 LINE",
"195 296 LINE",
"491 296 LINE",
"491 298 LINE",
"495 298 LINE",
"495 296 LINE",
"538 296 LINE",
"538 411 LINE",
"495 411 LINE",
"495 409 LINE",
"491 409 LINE",
"491 411 LINE",
"195 411 LINE",
"195 409 LINE",
"191 409 LINE",
"191 411 LINE",
"154 411 LINE"
);
},
{
closed = 1;
nodes = (
"48 0 LINE",
"193 0 LINE",
"193 294 LINE",
"191 294 LINE",
"191 298 LINE",
"193 298 LINE",
"193 409 LINE",
"191 409 LINE",
"191 413 LINE",
"193 413 LINE",
"193 700 LINE",
"48 700 LINE"
);
},
{
closed = 1;
nodes = (
"493 700 LINE",
"493 413 LINE",
"495 413 LINE",
"495 409 LINE",
"493 409 LINE",
"493 298 LINE",
"495 298 LINE",
"495 294 LINE",
"493 294 LINE",
"493 0 LINE",
"638 0 LINE",
"638 700 LINE"
);
}
);
};
guideLines = (
{
angle = 90;
position = "{343, 712}";
}
);
layerId = "C89E7CB9-06CC-4D85-8773-832B05BA201B";
paths = (
{
closed = 1;
nodes = (
"429 0 LINE",
"660 700 LINE",
"512 700 LINE",
"344 156 LINE",
"344 152 LINE",
"340 152 LINE",
"340 156 LINE",
"173 700 LINE",
"20 700 LINE",
"249 0 LINE"
);
}
);
width = 680;
}
);
rightMetricsKey = "=|";
unicode = 0056;
},
{
color = 6;
glyphname = W;
lastChange = "2020-05-21 12:15:58 +0000";
layers = (
{
layerId = "E773EBAE-783E-4D91-931E-4E5C9CF0967C";
paths = (
{
closed = 1;
nodes = (
"290 0 LINE",
"472 590 LINE",
"472 594 LINE",
"476 594 LINE",
"476 590 LINE",
"649 0 LINE",
"729 0 LINE",
"920 700 LINE",
"847 700 LINE",
"690 75 LINE",
"690 71 LINE",
"686 71 LINE",
"686 75 LINE",
"509 700 LINE",
"441 700 LINE",
"254 75 LINE",
"254 71 LINE",
"250 71 LINE",
"250 75 LINE",
"103 700 LINE",
"30 700 LINE",
"211 0 LINE"
);
}
);
width = 950;
},
{
background = {
paths = (
{
closed = 1;
nodes = (
"290 0 LINE",
"290 81 LINE",
"287 81 LINE",
"287 85 LINE",
"130 700 LINE",
"57 700 LINE",
"248 0 LINE"
);
},
{
closed = 1;
nodes = (
"501 584 LINE",
"501 588 LINE",
"504 588 LINE",
"536 700 LINE",
"468 700 LINE",
"291 85 LINE",
"291 81 LINE",
"288 81 LINE",
"288 0 LINE",
"327 0 LINE"
);
},
{
closed = 1;
nodes = (
"947 700 LINE",
"874 700 LINE",
"717 85 LINE",
"717 81 LINE",
"714 81 LINE",
"714 0 LINE",
"756 0 LINE"
);
},
{
closed = 1;
nodes = (
"716 0 LINE",
"716 81 LINE",
"713 81 LINE",
"713 85 LINE",
"536 700 LINE",
"468 700 LINE",
"502 588 LINE",
"505 588 LINE",
"505 584 LINE",
"677 0 LINE"
);
}
);
};
layerId = "C89E7CB9-06CC-4D85-8773-832B05BA201B";
paths = (
{
closed = 1;
nodes = (
"369 0 LINE",
"498 480 LINE",
"498 484 LINE",
"502 484 LINE",
"502 480 LINE",
"631 0 LINE",
"797 0 LINE",
"980 700 LINE",
"830 700 LINE",
"712 156 LINE",
"712 152 LINE",
"708 152 LINE",
"708 156 LINE",
"570 700 LINE",
"430 700 LINE",
"292 156 LINE",
"292 152 LINE",
"288 152 LINE",
"288 156 LINE",
"170 700 LINE",
"20 700 LINE",
"203 0 LINE"
);
}
);
width = 1000;
}
);
rightMetricsKey = "=|";
unicode = 0057;
},
{
color = 6;
glyphname = X;
lastChange = "2020-05-13 20:23:42 +0000";
layers = (
{
background = {
paths = (
{
closed = 1;
nodes = (
"71 328 LINE",
"108 328 LINE",
"108 330 LINE",
"112 330 LINE",
"112 328 LINE",
"498 328 LINE",
"498 330 LINE",
"502 330 LINE",
"502 328 LINE",
"535 328 LINE",
"535 383 LINE",
"502 383 LINE",
"502 381 LINE",
"498 381 LINE",
"498 383 LINE",
"112 383 LINE",
"112 381 LINE",
"108 381 LINE",
"108 383 LINE",
"71 383 LINE"
);
},
{
closed = 1;
nodes = (
"45 0 LINE",
"110 0 LINE",
"110 326 LINE",
"108 326 LINE",
"108 330 LINE",
"110 330 LINE",
"110 381 LINE",
"108 381 LINE",
"108 385 LINE",
"110 385 LINE",
"110 700 LINE",
"45 700 LINE"
);
},
{
closed = 1;
nodes = (
"500 700 LINE",
"500 385 LINE",
"502 385 LINE",
"502 381 LINE",
"500 381 LINE",
"500 330 LINE",
"502 330 LINE",
"502 326 LINE",
"500 326 LINE",
"500 0 LINE",
"565 0 LINE",
"565 700 LINE"
);
},
{
closed = 1;
nodes = (
"260 359 LINE",
"264 359 LINE",
"266 355 LINE",
"360 355 LINE",
"360 359 LINE",
"364 359 LINE",
"583 700 LINE",
"487 700 LINE",
"317 433 LINE",
"317 429 LINE",
"313 429 LINE",
"313 433 LINE",
"147 700 LINE",
"39 700 LINE"
);
},
{
closed = 1;
nodes = (
"130 0 LINE",
"308 281 LINE",
"308 285 LINE",
"312 285 LINE",
"312 281 LINE",
"492 0 LINE",
"600 0 LINE",
"364 355 LINE",
"360 355 LINE",
"360 359 LINE",
"264 359 LINE",
"264 355 LINE",
"260 355 LINE",
"35 0 LINE"
);
}
);
};
guideLines = (
{
position = "{584, 350}";
}
);
layerId = "E773EBAE-783E-4D91-931E-4E5C9CF0967C";
paths = (
{
closed = 1;
nodes = (
"103 0 LINE",
"314 306 LINE",
"314 310 LINE",
"318 310 LINE",
"318 306 LINE",
"532 0 LINE",
"613 0 LINE",
"359 356 LINE",
"357 356 LINE",
"357 360 LINE",
"361 360 LINE",
"591 700 LINE",
"518 700 LINE",
"321 411 LINE",
"321 407 LINE",
"317 407 LINE",
"317 411 LINE",
"113 700 LINE",
"33 700 LINE",
"275 359 LINE",
"277 359 LINE",
"277 355 LINE",
"273 355 LINE",
"30 0 LINE"
);
}
);
width = 643;
},
{
background = {
components = (
{
name = H;
transform = "{1, 0, 0, 1, -18, 0}";
}
);
paths = (
{
closed = 1;
nodes = (
"288 359 LINE",
"292 359 LINE",
"294 355 LINE",
"411 355 LINE",
"411 359 LINE",
"415 359 LINE",
"636 701 LINE",
"523 701 LINE",
"356 444 LINE",
"356 440 LINE",
"352 440 LINE",
"352 444 LINE",
"188 701 LINE",
"62 701 LINE"
);
},
{
closed = 1;
nodes = (
"170 0 LINE",
"347 272 LINE",
"347 276 LINE",
"351 276 LINE",
"351 272 LINE",
"529 0 LINE",
"660 0 LINE",
"415 355 LINE",
"411 355 LINE",
"411 359 LINE",
"292 359 LINE",
"292 355 LINE",
"288 355 LINE",
"56 0 LINE"
);
}
);
};
guideLines = (
{
position = "{657, 350}";
}
);
layerId = "C89E7CB9-06CC-4D85-8773-832B05BA201B";
paths = (
{
closed = 1;
nodes = (
"184 0 LINE",
"349 248 LINE",
"349 252 LINE",
"353 252 LINE",
"353 248 LINE",
"519 0 LINE",
"698 0 LINE",
"450 355 LINE",
"448 355 LINE",
"448 359 LINE",
"452 359 LINE",
"688 700 LINE",
"516 700 LINE",
"355 462 LINE",
"355 458 LINE",
"351 458 LINE",
"351 462 LINE",
"199 700 LINE",
"20 700 LINE",
"257 359 LINE",
"259 359 LINE",
"259 355 LINE",
"255 355 LINE",
"20 0 LINE"
);
}
);
width = 718;
}
);
rightMetricsKey = "=|";
unicode = 0058;
},
{
color = 6;
glyphname = Y;
lastChange = "2020-04-24 18:54:52 +0000";
layers = (
{
background = {
paths = (
{
closed = 1;
nodes = (
"64 328 LINE",
"101 328 LINE",
"101 330 LINE",
"105 330 LINE",
"105 328 LINE",
"491 328 LINE",
"491 330 LINE",
"495 330 LINE",
"495 328 LINE",
"528 328 LINE",
"528 383 LINE",
"495 383 LINE",
"495 381 LINE",
"491 381 LINE",
"491 383 LINE",
"105 383 LINE",
"105 381 LINE",
"101 381 LINE",
"101 383 LINE",
"64 383 LINE"
);
},
{
closed = 1;
nodes = (
"38 0 LINE",
"103 0 LINE",
"103 326 LINE",
"101 326 LINE",
"101 330 LINE",
"103 330 LINE",
"103 381 LINE",
"101 381 LINE",
"101 385 LINE",
"103 385 LINE",
"103 700 LINE",
"38 700 LINE"
);
},
{
closed = 1;
nodes = (
"493 700 LINE",
"493 385 LINE",
"495 385 LINE",
"495 381 LINE",
"493 381 LINE",
"493 330 LINE",
"495 330 LINE",
"495 326 LINE",
"493 326 LINE",
"493 0 LINE",
"558 0 LINE",
"558 700 LINE"
);
},
{
closed = 1;
nodes = (
"253 359 LINE",
"257 359 LINE",
"259 355 LINE",
"353 355 LINE",
"353 359 LINE",
"357 359 LINE",
"576 700 LINE",
"480 700 LINE",
"310 433 LINE",
"310 429 LINE",
"306 429 LINE",
"306 433 LINE",
"140 700 LINE",
"32 700 LINE"
);
},
{
closed = 1;
nodes = (
"123 0 LINE",
"301 281 LINE",
"301 285 LINE",
"305 285 LINE",
"305 281 LINE",
"485 0 LINE",
"593 0 LINE",
"357 355 LINE",
"353 355 LINE",
"353 359 LINE",
"257 359 LINE",
"257 355 LINE",
"253 355 LINE",
"28 0 LINE"
);
}
);
};
guideLines = (
{
position = "{577, 350}";
},
{
angle = 90;
position = "{309, 374}";
}
);
layerId = "E773EBAE-783E-4D91-931E-4E5C9CF0967C";
paths = (
{
closed = 1;
nodes = (
"341 0 LINE",
"341 302 LINE",
"590 700 LINE",
"519 700 LINE",
"311 367 LINE",
"311 363 LINE",
"307 363 LINE",
"307 367 LINE",
"97 700 LINE",
"20 700 LINE",
"276 303 LINE",
"276 0 LINE"
);
}
);
width = 610;
},
{
background = {
paths = (
{
closed = 1;
nodes = (
"297 280 LINE",
"398 280 LINE",
"650 701 LINE",
"534 701 LINE",
"351 390 LINE",
"351 386 LINE",
"347 386 LINE",
"347 390 LINE",
"168 701 LINE",
"40 701 LINE"
);
},
{
closed = 1;
nodes = (
"294 0 LINE",
"399 0 LINE",
"399 290 LINE",
"294 290 LINE"
);
},
{
closed = 1;
nodes = (
"171 294 LINE",
"208 294 LINE",
"208 296 LINE",
"212 296 LINE",
"212 294 LINE",
"488 294 LINE",
"488 296 LINE",
"492 296 LINE",
"492 294 LINE",
"535 294 LINE",
"535 414 LINE",
"492 414 LINE",
"492 412 LINE",
"488 412 LINE",
"488 414 LINE",
"212 414 LINE",
"212 412 LINE",
"208 412 LINE",
"208 414 LINE",
"171 414 LINE"
);
},
{
closed = 1;
nodes = (
"65 0 LINE",
"210 0 LINE",
"210 292 LINE",
"208 292 LINE",
"208 296 LINE",
"210 296 LINE",
"210 412 LINE",
"208 412 LINE",
"208 416 LINE",
"210 416 LINE",
"210 700 LINE",
"65 700 LINE"
);
},
{
closed = 1;
nodes = (
"490 700 LINE",
"490 416 LINE",
"492 416 LINE",
"492 412 LINE",
"490 412 LINE",
"490 296 LINE",
"492 296 LINE",
"492 292 LINE",
"490 292 LINE",
"490 0 LINE",
"635 0 LINE",
"635 700 LINE"
);
}
);
};
guideLines = (
{
angle = 90;
position = "{345, 350}";
},
{
position = "{660, 350}";
}
);
layerId = "C89E7CB9-06CC-4D85-8773-832B05BA201B";
paths = (
{
closed = 1;
nodes = (
"417 0 LINE",
"417 275 LINE",
"670 700 LINE",
"513 700 LINE",
"346 420 LINE",
"346 416 LINE",
"342 416 LINE",
"342 420 LINE",
"181 700 LINE",
"10 700 LINE",
"272 277 LINE",
"272 0 LINE"
);
}
);
width = 680;
}
);
rightMetricsKey = "=|";
unicode = 0059;
},
{
color = 6;
glyphname = Z;
lastChange = "2020-05-13 13:02:28 +0000";
layers = (
{
background = {
components = (
{
name = H;
transform = "{1, 0, 0, 1, -58, 0}";
}
);
};
layerId = "E773EBAE-783E-4D91-931E-4E5C9CF0967C";
paths = (
{
closed = 1;
nodes = (
"540 0 LINE",
"540 60 LINE",
"125 60 LINE",
"125 58 LINE",
"121 58 LINE",
"121 62 LINE",
"123 62 LINE",
"530 655 LINE",
"530 700 LINE",
"57 700 LINE",
"57 645 LINE",
"453 645 LINE",
"453 647 LINE",
"457 647 LINE",
"457 643 LINE",
"455 643 LINE",
"40 48 LINE",
"40 0 LINE"
);
}
);
width = 580;
},
{
background = {
paths = (
{
closed = 1;
nodes = (
"118 296 LINE",
"155 296 LINE",
"155 298 LINE",
"159 298 LINE",
"159 296 LINE",
"455 296 LINE",
"455 298 LINE",
"459 298 LINE",
"459 296 LINE",
"502 296 LINE",
"502 411 LINE",
"459 411 LINE",
"459 409 LINE",
"455 409 LINE",
"455 411 LINE",
"159 411 LINE",
"159 409 LINE",
"155 409 LINE",
"155 411 LINE",
"118 411 LINE"
);
},
{
closed = 1;
nodes = (
"12 0 LINE",
"157 0 LINE",
"157 294 LINE",
"155 294 LINE",
"155 298 LINE",
"157 298 LINE",
"157 409 LINE",
"155 409 LINE",
"155 413 LINE",
"157 413 LINE",
"157 700 LINE",
"12 700 LINE"
);
},
{
closed = 1;
nodes = (
"457 700 LINE",
"457 413 LINE",
"459 413 LINE",
"459 409 LINE",
"457 409 LINE",
"457 298 LINE",
"459 298 LINE",
"459 294 LINE",
"457 294 LINE",
"457 0 LINE",
"602 0 LINE",
"602 700 LINE"
);
}
);
};
layerId = "C89E7CB9-06CC-4D85-8773-832B05BA201B";
paths = (
{
closed = 1;
nodes = (
"582 0 LINE",
"582 140 LINE",
"221 140 LINE",
"221 138 LINE",
"217 138 LINE",
"217 142 LINE",
"219 142 LINE",
"572 600 LINE",
"572 700 LINE",
"60 700 LINE",
"60 580 LINE",
"387 580 LINE",
"387 582 LINE",
"391 582 LINE",
"391 578 LINE",
"389 578 LINE",
"30 120 LINE",
"30 0 LINE"
);
}
);
width = 612;
}
);
rightMetricsKey = "=|";
unicode = 005A;
},
{
color = 6;
glyphname = a;
lastChange = "2020-05-11 14:41:42 +0000";
layers = (
{
anchors = (
{
name = bottom;
position = "{301, 0}";
},
{
name = ogonek;
position = "{542, 10}";
},
{
name = top;
position = "{301, 525}";
}
);
background = {
paths = (
{
closed = 1;
nodes = (
"374 -7 OFFCURVE",
"435 46 OFFCURVE",
"458 103 CURVE",
"458 105 LINE",
"462 105 LINE",
"462 101 LINE",
"462 0 LINE",
"522 0 LINE",
"522 525 LINE",
"462 525 LINE",
"462 423 LINE",
"462 419 LINE",
"458 419 LINE",
"458 421 LINE",
"444 466 OFFCURVE",
"374 533 OFFCURVE",
"279 533 CURVE SMOOTH",
"148 533 OFFCURVE",
"50 426 OFFCURVE",
"50 264 CURVE SMOOTH",
"50 102 OFFCURVE",
"148 -7 OFFCURVE",
"279 -7 CURVE SMOOTH"
);
},
{
closed = 1;
nodes = (
"191 53 OFFCURVE",
"115 135 OFFCURVE",
"115 264 CURVE SMOOTH",
"115 394 OFFCURVE",
"191 473 OFFCURVE",
"292 473 CURVE SMOOTH",
"395 473 OFFCURVE",
"462 382 OFFCURVE",
"462 279 CURVE SMOOTH",
"462 236 LINE SMOOTH",
"462 132 OFFCURVE",
"393 53 OFFCURVE",
"292 53 CURVE SMOOTH"
);
}
);
};
hints = (
{
horizontal = 1;
origin = "{0, 22}";
target = "{1, 12}";
type = Stem;
},
{
horizontal = 1;
origin = "{0, 16}";
target = "{1, 5}";
type = Stem;
},
{
origin = "{0, 19}";
target = "{1, 2}";
type = Stem;
},
{
origin = "{0, 6}";
target = "{0, 7}";
type = Stem;
}
);
layerId = "E773EBAE-783E-4D91-931E-4E5C9CF0967C";
paths = (
{
closed = 1;
nodes = (
"372 -7 OFFCURVE",
"435 46 OFFCURVE",
"458 103 CURVE",
"458 105 LINE",
"462 105 LINE",
"462 101 LINE",
"462 0 LINE",
"522 0 LINE",
"522 525 LINE",
"462 525 LINE",
"462 423 LINE",
"462 419 LINE",
"458 419 LINE",
"458 421 LINE",
"445 462 OFFCURVE",
"379 533 OFFCURVE",
"277 533 CURVE SMOOTH",
"152 533 OFFCURVE",
"50 427 OFFCURVE",
"50 268 CURVE SMOOTH",
"50 101 OFFCURVE",
"148 -7 OFFCURVE",
"279 -7 CURVE SMOOTH"
);
},
{
closed = 1;
nodes = (
"191 53 OFFCURVE",
"115 135 OFFCURVE",
"115 264 CURVE SMOOTH",
"115 395 OFFCURVE",
"192 473 OFFCURVE",
"291 473 CURVE SMOOTH",
"396 473 OFFCURVE",
"462 382 OFFCURVE",
"462 279 CURVE SMOOTH",
"462 236 LINE SMOOTH",
"462 132 OFFCURVE",
"391 53 OFFCURVE",
"292 53 CURVE SMOOTH"
);
}
);
width = 602;
},
{
anchors = (
{
name = bottom;
position = "{318, 0}";
},
{
name = ogonek;
position = "{572, 10}";
},
{
name = top;
position = "{318, 535}";
}
);
background = {
paths = (
{
closed = 1;
nodes = (
"374 -8 OFFCURVE",
"426 82 OFFCURVE",
"431 94 CURVE",
"431 96 LINE",
"435 96 LINE",
"435 92 LINE",
"435 0 LINE",
"565 0 LINE",
"565 525 LINE",
"435 525 LINE",
"435 444 LINE",
"435 440 LINE",
"431 440 LINE",
"431 442 LINE",
"418 470 OFFCURVE",
"373 537 OFFCURVE",
"262 537 CURVE SMOOTH",
"122 537 OFFCURVE",
"40 427 OFFCURVE",
"40 268 CURVE SMOOTH",
"40 92 OFFCURVE",
"139 -8 OFFCURVE",
"255 -8 CURVE SMOOTH"
);
},
{
closed = 1;
nodes = (
"237 107 OFFCURVE",
"180 167 OFFCURVE",
"180 269 CURVE SMOOTH",
"180 373 OFFCURVE",
"239 420 OFFCURVE",
"311 420 CURVE SMOOTH",
"374 420 OFFCURVE",
"435 363 OFFCURVE",
"435 271 CURVE SMOOTH",
"435 247 LINE SMOOTH",
"435 169 OFFCURVE",
"381 107 OFFCURVE",
"311 107 CURVE SMOOTH"
);
}
);
};
layerId = "C89E7CB9-06CC-4D85-8773-832B05BA201B";
paths = (
{
closed = 1;
nodes = (
"361 -8 OFFCURVE",
"419 68 OFFCURVE",
"431 94 CURVE",
"431 96 LINE",
"435 96 LINE",
"435 92 LINE",
"435 0 LINE",
"565 0 LINE",
"565 525 LINE",
"435 525 LINE",
"435 444 LINE",
"435 440 LINE",
"431 440 LINE",
"431 442 LINE",
"418 470 OFFCURVE",
"373 537 OFFCURVE",
"262 537 CURVE SMOOTH",
"122 537 OFFCURVE",
"40 427 OFFCURVE",
"40 268 CURVE SMOOTH",
"40 92 OFFCURVE",
"138 -8 OFFCURVE",
"257 -8 CURVE SMOOTH"
);
},
{
closed = 1;
nodes = (
"237 107 OFFCURVE",
"180 167 OFFCURVE",
"180 269 CURVE SMOOTH",
"180 375 OFFCURVE",
"245 420 OFFCURVE",
"306 420 CURVE SMOOTH",
"370 420 OFFCURVE",
"435 370 OFFCURVE",
"435 274 CURVE SMOOTH",
"435 247 LINE SMOOTH",
"435 169 OFFCURVE",
"386 107 OFFCURVE",
"311 107 CURVE SMOOTH"
);
}
);
width = 635;
}
);
leftMetricsKey = "=o";
rightMetricsKey = "=n-10";
unicode = 0061;
},
{
color = 7;
glyphname = a.ss01;
lastChange = "2020-05-27 15:45:54 +0000";
layers = (
{
anchors = (
{
name = bottom;
position = "{273, 0}";
},
{
name = ogonek;
position = "{475, 10}";
},
{
name = top;
position = "{273, 525}";
}
);
background = {
paths = (
{
closed = 1;
nodes = (
"319 -8 OFFCURVE",
"376 26 OFFCURVE",
"401 76 CURVE",
"401 78 LINE",
"405 78 LINE",
"405 74 LINE",
"415 0 LINE",
"465 0 LINE",
"465 358 LINE SMOOTH",
"465 483 OFFCURVE",
"371 533 OFFCURVE",
"272 533 CURVE SMOOTH",
"199 533 OFFCURVE",
"121 500 OFFCURVE",
"87 428 CURVE",
"73 459 LINE",
"166 403 LINE",
"133 400 LINE",
"159 453 OFFCURVE",
"219 478 OFFCURVE",
"271 478 CURVE SMOOTH",
"342 478 OFFCURVE",
"405 437 OFFCURVE",
"405 359 CURVE SMOOTH",
"405 332 LINE",
"405 328 LINE",
"401 328 LINE",
"401 330 LINE",
"272 330 LINE SMOOTH",
"125 330 OFFCURVE",
"60 252 OFFCURVE",
"60 157 CURVE SMOOTH",
"60 54 OFFCURVE",
"151 -8 OFFCURVE",
"246 -8 CURVE SMOOTH"
);
},
{
closed = 1;
nodes = (
"159 52 OFFCURVE",
"125 113 OFFCURVE",
"125 157 CURVE SMOOTH",
"125 206 OFFCURVE",
"154 275 OFFCURVE",
"272 275 CURVE SMOOTH",
"401 275 LINE",
"401 277 LINE",
"405 277 LINE",
"405 273 LINE",
"405 218 LINE SMOOTH",
"405 113 OFFCURVE",
"345 52 OFFCURVE",
"257 52 CURVE SMOOTH"
);
}
);
};
layerId = "E773EBAE-783E-4D91-931E-4E5C9CF0967C";
paths = (
{
closed = 1;
nodes = (
"316 -8 OFFCURVE",
"376 26 OFFCURVE",
"401 76 CURVE",
"401 78 LINE",
"405 78 LINE",
"405 74 LINE",
"415 0 LINE",
"465 0 LINE",
"465 358 LINE SMOOTH",
"465 483 OFFCURVE",
"371 533 OFFCURVE",
"273 533 CURVE SMOOTH",
"193 533 OFFCURVE",
"121 500 OFFCURVE",
"87 428 CURVE",
"73 459 LINE",
"166 404 LINE",
"134 400 LINE",
"160 453 OFFCURVE",
"218 478 OFFCURVE",
"273 478 CURVE SMOOTH",
"344 478 OFFCURVE",
"405 437 OFFCURVE",
"405 359 CURVE SMOOTH",
"405 332 LINE",
"405 328 LINE",
"401 328 LINE",
"401 330 LINE",
"272 330 LINE SMOOTH",
"125 330 OFFCURVE",
"60 249 OFFCURVE",
"60 159 CURVE SMOOTH",
"60 54 OFFCURVE",
"151 -8 OFFCURVE",
"246 -8 CURVE SMOOTH"
);
},
{
closed = 1;
nodes = (
"171 50 OFFCURVE",
"125 101 OFFCURVE",
"125 160 CURVE SMOOTH",
"125 207 OFFCURVE",
"154 275 OFFCURVE",
"272 275 CURVE SMOOTH",
"401 275 LINE",
"401 277 LINE",
"405 277 LINE",
"405 273 LINE",
"405 218 LINE SMOOTH",
"405 105 OFFCURVE",
"340 50 OFFCURVE",
"254 50 CURVE SMOOTH"
);
}
);
width = 555;
},
{
anchors = (
{
name = bottom;
position = "{285, 0}";
},
{
name = ogonek;
position = "{509, 10}";
},
{
name = top;
position = "{285, 535}";
}
);
background = {
paths = (
{
closed = 1;
nodes = (
"289 -13 OFFCURVE",
"353 15 OFFCURVE",
"381 76 CURVE",
"381 78 LINE",
"385 78 LINE",
"385 74 LINE",
"395 0 LINE",
"515 0 LINE",
"515 356 LINE SMOOTH",
"515 473 OFFCURVE",
"404 538 OFFCURVE",
"294 538 CURVE SMOOTH",
"193 538 OFFCURVE",
"101 496 OFFCURVE",
"55 405 CURVE",
"38 465 LINE",
"190 357 LINE",
"134 357 LINE",
"172 418 OFFCURVE",
"214 433 OFFCURVE",
"272 433 CURVE SMOOTH",
"331 433 OFFCURVE",
"385 407 OFFCURVE",
"385 359 CURVE SMOOTH",
"385 338 LINE",
"385 334 LINE",
"381 334 LINE",
"381 336 LINE",
"277 336 LINE SMOOTH",
"163 336 OFFCURVE",
"50 274 OFFCURVE",
"50 163 CURVE SMOOTH",
"50 52 OFFCURVE",
"136 -13 OFFCURVE",
"222 -13 CURVE SMOOTH"
);
},
{
closed = 1;
nodes = (
"214 94 OFFCURVE",
"185 126 OFFCURVE",
"185 170 CURVE SMOOTH",
"185 215 OFFCURVE",
"233 241 OFFCURVE",
"287 241 CURVE SMOOTH",
"381 241 LINE",
"381 243 LINE",
"385 243 LINE",
"385 239 LINE",
"385 219 LINE SMOOTH",
"385 114 OFFCURVE",
"316 94 OFFCURVE",
"269 94 CURVE SMOOTH"
);
}
);
};
guideLines = (
{
position = "{790, 536}";
}
);
layerId = "C89E7CB9-06CC-4D85-8773-832B05BA201B";
paths = (
{
closed = 1;
nodes = (
"285 -13 OFFCURVE",
"356 15 OFFCURVE",
"381 76 CURVE",
"381 78 LINE",
"385 78 LINE",
"385 74 LINE",
"395 0 LINE",
"515 0 LINE",
"515 356 LINE SMOOTH",
"515 474 OFFCURVE",
"408 538 OFFCURVE",
"293 538 CURVE SMOOTH",
"201 538 OFFCURVE",
"102 496 OFFCURVE",
"56 405 CURVE",
"38 465 LINE",
"190 357 LINE",
"145 354 LINE",
"177 406 OFFCURVE",
"227 433 OFFCURVE",
"282 433 CURVE SMOOTH",
"332 433 OFFCURVE",
"385 409 OFFCURVE",
"385 359 CURVE SMOOTH",
"385 338 LINE",
"385 334 LINE",
"381 334 LINE",
"381 336 LINE",
"277 336 LINE SMOOTH",
"163 336 OFFCURVE",
"50 278 OFFCURVE",
"50 159 CURVE SMOOTH",
"50 53 OFFCURVE",
"136 -13 OFFCURVE",
"226 -13 CURVE SMOOTH"
);
},
{
closed = 1;
nodes = (
"214 94 OFFCURVE",
"185 126 OFFCURVE",
"185 166 CURVE SMOOTH",
"185 218 OFFCURVE",
"233 241 OFFCURVE",
"287 241 CURVE SMOOTH",
"381 241 LINE",
"381 243 LINE",
"385 243 LINE",
"385 239 LINE",
"385 219 LINE SMOOTH",
"385 114 OFFCURVE",
"313 94 OFFCURVE",
"269 94 CURVE SMOOTH"
);
}
);
width = 595;
}
);
leftMetricsKey = "=o+10";
rightMetricsKey = "=n";
},
{
color = 3;
glyphname = ae;
lastChange = "2020-05-27 15:57:18 +0000";
layers = (
{
layerId = "E773EBAE-783E-4D91-931E-4E5C9CF0967C";
paths = (
{
closed = 1;
nodes = (
"314 -8 OFFCURVE",
"390 18 OFFCURVE",
"439 111 CURVE",
"439 115 LINE",
"443 115 LINE",
"443 111 LINE",
"486 35 OFFCURVE",
"555 -8 OFFCURVE",
"651 -8 CURVE SMOOTH",
"763 -8 OFFCURVE",
"825 51 OFFCURVE",
"855 98 CURVE",
"809 131 LINE",
"781 91 OFFCURVE",
"738 47 OFFCURVE",
"653 47 CURVE SMOOTH",
"533 47 OFFCURVE",
"467 138 OFFCURVE",
"467 250 CURVE",
"467 254 LINE",
"471 254 LINE",
"471 252 LINE",
"890 252 LINE",
"860 234 LINE",
"864 254 OFFCURVE",
"866 274 OFFCURVE",
"866 293 CURVE SMOOTH",
"866 420 OFFCURVE",
"777 533 OFFCURVE",
"640 533 CURVE SMOOTH",
"558 533 OFFCURVE",
"494 496 OFFCURVE",
"453 436 CURVE",
"453 432 LINE",
"449 432 LINE",
"449 436 LINE",
"418 505 OFFCURVE",
"347 533 OFFCURVE",
"273 533 CURVE SMOOTH",
"200 533 OFFCURVE",
"133 505 OFFCURVE",
"96 445 CURVE",
"144 417 LINE",
"173 458 OFFCURVE",
"224 478 OFFCURVE",
"273 478 CURVE SMOOTH",
"344 478 OFFCURVE",
"405 437 OFFCURVE",
"405 359 CURVE SMOOTH",
"405 311 LINE",
"405 307 LINE",
"401 307 LINE",
"401 309 LINE",
"272 309 LINE SMOOTH",
"130 309 OFFCURVE",
"60 239 OFFCURVE",
"60 149 CURVE SMOOTH",
"60 44 OFFCURVE",
"152 -8 OFFCURVE",
"247 -8 CURVE SMOOTH"
);
},
{
closed = 1;
nodes = (
"172 52 OFFCURVE",
"125 91 OFFCURVE",
"125 148 CURVE SMOOTH",
"125 197 OFFCURVE",
"159 254 OFFCURVE",
"272 254 CURVE SMOOTH",
"401 254 LINE",
"401 256 LINE",
"405 256 LINE",
"405 252 LINE",
"405 218 LINE SMOOTH",
"405 105 OFFCURVE",
"341 52 OFFCURVE",
"251 52 CURVE SMOOTH"
);
},
{
closed = 1;
nodes = (
"469 308 LINE",
"469 393 OFFCURVE",
"532 478 OFFCURVE",
"640 478 CURVE SMOOTH",
"748 478 OFFCURVE",
"803 392 OFFCURVE",
"803 309 CURVE",
"803 304 LINE",
"799 304 LINE",
"799 307 LINE",
"473 307 LINE",
"473 304 LINE",
"469 304 LINE"
);
}
);
width = 916;
},
{
guideLines = (
{
angle = 90;
position = "{469, 472}";
},
{
position = "{532, 319}";
}
);
layerId = "C89E7CB9-06CC-4D85-8773-832B05BA201B";
paths = (
{
closed = 1;
nodes = (
"330 -13 OFFCURVE",
"406 21 OFFCURVE",
"449 70 CURVE",
"449 74 LINE",
"453 74 LINE",
"453 70 LINE",
"500 18 OFFCURVE",
"568 -12 OFFCURVE",
"651 -12 CURVE SMOOTH",
"774 -12 OFFCURVE",
"841 56 OFFCURVE",
"877 110 CURVE",
"788 175 LINE",
"758 138 OFFCURVE",
"720 103 OFFCURVE",
"655 103 CURVE SMOOTH",
"568 103 OFFCURVE",
"516 167 OFFCURVE",
"516 227 CURVE",
"516 231 LINE",
"520 231 LINE",
"520 229 LINE",
"938 229 LINE",
"868 192 LINE",
"882 216 OFFCURVE",
"885 266 OFFCURVE",
"885 289 CURVE SMOOTH",
"885 413 OFFCURVE",
"790 537 OFFCURVE",
"640 537 CURVE SMOOTH",
"573 537 OFFCURVE",
"515 512 OFFCURVE",
"472 471 CURVE",
"472 467 LINE",
"468 467 LINE",
"468 471 LINE",
"426 515 OFFCURVE",
"361 538 OFFCURVE",
"293 538 CURVE SMOOTH",
"213 538 OFFCURVE",
"127 506 OFFCURVE",
"76 438 CURVE",
"162 377 LINE",
"193 414 OFFCURVE",
"236 433 OFFCURVE",
"281 433 CURVE SMOOTH",
"332 433 OFFCURVE",
"385 409 OFFCURVE",
"385 359 CURVE SMOOTH",
"385 320 LINE",
"385 316 LINE",
"381 316 LINE",
"381 318 LINE",
"277 318 LINE SMOOTH",
"163 318 OFFCURVE",
"50 270 OFFCURVE",
"50 151 CURVE SMOOTH",
"50 45 OFFCURVE",
"140 -13 OFFCURVE",
"247 -13 CURVE SMOOTH"
);
},
{
closed = 1;
nodes = (
"211 94 OFFCURVE",
"185 118 OFFCURVE",
"185 156 CURVE SMOOTH",
"185 206 OFFCURVE",
"231 228 OFFCURVE",
"285 228 CURVE SMOOTH",
"380 228 LINE",
"380 230 LINE",
"384 230 LINE",
"384 226 LINE",
"384 219 LINE SMOOTH",
"384 106 OFFCURVE",
"308 94 OFFCURVE",
"267 94 CURVE SMOOTH"
);
},
{
closed = 1;
nodes = (
"515 321 LINE",
"515 370 OFFCURVE",
"561 432 OFFCURVE",
"640 432 CURVE SMOOTH",
"719 432 OFFCURVE",
"761 370 OFFCURVE",
"761 321 CURVE SMOOTH",
"761 317 LINE",
"757 317 LINE",
"757 319 LINE",
"519 319 LINE",
"519 317 LINE",
"515 317 LINE"
);
}
);
width = 925;
}
);
leftMetricsKey = "=a.ss01";
rightMetricsKey = "=e";
unicode = 00E6;
},
{
color = 6;
glyphname = b;
lastChange = "2020-05-15 09:19:57 +0000";
layers = (
{
background = {
paths = (
{
closed = 1;
nodes = (
"464 -7 OFFCURVE",
"560 102 OFFCURVE",
"560 264 CURVE SMOOTH",
"560 426 OFFCURVE",
"464 534 OFFCURVE",
"333 534 CURVE SMOOTH",
"248 534 OFFCURVE",
"190 487 OFFCURVE",
"154 428 CURVE",
"154 426 LINE",
"150 426 LINE",
"150 430 LINE",
"150 735 LINE",
"90 735 LINE",
"90 0 LINE",
"140 0 LINE",
"150 104 LINE",
"150 108 LINE",
"154 108 LINE",
"154 106 LINE",
"181 46 OFFCURVE",
"245 -7 OFFCURVE",
"333 -7 CURVE SMOOTH"
);
},
{
closed = 1;
nodes = (
"218 53 OFFCURVE",
"150 131 OFFCURVE",
"150 271 CURVE SMOOTH",
"150 385 OFFCURVE",
"218 474 OFFCURVE",
"320 474 CURVE SMOOTH",
"421 474 OFFCURVE",
"495 394 OFFCURVE",
"495 264 CURVE SMOOTH",
"495 135 OFFCURVE",
"421 53 OFFCURVE",
"320 53 CURVE SMOOTH"
);
}
);
};
layerId = "E773EBAE-783E-4D91-931E-4E5C9CF0967C";
paths = (
{
closed = 1;
nodes = (
"465 -7 OFFCURVE",
"560 102 OFFCURVE",
"560 264 CURVE SMOOTH",
"560 426 OFFCURVE",
"464 534 OFFCURVE",
"333 534 CURVE SMOOTH",
"248 534 OFFCURVE",
"190 487 OFFCURVE",
"154 428 CURVE",
"154 426 LINE",
"150 426 LINE",
"150 430 LINE",
"150 735 LINE",
"90 735 LINE",
"90 0 LINE",
"140 0 LINE",
"150 104 LINE",
"150 108 LINE",
"154 108 LINE",
"154 106 LINE",
"181 46 OFFCURVE",
"243 -7 OFFCURVE",
"334 -7 CURVE SMOOTH"
);
},
{
closed = 1;
nodes = (
"219 53 OFFCURVE",
"150 131 OFFCURVE",
"150 271 CURVE SMOOTH",
"150 273 OFFCURVE",
"150 275 OFFCURVE",
"150 277 CURVE SMOOTH",
"150 384 OFFCURVE",
"220 474 OFFCURVE",
"322 474 CURVE SMOOTH",
"419 474 OFFCURVE",
"495 394 OFFCURVE",
"495 264 CURVE SMOOTH",
"495 135 OFFCURVE",
"422 53 OFFCURVE",
"319 53 CURVE SMOOTH"
);
}
);
width = 610;
},
{
background = {
paths = (
{
closed = 1;
nodes = (
"515 -8 OFFCURVE",
"615 92 OFFCURVE",
"615 268 CURVE SMOOTH",
"615 427 OFFCURVE",
"533 537 OFFCURVE",
"393 537 CURVE SMOOTH",
"300 537 OFFCURVE",
"246 475 OFFCURVE",
"224 428 CURVE",
"224 426 LINE",
"220 426 LINE",
"220 430 LINE",
"220 743 LINE",
"90 743 LINE",
"90 0 LINE",
"210 0 LINE",
"220 84 LINE",
"220 88 LINE",
"224 88 LINE",
"224 86 LINE",
"267 19 OFFCURVE",
"325 -8 OFFCURVE",
"400 -8 CURVE SMOOTH"
);
},
{
closed = 1;
nodes = (
"267 107 OFFCURVE",
"219 176 OFFCURVE",
"219 259 CURVE SMOOTH",
"219 262 OFFCURVE",
"219 264 OFFCURVE",
"219 267 CURVE SMOOTH",
"222 377 OFFCURVE",
"287 422 OFFCURVE",
"344 422 CURVE SMOOTH",
"416 422 OFFCURVE",
"475 373 OFFCURVE",
"475 269 CURVE SMOOTH",
"475 167 OFFCURVE",
"418 107 OFFCURVE",
"344 107 CURVE SMOOTH"
);
}
);
};
layerId = "C89E7CB9-06CC-4D85-8773-832B05BA201B";
paths = (
{
closed = 1;
nodes = (
"513 -8 OFFCURVE",
"615 88 OFFCURVE",
"615 268 CURVE SMOOTH",
"615 427 OFFCURVE",
"531 537 OFFCURVE",
"397 537 CURVE SMOOTH",
"296 537 OFFCURVE",
"246 475 OFFCURVE",
"224 428 CURVE",
"224 426 LINE",
"220 426 LINE",
"220 430 LINE",
"220 743 LINE",
"80 743 LINE",
"80 0 LINE",
"210 0 LINE",
"220 84 LINE",
"220 88 LINE",
"224 88 LINE",
"224 86 LINE",
"265 22 OFFCURVE",
"329 -8 OFFCURVE",
"394 -8 CURVE SMOOTH"
);
},
{
closed = 1;
nodes = (
"267 107 OFFCURVE",
"219 176 OFFCURVE",
"219 259 CURVE SMOOTH",
"219 262 OFFCURVE",
"219 264 OFFCURVE",
"219 267 CURVE SMOOTH",
"219 377 OFFCURVE",
"286 422 OFFCURVE",
"348 422 CURVE SMOOTH",
"413 422 OFFCURVE",
"475 373 OFFCURVE",
"475 269 CURVE SMOOTH",
"475 166 OFFCURVE",
"416 107 OFFCURVE",
"344 107 CURVE SMOOTH"
);
}
);
width = 655;
}
);
leftMetricsKey = "=h";
rightMetricsKey = "=o";
unicode = 0062;
},
{
color = 6;
glyphname = c;
lastChange = "2020-05-11 14:41:42 +0000";
layers = (
{
background = {
paths = (
{
closed = 1;
nodes = (
"412 -8 OFFCURVE",
"471 68 OFFCURVE",
"495 110 CURVE",
"514 83 LINE",
"412 144 LINE",
"445 144 LINE",
"422 101 OFFCURVE",
"384 47 OFFCURVE",
"285 47 CURVE SMOOTH",
"177 47 OFFCURVE",
"115 156 OFFCURVE",
"115 264 CURVE SMOOTH",
"115 371 OFFCURVE",
"172 478 OFFCURVE",
"285 478 CURVE SMOOTH",
"378 478 OFFCURVE",
"416 426 OFFCURVE",
"436 383 CURVE",
"410 386 LINE",
"505 440 LINE",
"488 413 LINE",
"468 456 OFFCURVE",
"408 533 OFFCURVE",
"285 533 CURVE SMOOTH",
"159 533 OFFCURVE",
"50 427 OFFCURVE",
"50 264 CURVE SMOOTH",
"50 96 OFFCURVE",
"157 -8 OFFCURVE",
"285 -8 CURVE SMOOTH"
);
}
);
};
layerId = "E773EBAE-783E-4D91-931E-4E5C9CF0967C";
paths = (
{
closed = 1;
nodes = (
"394 -8 OFFCURVE",
"471 68 OFFCURVE",
"495 110 CURVE",
"514 83 LINE",
"412 144 LINE",
"445 146 LINE",
"422 103 OFFCURVE",
"363 47 OFFCURVE",
"288 47 CURVE SMOOTH",
"197 47 OFFCURVE",
"115 129 OFFCURVE",
"115 264 CURVE SMOOTH",
"115 371 OFFCURVE",
"172 478 OFFCURVE",
"290 478 CURVE SMOOTH",
"369 478 OFFCURVE",
"416 429 OFFCURVE",
"436 383 CURVE",
"410 386 LINE",
"505 440 LINE",
"488 413 LINE",
"468 459 OFFCURVE",
"399 533 OFFCURVE",
"290 533 CURVE SMOOTH",
"159 533 OFFCURVE",
"50 427 OFFCURVE",
"50 264 CURVE SMOOTH",
"50 96 OFFCURVE",
"164 -8 OFFCURVE",
"288 -8 CURVE SMOOTH"
);
}
);
width = 538;
},
{
background = {
paths = (
{
closed = 1;
nodes = (
"438 -12 OFFCURVE",
"502 78 OFFCURVE",
"528 138 CURVE",
"558 82 LINE",
"377 184 LINE",
"422 188 LINE",
"391 130 OFFCURVE",
"363 103 OFFCURVE",
"302 103 CURVE SMOOTH",
"238 103 OFFCURVE",
"180 164 OFFCURVE",
"180 267 CURVE SMOOTH",
"180 363 OFFCURVE",
"236 422 OFFCURVE",
"304 422 CURVE SMOOTH",
"365 422 OFFCURVE",
"397 390 OFFCURVE",
"417 340 CURVE",
"376 348 LINE",
"554 443 LINE",
"523 387 LINE",
"497 447 OFFCURVE",
"435 537 OFFCURVE",
"300 537 CURVE SMOOTH",
"155 537 OFFCURVE",
"40 429 OFFCURVE",
"40 267 CURVE SMOOTH",
"40 80 OFFCURVE",
"168 -12 OFFCURVE",
"303 -12 CURVE SMOOTH"
);
}
);
};
guideLines = (
{
angle = 270;
position = "{504, 437}";
}
);
layerId = "C89E7CB9-06CC-4D85-8773-832B05BA201B";
paths = (
{
closed = 1;
nodes = (
"431 -12 OFFCURVE",
"502 78 OFFCURVE",
"528 138 CURVE",
"558 82 LINE",
"377 184 LINE",
"423 193 LINE",
"391 130 OFFCURVE",
"348 103 OFFCURVE",
"303 103 CURVE SMOOTH",
"233 103 OFFCURVE",
"180 167 OFFCURVE",
"180 267 CURVE SMOOTH",
"180 363 OFFCURVE",
"233 422 OFFCURVE",
"303 422 CURVE SMOOTH",
"355 422 OFFCURVE",
"391 390 OFFCURVE",
"411 340 CURVE",
"376 348 LINE",
"554 443 LINE",
"523 387 LINE",
"497 447 OFFCURVE",
"435 537 OFFCURVE",
"300 537 CURVE SMOOTH",
"155 537 OFFCURVE",
"40 429 OFFCURVE",
"40 267 CURVE SMOOTH",
"40 80 OFFCURVE",
"168 -12 OFFCURVE",
"300 -12 CURVE SMOOTH"
);
}
);
width = 552;
}
);
leftMetricsKey = "=o";
rightMetricsKey = "=o";
unicode = 0063;
},
{
color = 6;
glyphname = d;
lastChange = "2020-05-15 09:17:02 +0000";
layers = (
{
background = {
paths = (
{
closed = 1;
nodes = (
"365 -8 OFFCURVE",
"429 45 OFFCURVE",
"456 105 CURVE",
"456 107 LINE",
"460 107 LINE",
"460 103 LINE",
"460 0 LINE",
"520 0 LINE",
"520 735 LINE",
"460 735 LINE",
"460 429 LINE",
"460 425 LINE",
"456 425 LINE",
"456 427 LINE",
"420 486 OFFCURVE",
"362 533 OFFCURVE",
"277 533 CURVE SMOOTH",
"146 533 OFFCURVE",
"50 425 OFFCURVE",
"50 263 CURVE SMOOTH",
"50 101 OFFCURVE",
"146 -8 OFFCURVE",
"277 -8 CURVE SMOOTH"
);
},
{
closed = 1;
nodes = (
"189 52 OFFCURVE",
"115 134 OFFCURVE",
"115 263 CURVE SMOOTH",
"115 393 OFFCURVE",
"189 473 OFFCURVE",
"290 473 CURVE SMOOTH",
"390 473 OFFCURVE",
"461 388 OFFCURVE",
"461 268 CURVE SMOOTH",
"461 140 OFFCURVE",
"395 52 OFFCURVE",
"290 52 CURVE SMOOTH"
);
}
);
};
layerId = "E773EBAE-783E-4D91-931E-4E5C9CF0967C";
paths = (
{
closed = 1;
nodes = (
"370 -8 OFFCURVE",
"430 48 OFFCURVE",
"456 105 CURVE",
"456 107 LINE",
"460 107 LINE",
"460 103 LINE",
"460 0 LINE",
"520 0 LINE",
"520 735 LINE",
"460 735 LINE",
"460 429 LINE",
"460 425 LINE",
"456 425 LINE",
"456 427 LINE",
"420 486 OFFCURVE",
"362 533 OFFCURVE",
"277 533 CURVE SMOOTH",
"146 533 OFFCURVE",
"50 425 OFFCURVE",
"50 263 CURVE SMOOTH",
"50 101 OFFCURVE",
"149 -8 OFFCURVE",
"278 -8 CURVE SMOOTH"
);
},
{
closed = 1;
nodes = (
"189 52 OFFCURVE",
"115 134 OFFCURVE",
"115 263 CURVE SMOOTH",
"115 393 OFFCURVE",
"189 473 OFFCURVE",
"288 473 CURVE SMOOTH",
"390 473 OFFCURVE",
"461 389 OFFCURVE",
"461 263 CURVE SMOOTH",
"461 140 OFFCURVE",
"395 52 OFFCURVE",
"290 52 CURVE SMOOTH"
);
}
);
width = 610;
},
{
background = {
paths = (
{
closed = 1;
nodes = (
"330 -8 OFFCURVE",
"388 20 OFFCURVE",
"431 87 CURVE",
"431 89 LINE",
"435 89 LINE",
"435 85 LINE",
"435 0 LINE",
"565 0 LINE",
"565 743 LINE",
"435 743 LINE",
"435 430 LINE",
"435 426 LINE",
"431 426 LINE",
"431 428 LINE",
"409 475 OFFCURVE",
"355 537 OFFCURVE",
"262 537 CURVE SMOOTH",
"122 537 OFFCURVE",
"40 428 OFFCURVE",
"40 269 CURVE SMOOTH",
"40 93 OFFCURVE",
"140 -8 OFFCURVE",
"255 -8 CURVE SMOOTH"
);
},
{
closed = 1;
nodes = (
"237 107 OFFCURVE",
"180 168 OFFCURVE",
"180 270 CURVE SMOOTH",
"180 374 OFFCURVE",
"239 422 OFFCURVE",
"311 422 CURVE SMOOTH",
"369 422 OFFCURVE",
"438 375 OFFCURVE",
"438 260 CURVE SMOOTH",
"438 177 OFFCURVE",
"388 107 OFFCURVE",
"311 107 CURVE SMOOTH"
);
}
);
};
layerId = "C89E7CB9-06CC-4D85-8773-832B05BA201B";
paths = (
{
closed = 1;
nodes = (
"320 -8 OFFCURVE",
"386 18 OFFCURVE",
"431 87 CURVE",
"431 89 LINE",
"435 89 LINE",
"435 85 LINE",
"435 0 LINE",
"575 0 LINE",
"575 743 LINE",
"435 743 LINE",
"435 430 LINE",
"435 426 LINE",
"431 426 LINE",
"431 428 LINE",
"409 475 OFFCURVE",
"355 537 OFFCURVE",
"258 537 CURVE SMOOTH",
"122 537 OFFCURVE",
"40 418 OFFCURVE",
"40 269 CURVE SMOOTH",
"40 103 OFFCURVE",
"137 -8 OFFCURVE",
"261 -8 CURVE SMOOTH"
);
},
{
closed = 1;
nodes = (
"236 107 OFFCURVE",
"180 168 OFFCURVE",
"180 270 CURVE SMOOTH",
"180 374 OFFCURVE",
"238 422 OFFCURVE",
"307 422 CURVE SMOOTH",
"386 422 OFFCURVE",
"438 359 OFFCURVE",
"438 262 CURVE SMOOTH",
"438 162 OFFCURVE",
"380 107 OFFCURVE",
"310 107 CURVE SMOOTH"
);
}
);
width = 655;
}
);
leftMetricsKey = "=o";
rightMetricsKey = "=n";
unicode = 0064;
},
{
color = 6;
glyphname = e;
lastChange = "2020-05-27 16:41:47 +0000";
layers = (
{
background = {
paths = (
{
closed = 1;
nodes = (
"423 -8 OFFCURVE",
"486 69 OFFCURVE",
"511 116 CURVE",
"521 83 LINE",
"438 147 LINE",
"463 145 LINE",
"436 102 OFFCURVE",
"393 47 OFFCURVE",
"298 47 CURVE SMOOTH",
"178 47 OFFCURVE",
"112 138 OFFCURVE",
"112 250 CURVE",
"112 254 LINE",
"116 254 LINE",
"116 252 LINE",
"532 252 LINE",
"499 216 LINE",
"506 240 OFFCURVE",
"508 288 OFFCURVE",
"508 306 CURVE SMOOTH",
"508 423 OFFCURVE",
"423 533 OFFCURVE",
"285 533 CURVE SMOOTH",
"142 533 OFFCURVE",
"50 421 OFFCURVE",
"50 264 CURVE SMOOTH",
"50 93 OFFCURVE",
"159 -8 OFFCURVE",
"296 -8 CURVE SMOOTH"
);
},
{
closed = 1;
nodes = (
"114 309 LINE",
"114 394 OFFCURVE",
"177 478 OFFCURVE",
"285 478 CURVE SMOOTH",
"393 478 OFFCURVE",
"448 392 OFFCURVE",
"448 309 CURVE",
"448 304 LINE",
"444 304 LINE",
"444 307 LINE",
"118 307 LINE",
"118 304 LINE",
"114 304 LINE"
);
}
);
};
layerId = "E773EBAE-783E-4D91-931E-4E5C9CF0967C";
paths = (
{
closed = 1;
nodes = (
"403 -8 OFFCURVE",
"469 52 OFFCURVE",
"500 98 CURVE",
"454 131 LINE",
"425 91 OFFCURVE",
"378 47 OFFCURVE",
"293 47 CURVE SMOOTH",
"173 47 OFFCURVE",
"112 138 OFFCURVE",
"112 250 CURVE",
"112 254 LINE",
"116 254 LINE",
"116 252 LINE",
"532 252 LINE",
"500 216 LINE",
"508 242 OFFCURVE",
"511 268 OFFCURVE",
"511 293 CURVE SMOOTH",
"511 420 OFFCURVE",
"422 533 OFFCURVE",
"285 533 CURVE SMOOTH",
"142 533 OFFCURVE",
"50 421 OFFCURVE",
"50 264 CURVE SMOOTH",
"50 93 OFFCURVE",
"154 -8 OFFCURVE",
"291 -8 CURVE SMOOTH"
);
},
{
closed = 1;
nodes = (
"114 309 LINE",
"114 394 OFFCURVE",
"177 478 OFFCURVE",
"285 478 CURVE SMOOTH",
"393 478 OFFCURVE",
"448 392 OFFCURVE",
"448 309 CURVE",
"448 304 LINE",
"444 304 LINE",
"444 307 LINE",
"118 307 LINE",
"118 304 LINE",
"114 304 LINE"
);
}
);
width = 561;
},
{
background = {
paths = (
{
closed = 1;
nodes = (
"443 -12 OFFCURVE",
"506 77 OFFCURVE",
"538 132 CURVE",
"579 64 LINE",
"412 191 LINE",
"456 184 LINE",
"424 142 OFFCURVE",
"383 103 OFFCURVE",
"309 103 CURVE SMOOTH",
"227 103 OFFCURVE",
"170 167 OFFCURVE",
"170 227 CURVE",
"170 231 LINE",
"174 231 LINE",
"174 229 LINE",
"594 229 LINE",
"527 196 LINE",
"537 223 OFFCURVE",
"540 267 OFFCURVE",
"540 289 CURVE SMOOTH",
"540 413 OFFCURVE",
"447 537 OFFCURVE",
"297 537 CURVE SMOOTH",
"140 537 OFFCURVE",
"40 414 OFFCURVE",
"40 267 CURVE SMOOTH",
"40 100 OFFCURVE",
"154 -12 OFFCURVE",
"299 -12 CURVE SMOOTH"
);
},
{
closed = 1;
nodes = (
"169 321 LINE",
"169 370 OFFCURVE",
"213 432 OFFCURVE",
"296 432 CURVE SMOOTH",
"375 432 OFFCURVE",
"417 370 OFFCURVE",
"417 321 CURVE",
"417 317 LINE",
"413 317 LINE",
"413 319 LINE",
"173 319 LINE",
"173 317 LINE",
"169 317 LINE"
);
}
);
};
layerId = "C89E7CB9-06CC-4D85-8773-832B05BA201B";
paths = (
{
closed = 1;
nodes = (
"429 -12 OFFCURVE",
"496 56 OFFCURVE",
"532 110 CURVE",
"443 175 LINE",
"413 138 OFFCURVE",
"375 103 OFFCURVE",
"310 103 CURVE SMOOTH",
"223 103 OFFCURVE",
"171 167 OFFCURVE",
"171 227 CURVE SMOOTH",
"171 231 LINE",
"175 231 LINE",
"175 229 LINE",
"593 229 LINE",
"523 192 LINE",
"537 216 OFFCURVE",
"540 266 OFFCURVE",
"540 289 CURVE SMOOTH",
"540 413 OFFCURVE",
"445 537 OFFCURVE",
"295 537 CURVE SMOOTH",
"143 537 OFFCURVE",
"40 414 OFFCURVE",
"40 267 CURVE SMOOTH",
"40 107 OFFCURVE",
"149 -12 OFFCURVE",
"306 -12 CURVE SMOOTH"
);
},
{
closed = 1;
nodes = (
"170 321 LINE SMOOTH",
"170 370 OFFCURVE",
"216 432 OFFCURVE",
"295 432 CURVE SMOOTH",
"374 432 OFFCURVE",
"416 370 OFFCURVE",
"416 321 CURVE SMOOTH",
"416 317 LINE",
"412 317 LINE",
"412 319 LINE",
"174 319 LINE",
"174 317 LINE",
"170 317 LINE"
);
}
);
width = 580;
}
);
leftMetricsKey = "=o";
rightMetricsKey = "=o";
unicode = 0065;
},
{
glyphname = eacute;
lastChange = "2020-05-27 14:09:53 +0000";
layers = (
{
background = {
paths = (
{
closed = 1;
nodes = (
"496 242 LINE",
"498 263 OFFCURVE",
"499 276 OFFCURVE",
"499 296 CURVE SMOOTH",
"499 436 OFFCURVE",
"405 533 OFFCURVE",
"278 533 CURVE SMOOTH",
"141 533 OFFCURVE",
"40 431 OFFCURVE",
"40 264 CURVE SMOOTH",
"40 83 OFFCURVE",
"153 -8 OFFCURVE",
"277 -8 CURVE SMOOTH",
"388 -8 OFFCURVE",
"453 51 OFFCURVE",
"481 97 CURVE",
"434 126 LINE",
"419 100 OFFCURVE",
"369 47 OFFCURVE",
"277 47 CURVE SMOOTH",
"177 47 OFFCURVE",
"111 135 OFFCURVE",
"104 224 CURVE",
"86 224 LINE",
"86 260 LINE",
"122 260 LINE",
"122 242 LINE"
);
},
{
closed = 1;
nodes = (
"86 315 LINE",
"105 315 LINE",
"114 407 OFFCURVE",
"176 478 OFFCURVE",
"278 478 CURVE SMOOTH",
"376 478 OFFCURVE",
"430 412 OFFCURVE",
"439 315 CURVE",
"458 315 LINE",
"458 279 LINE",
"422 279 LINE",
"422 297 LINE",
"122 297 LINE",
"122 279 LINE",
"86 279 LINE"
);
}
);
};
components = (
{
name = acutecomb;
transform = "{1, 0, 0, 1, 125, 0}";
},
{
name = e;
}
);
guideLines = (
{
angle = 90;
position = "{268, 506}";
}
);
layerId = "E773EBAE-783E-4D91-931E-4E5C9CF0967C";
width = 561;
},
{
background = {
paths = (
{
closed = 1;
nodes = (
"526 229 LINE",
"530 249 OFFCURVE",
"531 272 OFFCURVE",
"531 289 CURVE SMOOTH",
"531 428 OFFCURVE",
"429 537 OFFCURVE",
"291 537 CURVE SMOOTH",
"142 537 OFFCURVE",
"30 429 OFFCURVE",
"30 267 CURVE SMOOTH",
"30 84 OFFCURVE",
"156 -12 OFFCURVE",
"291 -12 CURVE SMOOTH",
"408 -12 OFFCURVE",
"461 32 OFFCURVE",
"508 88 CURVE",
"429 149 LINE",
"401 117 OFFCURVE",
"350 101 OFFCURVE",
"300 101 CURVE SMOOTH",
"199 101 OFFCURVE",
"161 167 OFFCURVE",
"161 227 CURVE",
"159 227 LINE",
"159 231 LINE",
"163 231 LINE",
"163 229 LINE"
);
},
{
closed = 1;
nodes = (
"157 321 LINE",
"159 321 LINE",
"159 369 OFFCURVE",
"202 432 OFFCURVE",
"288 432 CURVE SMOOTH",
"370 432 OFFCURVE",
"407 370 OFFCURVE",
"407 321 CURVE",
"409 321 LINE",
"409 317 LINE",
"405 317 LINE",
"405 319 LINE",
"161 319 LINE",
"161 317 LINE",
"157 317 LINE"
);
},
{
closed = 1;
nodes = (
"509 242 LINE",
"511 261 OFFCURVE",
"512 276 OFFCURVE",
"512 296 CURVE SMOOTH",
"512 436 OFFCURVE",
"418 533 OFFCURVE",
"292 533 CURVE SMOOTH",
"154 533 OFFCURVE",
"53 431 OFFCURVE",
"53 264 CURVE SMOOTH",
"53 83 OFFCURVE",
"166 -8 OFFCURVE",
"290 -8 CURVE SMOOTH",
"414 -8 OFFCURVE",
"474 66 OFFCURVE",
"494 97 CURVE",
"448 126 LINE",
"420 89 OFFCURVE",
"382 47 OFFCURVE",
"290 47 CURVE SMOOTH",
"199 47 OFFCURVE",
"121 122 OFFCURVE",
"117 240 CURVE",
"115 240 LINE",
"115 244 LINE",
"119 244 LINE",
"119 242 LINE"
);
},
{
closed = 1;
nodes = (
"115 299 LINE",
"117 299 LINE",
"123 409 OFFCURVE",
"189 478 OFFCURVE",
"292 478 CURVE SMOOTH",
"389 478 OFFCURVE",
"447 412 OFFCURVE",
"453 299 CURVE",
"455 299 LINE",
"455 294 LINE",
"451 294 LINE",
"451 297 LINE",
"119 297 LINE",
"119 294 LINE",
"115 294 LINE"
);
}
);
};
components = (
{
name = acutecomb;
transform = "{1, 0, 0, 1, 122, 0}";
},
{
name = e;
}
);
guideLines = (
{
angle = 90;
position = "{280, 541}";
}
);
layerId = "C89E7CB9-06CC-4D85-8773-832B05BA201B";
width = 580;
}
);
leftMetricsKey = "=o";
rightMetricsKey = "=o";
unicode = 00E9;
},
{
color = 6;
glyphname = f;
lastChange = "2020-05-21 13:00:12 +0000";
layers = (
{
background = {
paths = (
{
closed = 1;
nodes = (
"181 0 LINE",
"181 468 LINE",
"181 472 LINE",
"185 472 LINE",
"185 470 LINE",
"291 470 LINE",
"291 525 LINE",
"185 525 LINE",
"186 523 LINE",
"182 523 LINE",
"181 527 LINE",
"180 583 LINE SMOOTH",
"179 650 OFFCURVE",
"206 683 OFFCURVE",
"275 683 CURVE SMOOTH",
"294 683 OFFCURVE",
"311 680 OFFCURVE",
"338 675 CURVE",
"302 661 LINE",
"305 756 LINE",
"332 735 LINE",
"322 738 OFFCURVE",
"293 743 OFFCURVE",
"268 743 CURVE SMOOTH",
"197 743 OFFCURVE",
"118 712 OFFCURVE",
"119 592 CURVE SMOOTH",
"120 527 LINE",
"121 523 LINE",
"117 523 LINE",
"116 525 LINE",
"30 525 LINE",
"30 470 LINE",
"116 470 LINE",
"116 472 LINE",
"120 472 LINE",
"120 468 LINE",
"120 0 LINE"
);
}
);
};
layerId = "E773EBAE-783E-4D91-931E-4E5C9CF0967C";
paths = (
{
closed = 1;
nodes = (
"178 0 LINE",
"178 468 LINE",
"178 472 LINE",
"182 472 LINE",
"182 470 LINE",
"290 470 LINE",
"290 525 LINE",
"182 525 LINE",
"182 523 LINE",
"178 523 LINE",
"178 527 LINE",
"178 584 LINE SMOOTH",
"178 654 OFFCURVE",
"207 688 OFFCURVE",
"267 688 CURVE SMOOTH",
"289 688 OFFCURVE",
"317 684 OFFCURVE",
"338 676 CURVE",
"305 658 LINE",
"305 756 LINE",
"336 731 LINE",
"317 740 OFFCURVE",
"290 743 OFFCURVE",
"270 743 CURVE SMOOTH",
"197 743 OFFCURVE",
"120 705 OFFCURVE",
"120 592 CURVE SMOOTH",
"120 527 LINE",
"120 523 LINE",
"116 523 LINE",
"116 525 LINE",
"30 525 LINE",
"30 470 LINE",
"116 470 LINE",
"116 472 LINE",
"120 472 LINE",
"120 468 LINE",
"120 0 LINE"
);
}
);
width = 335;
},
{
background = {
paths = (
{
closed = 1;
nodes = (
"260 0 LINE",
"260 403 LINE",
"260 407 LINE",
"264 407 LINE",
"264 405 LINE",
"370 405 LINE",
"370 525 LINE",
"264 525 LINE",
"264 523 LINE",
"260 523 LINE",
"260 527 LINE",
"259 547 LINE SMOOTH",
"256 598 OFFCURVE",
"289 618 OFFCURVE",
"335 618 CURVE SMOOTH",
"361 618 OFFCURVE",
"402 612 OFFCURVE",
"426 594 CURVE",
"389 578 LINE",
"389 760 LINE",
"423 729 LINE",
"415 733 OFFCURVE",
"368 743 OFFCURVE",
"325 743 CURVE SMOOTH",
"206 743 OFFCURVE",
"120 681 OFFCURVE",
"120 547 CURVE SMOOTH",
"120 527 LINE",
"120 523 LINE",
"116 523 LINE",
"116 525 LINE",
"20 525 LINE",
"20 405 LINE",
"116 405 LINE",
"116 407 LINE",
"120 407 LINE",
"120 403 LINE",
"120 0 LINE"
);
}
);
};
layerId = "C89E7CB9-06CC-4D85-8773-832B05BA201B";
paths = (
{
closed = 1;
nodes = (
"256 0 LINE",
"256 403 LINE",
"256 407 LINE",
"260 407 LINE",
"260 405 LINE",
"370 405 LINE",
"370 525 LINE",
"260 525 LINE",
"260 523 LINE",
"256 523 LINE",
"256 527 LINE",
"254 546 LINE SMOOTH",
"249 597 OFFCURVE",
"288 618 OFFCURVE",
"335 618 CURVE SMOOTH",
"371 618 OFFCURVE",
"408 606 OFFCURVE",
"430 596 CURVE",
"389 578 LINE",
"389 760 LINE",
"426 729 LINE",
"411 733 OFFCURVE",
"370 743 OFFCURVE",
"325 743 CURVE SMOOTH",
"215 743 OFFCURVE",
"120 681 OFFCURVE",
"120 547 CURVE SMOOTH",
"120 527 LINE",
"120 523 LINE",
"116 523 LINE",
"116 525 LINE",
"20 525 LINE",
"20 405 LINE",
"116 405 LINE",
"116 407 LINE",
"120 407 LINE",
"120 403 LINE",
"120 0 LINE"
);
}
);
width = 409;
}
);
leftMetricsKey = "=o-20";
rightMetricsKey = "=o-20";
unicode = 0066;
},
{
color = 6;
glyphname = g;
lastChange = "2020-04-27 19:38:21 +0000";
layers = (
{
background = {
paths = (
{
closed = 1;
nodes = (
"387 -218 OFFCURVE",
"492 -159 OFFCURVE",
"492 -48 CURVE SMOOTH",
"492 67 OFFCURVE",
"381 96 OFFCURVE",
"307 96 CURVE SMOOTH",
"162 96 LINE SMOOTH",
"136 96 OFFCURVE",
"111 111 OFFCURVE",
"111 137 CURVE SMOOTH",
"111 168 OFFCURVE",
"146 179 OFFCURVE",
"160 183 CURVE",
"160 187 LINE",
"164 187 LINE",
"174 181 OFFCURVE",
"213 165 OFFCURVE",
"262 165 CURVE SMOOTH",
"387 165 OFFCURVE",
"472 251 OFFCURVE",
"472 347 CURVE SMOOTH",
"472 420 OFFCURVE",
"433 459 OFFCURVE",
"419 471 CURVE",
"415 471 LINE",
"415 475 LINE",
"419 475 LINE",
"433 478 OFFCURVE",
"456 479 OFFCURVE",
"469 479 CURVE SMOOTH",
"486 479 OFFCURVE",
"512 478 OFFCURVE",
"523 476 CURVE",
"510 450 LINE",
"510 558 LINE",
"521 530 LINE",
"511 532 OFFCURVE",
"487 533 OFFCURVE",
"469 533 CURVE SMOOTH",
"428 533 OFFCURVE",
"395 524 OFFCURVE",
"370 511 CURVE",
"344 524 OFFCURVE",
"310 533 OFFCURVE",
"264 533 CURVE SMOOTH",
"146 533 OFFCURVE",
"49 457 OFFCURVE",
"49 347 CURVE SMOOTH",
"49 292 OFFCURVE",
"74 243 OFFCURVE",
"115 212 CURVE",
"89 201 OFFCURVE",
"51 182 OFFCURVE",
"51 134 CURVE SMOOTH",
"51 83 OFFCURVE",
"93 58 OFFCURVE",
"123 50 CURVE",
"127 50 LINE",
"127 46 LINE",
"123 46 LINE",
"65 25 OFFCURVE",
"10 -4 OFFCURVE",
"10 -72 CURVE SMOOTH",
"10 -160 OFFCURVE",
"101 -218 OFFCURVE",
"253 -218 CURVE SMOOTH"
);
},
{
closed = 1;
nodes = (
"135 -163 OFFCURVE",
"70 -128 OFFCURVE",
"70 -73 CURVE SMOOTH",
"70 -29 OFFCURVE",
"113 6 OFFCURVE",
"177 36 CURVE",
"307 36 LINE SMOOTH",
"377 36 OFFCURVE",
"432 13 OFFCURVE",
"432 -48 CURVE SMOOTH",
"432 -120 OFFCURVE",
"353 -163 OFFCURVE",
"248 -163 CURVE SMOOTH"
);
},
{
closed = 1;
nodes = (
"171 220 OFFCURVE",
"109 273 OFFCURVE",
"109 347 CURVE SMOOTH",
"109 423 OFFCURVE",
"170 478 OFFCURVE",
"262 478 CURVE SMOOTH",
"362 478 OFFCURVE",
"412 423 OFFCURVE",
"412 347 CURVE SMOOTH",
"412 273 OFFCURVE",
"346 220 OFFCURVE",
"262 220 CURVE SMOOTH"
);
}
);
};
layerId = "E773EBAE-783E-4D91-931E-4E5C9CF0967C";
paths = (
{
closed = 1;
nodes = (
"390 -218 OFFCURVE",
"492 -159 OFFCURVE",
"492 -48 CURVE SMOOTH",
"492 67 OFFCURVE",
"381 96 OFFCURVE",
"307 96 CURVE SMOOTH",
"162 96 LINE SMOOTH",
"136 96 OFFCURVE",
"111 111 OFFCURVE",
"111 137 CURVE SMOOTH",
"111 168 OFFCURVE",
"146 180 OFFCURVE",
"160 183 CURVE",
"160 187 LINE",
"164 187 LINE",
"174 181 OFFCURVE",
"211 165 OFFCURVE",
"263 165 CURVE SMOOTH",
"371 165 OFFCURVE",
"472 237 OFFCURVE",
"472 350 CURVE SMOOTH",
"472 420 OFFCURVE",
"433 459 OFFCURVE",
"419 471 CURVE",
"415 471 LINE",
"415 475 LINE",
"419 475 LINE",
"433 478 OFFCURVE",
"456 479 OFFCURVE",
"469 479 CURVE SMOOTH",
"484 479 OFFCURVE",
"519 478 OFFCURVE",
"535 474 CURVE",
"510 450 LINE",
"510 558 LINE",
"531 530 LINE",
"516 533 OFFCURVE",
"482 533 OFFCURVE",
"469 533 CURVE SMOOTH",
"428 533 OFFCURVE",
"395 524 OFFCURVE",
"370 511 CURVE",
"344 524 OFFCURVE",
"305 533 OFFCURVE",
"264 533 CURVE SMOOTH",
"144 533 OFFCURVE",
"49 455 OFFCURVE",
"49 347 CURVE SMOOTH",
"49 292 OFFCURVE",
"74 243 OFFCURVE",
"115 212 CURVE",
"89 201 OFFCURVE",
"51 183 OFFCURVE",
"51 134 CURVE SMOOTH",
"51 83 OFFCURVE",
"93 58 OFFCURVE",
"123 50 CURVE",
"127 50 LINE",
"127 46 LINE",
"123 46 LINE",
"65 25 OFFCURVE",
"10 -4 OFFCURVE",
"10 -72 CURVE SMOOTH",
"10 -160 OFFCURVE",
"104 -218 OFFCURVE",
"246 -218 CURVE SMOOTH"
);
},
{
closed = 1;
nodes = (
"147 -163 OFFCURVE",
"70 -135 OFFCURVE",
"70 -74 CURVE SMOOTH",
"70 -18 OFFCURVE",
"136 9 OFFCURVE",
"201 36 CURVE",
"307 36 LINE SMOOTH",
"377 36 OFFCURVE",
"432 13 OFFCURVE",
"432 -49 CURVE SMOOTH",
"432 -117 OFFCURVE",
"367 -163 OFFCURVE",
"243 -163 CURVE SMOOTH"
);
},
{
closed = 1;
nodes = (
"172 220 OFFCURVE",
"109 272 OFFCURVE",
"109 348 CURVE SMOOTH",
"109 422 OFFCURVE",
"168 478 OFFCURVE",
"264 478 CURVE SMOOTH",
"353 478 OFFCURVE",
"412 429 OFFCURVE",
"412 351 CURVE SMOOTH",
"412 266 OFFCURVE",
"341 220 OFFCURVE",
"259 220 CURVE SMOOTH"
);
}
);
width = 540;
},
{
background = {
paths = (
{
closed = 1;
nodes = (
"446 -218 OFFCURVE",
"550 -154 OFFCURVE",
"550 -38 CURVE SMOOTH",
"550 56 OFFCURVE",
"476 118 OFFCURVE",
"338 118 CURVE SMOOTH",
"196 118 LINE SMOOTH",
"152 118 OFFCURVE",
"127 135 OFFCURVE",
"127 159 CURVE SMOOTH",
"127 182 OFFCURVE",
"150 194 OFFCURVE",
"170 195 CURVE",
"170 199 LINE",
"174 199 LINE",
"185 194 OFFCURVE",
"226 183 OFFCURVE",
"280 183 CURVE SMOOTH",
"404 183 OFFCURVE",
"496 255 OFFCURVE",
"496 354 CURVE SMOOTH",
"496 384 OFFCURVE",
"487 414 OFFCURVE",
"470 445 CURVE",
"466 445 LINE",
"466 448 LINE",
"470 448 LINE",
"479 450 OFFCURVE",
"489 451 OFFCURVE",
"505 451 CURVE SMOOTH",
"525 451 OFFCURVE",
"556 447 OFFCURVE",
"575 430 CURVE",
"541 393 LINE",
"541 588 LINE",
"562 528 LINE",
"549 534 OFFCURVE",
"524 536 OFFCURVE",
"488 536 CURVE SMOOTH",
"450 536 OFFCURVE",
"416 528 OFFCURVE",
"392 512 CURVE",
"359 529 OFFCURVE",
"322 539 OFFCURVE",
"280 539 CURVE SMOOTH",
"155 539 OFFCURVE",
"55 466 OFFCURVE",
"55 354 CURVE SMOOTH",
"55 292 OFFCURVE",
"89 253 OFFCURVE",
"121 228 CURVE",
"73 216 OFFCURVE",
"33 175 OFFCURVE",
"33 130 CURVE SMOOTH",
"33 94 OFFCURVE",
"58 53 OFFCURVE",
"111 42 CURVE",
"115 42 LINE",
"115 38 LINE",
"111 38 LINE",
"69 27 OFFCURVE",
"10 -4 OFFCURVE",
"10 -70 CURVE SMOOTH",
"10 -161 OFFCURVE",
"113 -218 OFFCURVE",
"265 -218 CURVE SMOOTH"
);
},
{
closed = 1;
nodes = (
"190 -123 OFFCURVE",
"115 -111 OFFCURVE",
"115 -59 CURVE SMOOTH",
"115 -25 OFFCURVE",
"145 -8 OFFCURVE",
"178 -2 CURVE",
"344 -2 LINE SMOOTH",
"393 -2 OFFCURVE",
"418 -20 OFFCURVE",
"418 -59 CURVE SMOOTH",
"418 -111 OFFCURVE",
"341 -123 OFFCURVE",
"255 -123 CURVE SMOOTH"
);
},
{
closed = 1;
nodes = (
"224 278 OFFCURVE",
"180 307 OFFCURVE",
"180 359 CURVE SMOOTH",
"180 413 OFFCURVE",
"222 439 OFFCURVE",
"278 439 CURVE SMOOTH",
"335 439 OFFCURVE",
"371 410 OFFCURVE",
"371 359 CURVE SMOOTH",
"371 308 OFFCURVE",
"331 278 OFFCURVE",
"278 278 CURVE SMOOTH"
);
}
);
};
layerId = "C89E7CB9-06CC-4D85-8773-832B05BA201B";
paths = (
{
closed = 1;
nodes = (
"446 -218 OFFCURVE",
"550 -150 OFFCURVE",
"550 -38 CURVE SMOOTH",
"550 56 OFFCURVE",
"476 118 OFFCURVE",
"338 118 CURVE SMOOTH",
"196 118 LINE SMOOTH",
"152 118 OFFCURVE",
"127 135 OFFCURVE",
"127 159 CURVE SMOOTH",
"127 182 OFFCURVE",
"150 194 OFFCURVE",
"170 195 CURVE",
"170 199 LINE",
"174 199 LINE",
"185 194 OFFCURVE",
"231 183 OFFCURVE",
"279 183 CURVE SMOOTH",
"403 183 OFFCURVE",
"496 255 OFFCURVE",
"496 354 CURVE SMOOTH",
"496 385 OFFCURVE",
"487 414 OFFCURVE",
"470 445 CURVE",
"466 445 LINE",
"466 448 LINE",
"470 448 LINE",
"483 450 OFFCURVE",
"498 451 OFFCURVE",
"507 451 CURVE SMOOTH",
"525 451 OFFCURVE",
"556 447 OFFCURVE",
"575 430 CURVE",
"541 393 LINE",
"541 588 LINE",
"572 526 LINE",
"546 534 OFFCURVE",
"510 536 OFFCURVE",
"490 536 CURVE SMOOTH",
"450 536 OFFCURVE",
"416 528 OFFCURVE",
"392 512 CURVE",
"374 521 OFFCURVE",
"343 539 OFFCURVE",
"280 539 CURVE SMOOTH",
"155 539 OFFCURVE",
"55 465 OFFCURVE",
"55 356 CURVE SMOOTH",
"55 293 OFFCURVE",
"89 253 OFFCURVE",
"121 228 CURVE",
"73 216 OFFCURVE",
"33 176 OFFCURVE",
"33 130 CURVE SMOOTH",
"33 94 OFFCURVE",
"58 53 OFFCURVE",
"111 42 CURVE",
"115 42 LINE",
"115 38 LINE",
"111 38 LINE",
"69 27 OFFCURVE",
"10 -2 OFFCURVE",
"10 -71 CURVE SMOOTH",
"10 -162 OFFCURVE",
"113 -218 OFFCURVE",
"265 -218 CURVE SMOOTH"
);
},
{
closed = 1;
nodes = (
"178 -123 OFFCURVE",
"115 -106 OFFCURVE",
"115 -58 CURVE SMOOTH",
"115 -25 OFFCURVE",
"145 -8 OFFCURVE",
"178 -2 CURVE",
"345 -2 LINE SMOOTH",
"394 -2 OFFCURVE",
"418 -25 OFFCURVE",
"418 -54 CURVE SMOOTH",
"418 -106 OFFCURVE",
"341 -123 OFFCURVE",
"259 -123 CURVE SMOOTH"
);
},
{
closed = 1;
nodes = (
"223 278 OFFCURVE",
"180 309 OFFCURVE",
"180 361 CURVE SMOOTH",
"180 412 OFFCURVE",
"222 439 OFFCURVE",
"278 439 CURVE SMOOTH",
"342 439 OFFCURVE",
"371 404 OFFCURVE",
"371 360 CURVE SMOOTH",
"371 307 OFFCURVE",
"330 278 OFFCURVE",
"277 278 CURVE SMOOTH"
);
}
);
width = 580;
}
);
leftMetricsKey = "=10";
rightMetricsKey = "=30";
unicode = 0067;
},
{
glyphname = g.alt1;
lastChange = "2020-03-14 10:08:22 +0000";
layers = (
{
background = {
paths = (
{
closed = 1;
nodes = (
"387 -218 OFFCURVE",
"492 -156 OFFCURVE",
"492 -62 CURVE SMOOTH",
"492 32 OFFCURVE",
"414 53 OFFCURVE",
"376 59 CURVE SMOOTH",
"162 95 LINE SMOOTH",
"136 99 OFFCURVE",
"111 113 OFFCURVE",
"111 137 CURVE SMOOTH",
"111 168 OFFCURVE",
"146 179 OFFCURVE",
"160 183 CURVE",
"160 187 LINE",
"164 187 LINE",
"164 185 LINE",
"177 177 OFFCURVE",
"210 165 OFFCURVE",
"259 165 CURVE SMOOTH",
"384 165 OFFCURVE",
"472 251 OFFCURVE",
"472 347 CURVE SMOOTH",
"472 420 OFFCURVE",
"433 459 OFFCURVE",
"419 471 CURVE",
"415 471 LINE",
"415 475 LINE",
"419 475 LINE",
"433 478 OFFCURVE",
"456 479 OFFCURVE",
"469 479 CURVE SMOOTH",
"486 479 OFFCURVE",
"512 478 OFFCURVE",
"523 476 CURVE",
"510 450 LINE",
"510 558 LINE",
"521 530 LINE",
"511 532 OFFCURVE",
"487 533 OFFCURVE",
"469 533 CURVE SMOOTH",
"428 533 OFFCURVE",
"395 524 OFFCURVE",
"370 511 CURVE",
"344 524 OFFCURVE",
"310 533 OFFCURVE",
"264 533 CURVE SMOOTH",
"146 533 OFFCURVE",
"49 457 OFFCURVE",
"49 347 CURVE SMOOTH",
"49 292 OFFCURVE",
"74 243 OFFCURVE",
"115 212 CURVE",
"89 201 OFFCURVE",
"51 178 OFFCURVE",
"51 134 CURVE SMOOTH",
"51 83 OFFCURVE",
"93 58 OFFCURVE",
"123 50 CURVE",
"127 50 LINE",
"127 46 LINE",
"123 46 LINE",
"65 25 OFFCURVE",
"10 -17 OFFCURVE",
"10 -69 CURVE SMOOTH",
"10 -160 OFFCURVE",
"101 -218 OFFCURVE",
"253 -218 CURVE SMOOTH"
);
},
{
closed = 1;
nodes = (
"135 -166 OFFCURVE",
"70 -128 OFFCURVE",
"70 -73 CURVE SMOOTH",
"70 -29 OFFCURVE",
"113 6 OFFCURVE",
"179 38 CURVE",
"364 6 LINE SMOOTH",
"400 0 OFFCURVE",
"432 -13 OFFCURVE",
"432 -62 CURVE SMOOTH",
"432 -122 OFFCURVE",
"350 -166 OFFCURVE",
"253 -166 CURVE SMOOTH"
);
},
{
closed = 1;
nodes = (
"171 220 OFFCURVE",
"109 273 OFFCURVE",
"109 347 CURVE SMOOTH",
"109 423 OFFCURVE",
"170 478 OFFCURVE",
"262 478 CURVE SMOOTH",
"362 478 OFFCURVE",
"412 423 OFFCURVE",
"412 347 CURVE SMOOTH",
"412 273 OFFCURVE",
"346 220 OFFCURVE",
"262 220 CURVE SMOOTH"
);
}
);
};
layerId = "E773EBAE-783E-4D91-931E-4E5C9CF0967C";
paths = (
{
closed = 1;
nodes = (
"387 -218 OFFCURVE",
"492 -156 OFFCURVE",
"492 -62 CURVE SMOOTH",
"492 30 OFFCURVE",
"414 54 OFFCURVE",
"376 60 CURVE SMOOTH",
"162 96 LINE SMOOTH",
"136 100 OFFCURVE",
"111 113 OFFCURVE",
"111 137 CURVE SMOOTH",
"111 168 OFFCURVE",
"146 179 OFFCURVE",
"160 183 CURVE",
"160 187 LINE",
"164 187 LINE",
"174 181 OFFCURVE",
"213 165 OFFCURVE",
"262 165 CURVE SMOOTH",
"387 165 OFFCURVE",
"472 251 OFFCURVE",
"472 347 CURVE SMOOTH",
"472 420 OFFCURVE",
"433 459 OFFCURVE",
"419 471 CURVE",
"415 471 LINE",
"415 475 LINE",
"419 475 LINE",
"433 478 OFFCURVE",
"456 479 OFFCURVE",
"469 479 CURVE SMOOTH",
"486 479 OFFCURVE",
"512 478 OFFCURVE",
"523 476 CURVE",
"510 450 LINE",
"510 558 LINE",
"521 530 LINE",
"511 532 OFFCURVE",
"487 533 OFFCURVE",
"469 533 CURVE SMOOTH",
"428 533 OFFCURVE",
"395 524 OFFCURVE",
"370 511 CURVE",
"344 524 OFFCURVE",
"310 533 OFFCURVE",
"264 533 CURVE SMOOTH",
"146 533 OFFCURVE",
"49 457 OFFCURVE",
"49 347 CURVE SMOOTH",
"49 292 OFFCURVE",
"74 243 OFFCURVE",
"115 212 CURVE",
"89 201 OFFCURVE",
"51 178 OFFCURVE",
"51 134 CURVE SMOOTH",
"51 83 OFFCURVE",
"93 58 OFFCURVE",
"123 50 CURVE",
"127 50 LINE",
"127 46 LINE",
"123 46 LINE",
"65 25 OFFCURVE",
"10 -17 OFFCURVE",
"10 -72 CURVE SMOOTH",
"10 -160 OFFCURVE",
"101 -218 OFFCURVE",
"253 -218 CURVE SMOOTH"
);
},
{
closed = 1;
nodes = (
"135 -166 OFFCURVE",
"70 -128 OFFCURVE",
"70 -73 CURVE SMOOTH",
"70 -29 OFFCURVE",
"113 6 OFFCURVE",
"179 38 CURVE",
"364 6 LINE SMOOTH",
"400 0 OFFCURVE",
"432 -15 OFFCURVE",
"432 -62 CURVE SMOOTH",
"432 -122 OFFCURVE",
"350 -166 OFFCURVE",
"253 -166 CURVE SMOOTH"
);
},
{
closed = 1;
nodes = (
"171 220 OFFCURVE",
"109 273 OFFCURVE",
"109 347 CURVE SMOOTH",
"109 423 OFFCURVE",
"170 478 OFFCURVE",
"262 478 CURVE SMOOTH",
"362 478 OFFCURVE",
"412 423 OFFCURVE",
"412 347 CURVE SMOOTH",
"412 273 OFFCURVE",
"346 220 OFFCURVE",
"262 220 CURVE SMOOTH"
);
}
);
width = 540;
},
{
background = {
paths = (
{
closed = 1;
nodes = (
"344 533 OFFCURVE",
"389 505 OFFCURVE",
"415 475 CURVE",
"415 473 LINE",
"415 471 LINE",
"419 471 LINE",
"433 459 OFFCURVE",
"472 420 OFFCURVE",
"472 347 CURVE SMOOTH",
"472 251 OFFCURVE",
"384 165 OFFCURVE",
"259 165 CURVE SMOOTH",
"210 165 OFFCURVE",
"177 177 OFFCURVE",
"164 185 CURVE",
"164 187 LINE",
"160 187 LINE",
"93 213 OFFCURVE",
"49 274 OFFCURVE",
"49 347 CURVE SMOOTH",
"49 457 OFFCURVE",
"146 533 OFFCURVE",
"264 533 CURVE SMOOTH"
);
},
{
closed = 1;
nodes = (
"412 423 OFFCURVE",
"362 478 OFFCURVE",
"264 478 CURVE SMOOTH",
"170 478 OFFCURVE",
"114 423 OFFCURVE",
"114 347 CURVE SMOOTH",
"114 273 OFFCURVE",
"171 220 OFFCURVE",
"259 220 CURVE SMOOTH",
"346 220 OFFCURVE",
"412 273 OFFCURVE",
"412 347 CURVE SMOOTH"
);
},
{
closed = 1;
nodes = (
"140 45 LINE",
"127 46 LINE",
"127 50 LINE",
"123 50 LINE",
"93 58 OFFCURVE",
"51 83 OFFCURVE",
"51 134 CURVE SMOOTH",
"51 189 OFFCURVE",
"111 211 OFFCURVE",
"132 218 CURVE",
"175 193 LINE",
"164 187 LINE",
"160 187 LINE",
"160 183 LINE",
"142 176 OFFCURVE",
"116 163 OFFCURVE",
"116 137 CURVE SMOOTH",
"116 114 OFFCURVE",
"137 101 OFFCURVE",
"162 95 CURVE"
);
},
{
closed = 1;
nodes = (
"386 521 OFFCURVE",
"422 533 OFFCURVE",
"469 533 CURVE SMOOTH",
"490 533 OFFCURVE",
"504 532 OFFCURVE",
"508 531 CURVE",
"508 477 LINE",
"504 478 OFFCURVE",
"484 479 OFFCURVE",
"469 479 CURVE SMOOTH",
"456 479 OFFCURVE",
"430 478 OFFCURVE",
"419 475 CURVE",
"417 475 LINE",
"415 475 LINE",
"400 469 LINE",
"360 505 LINE"
);
},
{
closed = 1;
nodes = (
"413 53 OFFCURVE",
"491 32 OFFCURVE",
"491 -62 CURVE SMOOTH",
"491 -156 OFFCURVE",
"377 -218 OFFCURVE",
"253 -218 CURVE SMOOTH",
"86 -218 OFFCURVE",
"12 -148 OFFCURVE",
"12 -64 CURVE SMOOTH",
"12 -12 OFFCURVE",
"65 25 OFFCURVE",
"123 46 CURVE",
"127 46 LINE",
"127 50 LINE",
"162 95 LINE",
"375 59 LINE SMOOTH"
);
},
{
closed = 1;
nodes = (
"338 -164 OFFCURVE",
"431 -122 OFFCURVE",
"431 -62 CURVE SMOOTH",
"431 -13 OFFCURVE",
"399 -1 OFFCURVE",
"363 5 CURVE SMOOTH",
"179 38 LINE",
"113 6 OFFCURVE",
"77 -24 OFFCURVE",
"77 -65 CURVE SMOOTH",
"77 -114 OFFCURVE",
"137 -164 OFFCURVE",
"253 -164 CURVE SMOOTH"
);
}
);
};
layerId = "C89E7CB9-06CC-4D85-8773-832B05BA201B";
paths = (
{
closed = 1;
nodes = (
"402 -218 OFFCURVE",
"517 -154 OFFCURVE",
"517 -58 CURVE SMOOTH",
"517 29 OFFCURVE",
"456 69 OFFCURVE",
"378 84 CURVE SMOOTH",
"186 120 LINE SMOOTH",
"142 128 OFFCURVE",
"117 134 OFFCURVE",
"117 159 CURVE SMOOTH",
"117 182 OFFCURVE",
"140 194 OFFCURVE",
"160 195 CURVE",
"160 199 LINE",
"164 199 LINE",
"175 194 OFFCURVE",
"216 183 OFFCURVE",
"270 183 CURVE SMOOTH",
"394 183 OFFCURVE",
"486 255 OFFCURVE",
"486 354 CURVE SMOOTH",
"486 384 OFFCURVE",
"477 414 OFFCURVE",
"460 445 CURVE",
"456 445 LINE",
"456 448 LINE",
"460 448 LINE",
"469 450 OFFCURVE",
"479 451 OFFCURVE",
"495 451 CURVE SMOOTH",
"515 451 OFFCURVE",
"546 447 OFFCURVE",
"565 430 CURVE",
"527 393 LINE",
"527 588 LINE",
"552 528 LINE",
"539 534 OFFCURVE",
"514 536 OFFCURVE",
"478 536 CURVE SMOOTH",
"440 536 OFFCURVE",
"406 528 OFFCURVE",
"382 512 CURVE",
"349 529 OFFCURVE",
"312 539 OFFCURVE",
"270 539 CURVE SMOOTH",
"145 539 OFFCURVE",
"45 466 OFFCURVE",
"45 354 CURVE SMOOTH",
"45 292 OFFCURVE",
"79 253 OFFCURVE",
"111 228 CURVE",
"63 216 OFFCURVE",
"23 175 OFFCURVE",
"23 130 CURVE SMOOTH",
"23 94 OFFCURVE",
"48 53 OFFCURVE",
"101 42 CURVE",
"105 42 LINE",
"105 38 LINE",
"101 38 LINE",
"59 27 OFFCURVE",
"0 -12 OFFCURVE",
"0 -70 CURVE SMOOTH",
"0 -159 OFFCURVE",
"101 -218 OFFCURVE",
"253 -218 CURVE SMOOTH"
);
},
{
closed = 1;
nodes = (
"171 -123 OFFCURVE",
"92 -109 OFFCURVE",
"92 -49 CURVE SMOOTH",
"92 -26 OFFCURVE",
"120 2 OFFCURVE",
"167 22 CURVE",
"325 -7 LINE SMOOTH",
"381 -17 OFFCURVE",
"402 -32 OFFCURVE",
"402 -66 CURVE SMOOTH",
"402 -109 OFFCURVE",
"322 -123 OFFCURVE",
"252 -123 CURVE SMOOTH"
);
},
{
closed = 1;
nodes = (
"212 278 OFFCURVE",
"155 307 OFFCURVE",
"155 359 CURVE SMOOTH",
"155 413 OFFCURVE",
"212 439 OFFCURVE",
"268 439 CURVE SMOOTH",
"322 439 OFFCURVE",
"376 410 OFFCURVE",
"376 359 CURVE SMOOTH",
"376 311 OFFCURVE",
"321 278 OFFCURVE",
"268 278 CURVE SMOOTH"
);
}
);
width = 560;
}
);
},
{
color = 7;
glyphname = g.ss02;
lastChange = "2020-05-21 16:26:05 +0000";
layers = (
{
background = {
paths = (
{
closed = 1;
nodes = (
"391 -207 OFFCURVE",
"510 -128 OFFCURVE",
"510 20 CURVE SMOOTH",
"510 525 LINE",
"460 525 LINE",
"450 433 LINE",
"450 429 LINE",
"446 429 LINE",
"446 431 LINE",
"419 478 OFFCURVE",
"368 533 OFFCURVE",
"267 533 CURVE SMOOTH",
"146 533 OFFCURVE",
"50 424 OFFCURVE",
"50 262 CURVE SMOOTH",
"50 100 OFFCURVE",
"146 0 OFFCURVE",
"267 0 CURVE SMOOTH",
"360 0 OFFCURVE",
"417 58 OFFCURVE",
"446 108 CURVE",
"446 110 LINE",
"450 110 LINE",
"450 106 LINE",
"450 10 LINE SMOOTH",
"450 -91 OFFCURVE",
"361 -147 OFFCURVE",
"268 -147 CURVE SMOOTH",
"218 -147 OFFCURVE",
"167 -134 OFFCURVE",
"127 -99 CURVE",
"92 -143 LINE",
"142 -189 OFFCURVE",
"205 -207 OFFCURVE",
"267 -207 CURVE SMOOTH"
);
},
{
closed = 1;
nodes = (
"189 60 OFFCURVE",
"115 132 OFFCURVE",
"115 262 CURVE SMOOTH",
"115 391 OFFCURVE",
"189 473 OFFCURVE",
"280 473 CURVE SMOOTH",
"385 473 OFFCURVE",
"450 392 OFFCURVE",
"450 266 CURVE SMOOTH",
"450 146 OFFCURVE",
"380 60 OFFCURVE",
"280 60 CURVE SMOOTH"
);
}
);
};
layerId = "E773EBAE-783E-4D91-931E-4E5C9CF0967C";
paths = (
{
closed = 1;
nodes = (
"391 -207 OFFCURVE",
"510 -128 OFFCURVE",
"510 20 CURVE SMOOTH",
"510 525 LINE",
"460 525 LINE",
"450 433 LINE",
"450 429 LINE",
"446 429 LINE",
"446 431 LINE",
"418 483 OFFCURVE",
"353 533 OFFCURVE",
"269 533 CURVE SMOOTH",
"145 533 OFFCURVE",
"50 424 OFFCURVE",
"50 262 CURVE SMOOTH",
"50 100 OFFCURVE",
"146 0 OFFCURVE",
"267 0 CURVE SMOOTH",
"360 0 OFFCURVE",
"417 58 OFFCURVE",
"446 108 CURVE",
"446 110 LINE",
"450 110 LINE",
"450 106 LINE",
"450 10 LINE SMOOTH",
"450 -91 OFFCURVE",
"361 -147 OFFCURVE",
"268 -147 CURVE SMOOTH",
"208 -147 OFFCURVE",
"162 -123 OFFCURVE",
"113 -81 CURVE",
"144 -78 LINE",
"75 -164 LINE",
"78 -130 LINE",
"130 -185 OFFCURVE",
"201 -207 OFFCURVE",
"267 -207 CURVE SMOOTH"
);
},
{
closed = 1;
nodes = (
"189 60 OFFCURVE",
"115 132 OFFCURVE",
"115 262 CURVE SMOOTH",
"115 400 OFFCURVE",
"196 473 OFFCURVE",
"283 473 CURVE SMOOTH",
"369 473 OFFCURVE",
"450 402 OFFCURVE",
"450 268 CURVE SMOOTH",
"450 146 OFFCURVE",
"380 60 OFFCURVE",
"280 60 CURVE SMOOTH"
);
}
);
width = 590;
},
{
background = {
paths = (
{
closed = 1;
nodes = (
"412 -211 OFFCURVE",
"560 -135 OFFCURVE",
"560 46 CURVE SMOOTH",
"560 525 LINE",
"435 525 LINE",
"425 435 LINE",
"425 431 LINE",
"421 431 LINE",
"421 433 LINE",
"401 477 OFFCURVE",
"345 537 OFFCURVE",
"254 537 CURVE SMOOTH",
"136 537 OFFCURVE",
"40 436 OFFCURVE",
"40 260 CURVE SMOOTH",
"40 101 OFFCURVE",
"122 0 OFFCURVE",
"252 0 CURVE SMOOTH",
"344 0 OFFCURVE",
"394 50 OFFCURVE",
"421 111 CURVE",
"421 113 LINE",
"425 113 LINE",
"425 109 LINE",
"425 46 LINE SMOOTH",
"425 -58 OFFCURVE",
"348 -93 OFFCURVE",
"274 -93 CURVE SMOOTH",
"188 -93 OFFCURVE",
"155 -75 OFFCURVE",
"101 -44 CURVE",
"160 -10 LINE",
"58 -207 LINE",
"65 -140 LINE",
"101 -172 OFFCURVE",
"186 -211 OFFCURVE",
"288 -211 CURVE SMOOTH"
);
},
{
closed = 1;
nodes = (
"239 115 OFFCURVE",
"180 155 OFFCURVE",
"180 259 CURVE SMOOTH",
"180 361 OFFCURVE",
"237 422 OFFCURVE",
"301 422 CURVE SMOOTH",
"378 422 OFFCURVE",
"425 360 OFFCURVE",
"425 277 CURVE SMOOTH",
"425 162 OFFCURVE",
"359 115 OFFCURVE",
"301 115 CURVE SMOOTH"
);
}
);
};
layerId = "C89E7CB9-06CC-4D85-8773-832B05BA201B";
paths = (
{
closed = 1;
nodes = (
"417 -213 OFFCURVE",
"560 -135 OFFCURVE",
"560 46 CURVE SMOOTH",
"560 525 LINE",
"435 525 LINE",
"425 435 LINE",
"425 431 LINE",
"421 431 LINE",
"421 433 LINE",
"401 477 OFFCURVE",
"345 537 OFFCURVE",
"254 537 CURVE SMOOTH",
"136 537 OFFCURVE",
"40 436 OFFCURVE",
"40 260 CURVE SMOOTH",
"40 101 OFFCURVE",
"122 0 OFFCURVE",
"252 0 CURVE SMOOTH",
"344 0 OFFCURVE",
"394 50 OFFCURVE",
"421 111 CURVE",
"421 113 LINE",
"425 113 LINE",
"425 109 LINE",
"425 56 LINE SMOOTH",
"425 -48 OFFCURVE",
"351 -93 OFFCURVE",
"273 -93 CURVE SMOOTH",
"234 -93 OFFCURVE",
"171 -82 OFFCURVE",
"106 -33 CURVE",
"170 -17 LINE",
"53 -187 LINE",
"49 -128 LINE",
"106 -186 OFFCURVE",
"198 -213 OFFCURVE",
"277 -213 CURVE SMOOTH"
);
},
{
closed = 1;
nodes = (
"243 115 OFFCURVE",
"180 153 OFFCURVE",
"180 262 CURVE SMOOTH",
"180 353 OFFCURVE",
"225 422 OFFCURVE",
"303 422 CURVE SMOOTH",
"380 422 OFFCURVE",
"425 355 OFFCURVE",
"425 272 CURVE SMOOTH",
"425 173 OFFCURVE",
"360 115 OFFCURVE",
"295 115 CURVE SMOOTH"
);
}
);
width = 630;
}
);
leftMetricsKey = "=o";
rightMetricsKey = "=n-10";
},
{
color = 6;
glyphname = h;
lastChange = "2020-05-15 09:19:42 +0000";
layers = (
{
background = {
paths = (
{
closed = 1;
nodes = (
"150 0 LINE",
"150 315 LINE SMOOTH",
"150 437 OFFCURVE",
"246 478 OFFCURVE",
"310 478 CURVE SMOOTH",
"401 478 OFFCURVE",
"450 425 OFFCURVE",
"450 325 CURVE SMOOTH",
"450 0 LINE",
"510 0 LINE",
"510 341 LINE SMOOTH",
"510 463 OFFCURVE",
"444 533 OFFCURVE",
"333 533 CURVE SMOOTH",
"228 533 OFFCURVE",
"172 471 OFFCURVE",
"154 434 CURVE",
"154 432 LINE",
"150 432 LINE",
"150 436 LINE",
"150 735 LINE",
"90 735 LINE",
"90 0 LINE"
);
}
);
};
layerId = "E773EBAE-783E-4D91-931E-4E5C9CF0967C";
paths = (
{
closed = 1;
nodes = (
"150 0 LINE",
"150 315 LINE SMOOTH",
"150 437 OFFCURVE",
"246 478 OFFCURVE",
"318 478 CURVE SMOOTH",
"400 478 OFFCURVE",
"450 425 OFFCURVE",
"450 325 CURVE SMOOTH",
"450 0 LINE",
"510 0 LINE",
"510 341 LINE SMOOTH",
"510 463 OFFCURVE",
"444 533 OFFCURVE",
"333 533 CURVE SMOOTH",
"228 533 OFFCURVE",
"172 471 OFFCURVE",
"154 434 CURVE",
"154 432 LINE",
"150 432 LINE",
"150 436 LINE",
"150 735 LINE",
"90 735 LINE",
"90 0 LINE"
);
}
);
width = 600;
},
{
background = {
paths = (
{
closed = 1;
nodes = (
"220 0 LINE",
"220 290 LINE SMOOTH",
"220 381 OFFCURVE",
"278 419 OFFCURVE",
"328 419 CURVE SMOOTH",
"388 419 OFFCURVE",
"430 388 OFFCURVE",
"430 299 CURVE SMOOTH",
"430 0 LINE",
"570 0 LINE",
"570 333 LINE SMOOTH",
"570 457 OFFCURVE",
"512 537 OFFCURVE",
"386 537 CURVE SMOOTH",
"277 537 OFFCURVE",
"232 459 OFFCURVE",
"224 441 CURVE",
"224 439 LINE",
"220 439 LINE",
"220 443 LINE",
"220 743 LINE",
"80 743 LINE",
"80 0 LINE"
);
}
);
};
layerId = "C89E7CB9-06CC-4D85-8773-832B05BA201B";
paths = (
{
closed = 1;
nodes = (
"220 0 LINE",
"220 290 LINE SMOOTH",
"220 381 OFFCURVE",
"277 419 OFFCURVE",
"334 419 CURVE SMOOTH",
"386 419 OFFCURVE",
"430 388 OFFCURVE",
"430 299 CURVE SMOOTH",
"430 0 LINE",
"570 0 LINE",
"570 333 LINE SMOOTH",
"570 457 OFFCURVE",
"509 537 OFFCURVE",
"391 537 CURVE SMOOTH",
"274 537 OFFCURVE",
"232 459 OFFCURVE",
"224 441 CURVE",
"224 439 LINE",
"220 439 LINE",
"220 443 LINE",
"220 743 LINE",
"80 743 LINE",
"80 0 LINE"
);
}
);
width = 650;
}
);
leftMetricsKey = "=n";
rightMetricsKey = "=n";
unicode = 0068;
},
{
color = 6;
glyphname = i;
lastChange = "2020-05-28 09:42:36 +0000";
layers = (
{
background = {
paths = (
{
closed = 1;
nodes = (
"138 630 LINE",
"138 648 LINE",
"156 648 LINE",
"156 708 LINE",
"138 708 LINE",
"138 726 LINE",
"78 726 LINE",
"78 708 LINE",
"60 708 LINE",
"60 648 LINE",
"78 648 LINE",
"78 630 LINE"
);
}
);
};
components = (
{
name = idotless;
}
);
layerId = "E773EBAE-783E-4D91-931E-4E5C9CF0967C";
paths = (
{
closed = 1;
nodes = (
"135 630 OFFCURVE",
"156 651 OFFCURVE",
"156 678 CURVE SMOOTH",
"156 705 OFFCURVE",
"135 726 OFFCURVE",
"108 726 CURVE SMOOTH",
"81 726 OFFCURVE",
"60 705 OFFCURVE",
"60 678 CURVE SMOOTH",
"60 651 OFFCURVE",
"81 630 OFFCURVE",
"108 630 CURVE SMOOTH"
);
}
);
width = 216;
},
{
background = {
paths = (
{
closed = 1;
nodes = (
"185 615 LINE",
"185 643 LINE",
"213 643 LINE",
"213 743 LINE",
"185 743 LINE",
"185 771 LINE",
"85 771 LINE",
"85 743 LINE",
"57 743 LINE",
"57 643 LINE",
"85 643 LINE",
"85 615 LINE"
);
}
);
};
components = (
{
name = idotless;
}
);
layerId = "C89E7CB9-06CC-4D85-8773-832B05BA201B";
paths = (
{
closed = 1;
nodes = (
"182 608 OFFCURVE",
"220 646 OFFCURVE",
"220 693 CURVE SMOOTH",
"220 740 OFFCURVE",
"182 778 OFFCURVE",
"135 778 CURVE SMOOTH",
"88 778 OFFCURVE",
"50 740 OFFCURVE",
"50 693 CURVE SMOOTH",
"50 646 OFFCURVE",
"88 608 OFFCURVE",
"135 608 CURVE SMOOTH"
);
}
);
width = 270;
}
);
unicode = 0069;
},
{
color = 7;
glyphname = i.ss20;
lastChange = "2020-05-11 18:43:13 +0000";
layers = (
{
background = {
paths = (
{
closed = 1;
nodes = (
"141 630 OFFCURVE",
"162 651 OFFCURVE",
"162 678 CURVE SMOOTH",
"162 705 OFFCURVE",
"141 726 OFFCURVE",
"114 726 CURVE SMOOTH",
"87 726 OFFCURVE",
"66 705 OFFCURVE",
"66 678 CURVE SMOOTH",
"66 651 OFFCURVE",
"87 630 OFFCURVE",
"114 630 CURVE SMOOTH"
);
}
);
};
layerId = "E773EBAE-783E-4D91-931E-4E5C9CF0967C";
paths = (
{
closed = 1;
nodes = (
"143 0 LINE",
"143 525 LINE",
"83 525 LINE",
"83 0 LINE"
);
},
{
closed = 1;
nodes = (
"156 633 LINE",
"156 719 LINE",
"70 719 LINE",
"70 633 LINE"
);
}
);
width = 226;
},
{
background = {
paths = (
{
closed = 1;
nodes = (
"201 610 OFFCURVE",
"238 647 OFFCURVE",
"238 693 CURVE SMOOTH",
"238 739 OFFCURVE",
"201 776 OFFCURVE",
"155 776 CURVE SMOOTH",
"109 776 OFFCURVE",
"72 739 OFFCURVE",
"72 693 CURVE SMOOTH",
"72 647 OFFCURVE",
"109 610 OFFCURVE",
"155 610 CURVE SMOOTH"
);
}
);
};
layerId = "C89E7CB9-06CC-4D85-8773-832B05BA201B";
paths = (
{
closed = 1;
nodes = (
"204 0 LINE",
"204 538 LINE",
"64 538 LINE",
"64 0 LINE"
);
},
{
closed = 1;
nodes = (
"208 614 LINE",
"208 762 LINE",
"60 762 LINE",
"60 614 LINE"
);
}
);
width = 268;
}
);
leftMetricsKey = "=i+10";
rightMetricsKey = "=i+10";
},
{
color = 3;
glyphname = idotless;
lastChange = "2020-05-28 09:44:05 +0000";
layers = (
{
layerId = "E773EBAE-783E-4D91-931E-4E5C9CF0967C";
paths = (
{
closed = 1;
nodes = (
"120 0 LINE",
"120 525 LINE",
"60 525 LINE",
"60 0 LINE"
);
}
);
width = 180;
},
{
layerId = "C89E7CB9-06CC-4D85-8773-832B05BA201B";
paths = (
{
closed = 1;
nodes = (
"190 0 LINE",
"190 538 LINE",
"50 538 LINE",
"50 0 LINE"
);
}
);
width = 240;
}
);
leftMetricsKey = "=i";
rightMetricsKey = "=i";
unicode = 0131;
},
{
color = 6;
glyphname = j;
lastChange = "2020-05-11 18:44:45 +0000";
layers = (
{
background = {
paths = (
{
closed = 1;
nodes = (
"128 630 LINE",
"152 630 LINE",
"170 630 LINE",
"170 648 LINE",
"188 648 LINE",
"188 666 LINE",
"188 690 LINE",
"188 708 LINE",
"170 708 LINE",
"170 726 LINE",
"152 726 LINE",
"128 726 LINE",
"110 726 LINE",
"110 708 LINE",
"92 708 LINE",
"92 690 LINE",
"92 666 LINE",
"92 648 LINE",
"110 648 LINE",
"110 630 LINE"
);
}
);
};
layerId = "E773EBAE-783E-4D91-931E-4E5C9CF0967C";
paths = (
{
closed = 1;
nodes = (
"-17 -152 LINE",
"-5 -155 OFFCURVE",
"11 -156 OFFCURVE",
"27 -156 CURVE SMOOTH",
"99 -156 OFFCURVE",
"170 -137 OFFCURVE",
"170 -15 CURVE SMOOTH",
"170 525 LINE",
"110 525 LINE",
"110 -15 LINE SMOOTH",
"110 -89 OFFCURVE",
"81 -103 OFFCURVE",
"22 -103 CURVE SMOOTH",
"6 -103 OFFCURVE",
"-8 -102 OFFCURVE",
"-19 -100 CURVE",
"10 -76 LINE",
"10 -188 LINE"
);
},
{
closed = 1;
nodes = (
"167 630 OFFCURVE",
"188 651 OFFCURVE",
"188 678 CURVE SMOOTH",
"188 704 OFFCURVE",
"166 726 OFFCURVE",
"140 726 CURVE SMOOTH",
"113 726 OFFCURVE",
"92 705 OFFCURVE",
"92 678 CURVE SMOOTH",
"92 651 OFFCURVE",
"113 630 OFFCURVE",
"140 630 CURVE SMOOTH"
);
}
);
width = 248;
},
{
background = {
paths = (
{
closed = 1;
nodes = (
"128 615 LINE",
"212 615 LINE",
"212 633 LINE",
"230 633 LINE",
"230 651 LINE",
"248 651 LINE",
"248 735 LINE",
"230 735 LINE",
"230 753 LINE",
"212 753 LINE",
"212 771 LINE",
"128 771 LINE",
"128 753 LINE",
"110 753 LINE",
"110 735 LINE",
"92 735 LINE",
"92 651 LINE",
"110 651 LINE",
"110 633 LINE",
"128 633 LINE"
);
}
);
};
layerId = "C89E7CB9-06CC-4D85-8773-832B05BA201B";
paths = (
{
closed = 1;
nodes = (
"-51 -173 LINE",
"-21 -177 OFFCURVE",
"12 -179 OFFCURVE",
"35 -179 CURVE SMOOTH",
"150 -179 OFFCURVE",
"240 -124 OFFCURVE",
"240 8 CURVE SMOOTH",
"240 538 LINE",
"100 538 LINE",
"100 18 LINE SMOOTH",
"100 -34 OFFCURVE",
"62 -50 OFFCURVE",
"13 -50 CURVE SMOOTH",
"-4 -50 OFFCURVE",
"-27 -48 OFFCURVE",
"-48 -44 CURVE",
"0 6 LINE",
"0 -239 LINE"
);
},
{
closed = 1;
nodes = (
"217 608 OFFCURVE",
"255 646 OFFCURVE",
"255 693 CURVE SMOOTH",
"255 740 OFFCURVE",
"217 778 OFFCURVE",
"170 778 CURVE SMOOTH",
"123 778 OFFCURVE",
"85 740 OFFCURVE",
"85 693 CURVE SMOOTH",
"85 646 OFFCURVE",
"123 608 OFFCURVE",
"170 608 CURVE SMOOTH"
);
}
);
width = 305;
}
);
rightMetricsKey = "=i";
unicode = 006A;
},
{
color = 7;
glyphname = j.ss20;
lastChange = "2020-05-11 18:44:51 +0000";
layers = (
{
background = {
paths = (
{
closed = 1;
nodes = (
"167 630 OFFCURVE",
"188 651 OFFCURVE",
"188 678 CURVE SMOOTH",
"188 704 OFFCURVE",
"166 726 OFFCURVE",
"140 726 CURVE SMOOTH",
"113 726 OFFCURVE",
"92 705 OFFCURVE",
"92 678 CURVE SMOOTH",
"92 651 OFFCURVE",
"113 630 OFFCURVE",
"140 630 CURVE SMOOTH"
);
}
);
};
layerId = "E773EBAE-783E-4D91-931E-4E5C9CF0967C";
paths = (
{
closed = 1;
nodes = (
"-17 -152 LINE",
"-5 -155 OFFCURVE",
"11 -156 OFFCURVE",
"27 -156 CURVE SMOOTH",
"99 -156 OFFCURVE",
"170 -137 OFFCURVE",
"170 -15 CURVE SMOOTH",
"170 525 LINE",
"110 525 LINE",
"110 -15 LINE SMOOTH",
"110 -89 OFFCURVE",
"81 -103 OFFCURVE",
"22 -103 CURVE SMOOTH",
"6 -103 OFFCURVE",
"-8 -102 OFFCURVE",
"-19 -100 CURVE",
"10 -76 LINE",
"10 -188 LINE"
);
},
{
closed = 1;
nodes = (
"183 633 LINE",
"183 719 LINE",
"97 719 LINE",
"97 633 LINE"
);
}
);
width = 253;
},
{
background = {
paths = (
{
closed = 1;
nodes = (
"216 610 OFFCURVE",
"253 647 OFFCURVE",
"253 693 CURVE SMOOTH",
"253 739 OFFCURVE",
"216 776 OFFCURVE",
"170 776 CURVE SMOOTH",
"124 776 OFFCURVE",
"87 739 OFFCURVE",
"87 693 CURVE SMOOTH",
"87 647 OFFCURVE",
"124 610 OFFCURVE",
"170 610 CURVE SMOOTH"
);
}
);
};
layerId = "C89E7CB9-06CC-4D85-8773-832B05BA201B";
paths = (
{
closed = 1;
nodes = (
"-51 -173 LINE",
"-21 -177 OFFCURVE",
"12 -179 OFFCURVE",
"35 -179 CURVE SMOOTH",
"150 -179 OFFCURVE",
"240 -124 OFFCURVE",
"240 8 CURVE SMOOTH",
"240 538 LINE",
"100 538 LINE",
"100 18 LINE SMOOTH",
"100 -34 OFFCURVE",
"62 -50 OFFCURVE",
"13 -50 CURVE SMOOTH",
"-4 -50 OFFCURVE",
"-27 -48 OFFCURVE",
"-48 -44 CURVE",
"0 6 LINE",
"0 -239 LINE"
);
},
{
closed = 1;
nodes = (
"244 614 LINE",
"244 762 LINE",
"96 762 LINE",
"96 614 LINE"
);
}
);
width = 304;
}
);
rightMetricsKey = "=i+10";
},
{
color = 6;
glyphname = k;
lastChange = "2020-05-11 14:41:42 +0000";
layers = (
{
background = {
paths = (
{
closed = 1;
nodes = (
"128 315 LINE",
"130 315 LINE",
"130 437 OFFCURVE",
"226 478 OFFCURVE",
"290 478 CURVE SMOOTH",
"381 478 OFFCURVE",
"430 425 OFFCURVE",
"430 325 CURVE SMOOTH",
"430 0 LINE",
"490 0 LINE",
"490 341 LINE SMOOTH",
"490 463 OFFCURVE",
"424 533 OFFCURVE",
"307 533 CURVE SMOOTH",
"203 533 OFFCURVE",
"150 471 OFFCURVE",
"132 434 CURVE",
"132 432 LINE",
"128 432 LINE"
);
},
{
closed = 1;
nodes = (
"150 0 LINE",
"150 200 LINE",
"152 200 LINE",
"240 295 LINE",
"240 298 LINE",
"244 298 LINE",
"244 296 LINE",
"420 0 LINE",
"520 0 LINE",
"301 357 LINE",
"300 357 LINE",
"300 360 LINE",
"303 360 LINE",
"467 533 LINE",
"357 533 LINE",
"153 312 LINE",
"153 311 LINE",
"150 311 LINE",
"150 735 LINE",
"90 735 LINE",
"90 0 LINE"
);
},
{
closed = 0;
nodes = (
"480 546 LINE",
"132 214 LINE",
"132 213 LINE",
"129 213 LINE"
);
}
);
};
guideLines = (
{
angle = 221.2973;
position = "{304, 355}";
}
);
layerId = "E773EBAE-783E-4D91-931E-4E5C9CF0967C";
paths = (
{
closed = 1;
nodes = (
"150 0 LINE",
"150 219 LINE",
"150 223 LINE",
"154 223 LINE",
"256 313 LINE",
"256 315 LINE",
"260 315 LINE",
"260 313 LINE",
"449 0 LINE",
"520 0 LINE",
"301 352 LINE",
"301 356 LINE",
"305 356 LINE",
"507 533 LINE",
"423 533 LINE",
"154 295 LINE",
"154 291 LINE",
"150 291 LINE",
"150 735 LINE",
"90 735 LINE",
"90 0 LINE"
);
}
);
width = 550;
},
{
background = {
paths = (
{
closed = 1;
nodes = (
"180 0 LINE",
"180 218 LINE",
"178 218 LINE",
"178 222 LINE",
"182 222 LINE",
"284 310 LINE",
"284 312 LINE",
"288 312 LINE",
"288 310 LINE",
"480 0 LINE",
"550 0 LINE",
"333 352 LINE",
"332 352 LINE",
"332 356 LINE",
"335 356 LINE",
"540 533 LINE",
"456 533 LINE",
"182 295 LINE",
"182 293 LINE",
"178 293 LINE",
"178 297 LINE",
"180 297 LINE",
"180 735 LINE",
"120 735 LINE",
"120 0 LINE"
);
}
);
};
guideLines = (
{
angle = 43.656;
position = "{288, 245}";
}
);
layerId = "C89E7CB9-06CC-4D85-8773-832B05BA201B";
paths = (
{
closed = 1;
nodes = (
"220 0 LINE",
"220 180 LINE",
"220 184 LINE",
"224 184 LINE",
"290 247 LINE",
"290 251 LINE",
"294 251 LINE",
"294 248 LINE",
"447 0 LINE",
"610 0 LINE",
"384 336 LINE",
"384 340 LINE",
"388 340 LINE",
"589 533 LINE",
"409 533 LINE",
"224 348 LINE",
"224 346 LINE",
"220 346 LINE",
"220 739 LINE",
"80 739 LINE",
"80 0 LINE"
);
}
);
width = 630;
}
);
leftMetricsKey = "=h";
rightMetricsKey = "=o-20";
unicode = 006B;
},
{
color = 6;
glyphname = l;
lastChange = "2020-04-24 18:54:52 +0000";
layers = (
{
layerId = "E773EBAE-783E-4D91-931E-4E5C9CF0967C";
paths = (
{
closed = 1;
nodes = (
"250 72 LINE",
"275 54 LINE",
"262 53 OFFCURVE",
"248 53 OFFCURVE",
"239 53 CURVE SMOOTH",
"176 53 OFFCURVE",
"150 69 OFFCURVE",
"150 142 CURVE SMOOTH",
"150 735 LINE",
"90 735 LINE",
"90 126 LINE SMOOTH",
"90 18 OFFCURVE",
"163 -2 OFFCURVE",
"235 -2 CURVE SMOOTH",
"246 -2 OFFCURVE",
"257 -2 OFFCURVE",
"267 -1 CURVE",
"250 -28 LINE"
);
}
);
width = 270;
},
{
background = {
paths = (
{
closed = 1;
nodes = (
"80 743 LINE",
"80 142 LINE SMOOTH",
"80 42 OFFCURVE",
"130 -4 OFFCURVE",
"234 -4 CURVE SMOOTH",
"266 -4 OFFCURVE",
"292 0 OFFCURVE",
"310 5 CURVE",
"310 107 LINE",
"302 106 OFFCURVE",
"291 104 OFFCURVE",
"277 104 CURVE SMOOTH",
"238 104 OFFCURVE",
"222 123 OFFCURVE",
"222 173 CURVE SMOOTH",
"222 743 LINE"
);
},
{
closed = 1;
nodes = (
"80 -2 LINE",
"220 -2 LINE",
"220 513 LINE",
"202 513 LINE",
"202 549 LINE",
"220 549 LINE",
"220 741 LINE",
"80 741 LINE"
);
}
);
};
layerId = "C89E7CB9-06CC-4D85-8773-832B05BA201B";
paths = (
{
closed = 1;
nodes = (
"320 154 LINE",
"405 122 LINE",
"370 120 OFFCURVE",
"342 119 OFFCURVE",
"308 119 CURVE SMOOTH",
"239 119 OFFCURVE",
"220 140 OFFCURVE",
"220 196 CURVE SMOOTH",
"220 743 LINE",
"80 743 LINE",
"80 182 LINE SMOOTH",
"80 33 OFFCURVE",
"160 -6 OFFCURVE",
"308 -6 CURVE SMOOTH",
"329 -6 OFFCURVE",
"352 -5 OFFCURVE",
"375 -4 CURVE",
"320 -54 LINE"
);
}
);
width = 330;
}
);
leftMetricsKey = "=h";
unicode = 006C;
},
{
color = 7;
glyphname = l.ss03;
lastChange = "2020-04-24 18:54:25 +0000";
layers = (
{
background = {
paths = (
{
closed = 1;
nodes = (
"90 735 LINE",
"90 123 LINE SMOOTH",
"90 36 OFFCURVE",
"128 -3 OFFCURVE",
"214 -3 CURVE SMOOTH",
"228 -3 OFFCURVE",
"247 -1 OFFCURVE",
"257 2 CURVE",
"257 56 LINE",
"251 55 OFFCURVE",
"234 54 OFFCURVE",
"226 54 CURVE SMOOTH",
"173 54 OFFCURVE",
"154 76 OFFCURVE",
"154 138 CURVE SMOOTH",
"154 735 LINE"
);
}
);
};
layerId = "E773EBAE-783E-4D91-931E-4E5C9CF0967C";
paths = (
{
closed = 1;
nodes = (
"150 0 LINE",
"150 735 LINE",
"90 735 LINE",
"90 0 LINE"
);
}
);
width = 240;
},
{
layerId = "C89E7CB9-06CC-4D85-8773-832B05BA201B";
paths = (
{
closed = 1;
nodes = (
"220 0 LINE",
"220 743 LINE",
"80 743 LINE",
"80 0 LINE"
);
}
);
width = 300;
}
);
leftMetricsKey = "=h";
rightMetricsKey = "=h";
},
{
color = 6;
glyphname = m;
lastChange = "2020-04-24 18:54:52 +0000";
layers = (
{
background = {
paths = (
{
closed = 1;
nodes = (
"150 0 LINE",
"150 312 LINE SMOOTH",
"150 430 OFFCURVE",
"226 478 OFFCURVE",
"298 478 CURVE SMOOTH",
"373 478 OFFCURVE",
"420 426 OFFCURVE",
"420 331 CURVE SMOOTH",
"420 0 LINE",
"480 0 LINE",
"480 312 LINE SMOOTH",
"480 435 OFFCURVE",
"554 478 OFFCURVE",
"625 478 CURVE SMOOTH",
"706 478 OFFCURVE",
"750 426 OFFCURVE",
"750 332 CURVE SMOOTH",
"750 0 LINE",
"810 0 LINE",
"810 351 LINE SMOOTH",
"810 461 OFFCURVE",
"739 533 OFFCURVE",
"638 533 CURVE SMOOTH",
"541 533 OFFCURVE",
"486 465 OFFCURVE",
"465 434 CURVE",
"465 432 LINE",
"461 432 LINE",
"461 434 LINE",
"454 454 OFFCURVE",
"416 533 OFFCURVE",
"308 533 CURVE SMOOTH",
"205 533 OFFCURVE",
"159 448 OFFCURVE",
"154 436 CURVE",
"154 434 LINE",
"150 434 LINE",
"150 438 LINE",
"150 525 LINE",
"90 525 LINE",
"90 0 LINE"
);
}
);
};
layerId = "E773EBAE-783E-4D91-931E-4E5C9CF0967C";
paths = (
{
closed = 1;
nodes = (
"150 0 LINE",
"150 312 LINE SMOOTH",
"150 430 OFFCURVE",
"226 478 OFFCURVE",
"298 478 CURVE SMOOTH",
"373 478 OFFCURVE",
"420 426 OFFCURVE",
"420 331 CURVE SMOOTH",
"420 0 LINE",
"480 0 LINE",
"480 312 LINE SMOOTH",
"480 435 OFFCURVE",
"555 478 OFFCURVE",
"626 478 CURVE SMOOTH",
"704 478 OFFCURVE",
"750 426 OFFCURVE",
"750 332 CURVE SMOOTH",
"750 0 LINE",
"810 0 LINE",
"810 351 LINE SMOOTH",
"810 461 OFFCURVE",
"738 533 OFFCURVE",
"638 533 CURVE SMOOTH",
"541 533 OFFCURVE",
"486 465 OFFCURVE",
"465 434 CURVE",
"465 432 LINE",
"461 432 LINE",
"461 434 LINE",
"454 454 OFFCURVE",
"412 533 OFFCURVE",
"311 533 CURVE SMOOTH",
"203 533 OFFCURVE",
"156 440 OFFCURVE",
"154 436 CURVE",
"154 434 LINE",
"150 434 LINE",
"150 438 LINE",
"150 525 LINE",
"90 525 LINE",
"90 0 LINE"
);
}
);
width = 900;
},
{
background = {
paths = (
{
closed = 1;
nodes = (
"220 0 LINE",
"220 296 LINE SMOOTH",
"220 411 OFFCURVE",
"289 419 OFFCURVE",
"324 419 CURVE SMOOTH",
"375 419 OFFCURVE",
"410 384 OFFCURVE",
"410 308 CURVE SMOOTH",
"410 0 LINE",
"550 0 LINE",
"550 296 LINE SMOOTH",
"550 411 OFFCURVE",
"619 419 OFFCURVE",
"653 419 CURVE SMOOTH",
"705 419 OFFCURVE",
"740 385 OFFCURVE",
"740 309 CURVE SMOOTH",
"740 0 LINE",
"880 0 LINE",
"880 337 LINE SMOOTH",
"880 472 OFFCURVE",
"818 537 OFFCURVE",
"711 537 CURVE SMOOTH",
"612 537 OFFCURVE",
"554 464 OFFCURVE",
"538 441 CURVE",
"538 439 LINE",
"534 439 LINE",
"534 441 LINE",
"528 457 OFFCURVE",
"490 537 OFFCURVE",
"389 537 CURVE SMOOTH",
"292 537 OFFCURVE",
"242 478 OFFCURVE",
"224 441 CURVE",
"224 439 LINE",
"220 439 LINE",
"220 443 LINE",
"220 525 LINE",
"80 525 LINE",
"80 0 LINE"
);
}
);
};
layerId = "C89E7CB9-06CC-4D85-8773-832B05BA201B";
paths = (
{
closed = 1;
nodes = (
"220 0 LINE",
"220 296 LINE SMOOTH",
"220 402 OFFCURVE",
"281 419 OFFCURVE",
"320 419 CURVE SMOOTH",
"373 419 OFFCURVE",
"410 387 OFFCURVE",
"410 309 CURVE SMOOTH",
"410 0 LINE",
"550 0 LINE",
"550 296 LINE SMOOTH",
"550 401 OFFCURVE",
"607 419 OFFCURVE",
"649 419 CURVE SMOOTH",
"708 419 OFFCURVE",
"740 383 OFFCURVE",
"740 309 CURVE SMOOTH",
"740 0 LINE",
"880 0 LINE",
"880 337 LINE SMOOTH",
"880 472 OFFCURVE",
"815 537 OFFCURVE",
"715 537 CURVE SMOOTH",
"609 537 OFFCURVE",
"554 464 OFFCURVE",
"538 441 CURVE",
"538 439 LINE",
"534 439 LINE",
"534 441 LINE",
"528 457 OFFCURVE",
"492 537 OFFCURVE",
"386 537 CURVE SMOOTH",
"294 537 OFFCURVE",
"242 478 OFFCURVE",
"224 441 CURVE",
"224 439 LINE",
"220 439 LINE",
"220 443 LINE",
"220 525 LINE",
"80 525 LINE",
"80 0 LINE"
);
}
);
width = 960;
}
);
leftMetricsKey = "=n";
rightMetricsKey = "=n";
unicode = 006D;
},
{
color = 6;
glyphname = n;
lastChange = "2020-04-24 18:54:52 +0000";
layers = (
{
background = {
paths = (
{
closed = 1;
nodes = (
"150 0 LINE",
"150 315 LINE SMOOTH",
"150 437 OFFCURVE",
"239 478 OFFCURVE",
"310 478 CURVE SMOOTH",
"401 478 OFFCURVE",
"450 425 OFFCURVE",
"450 325 CURVE SMOOTH",
"450 0 LINE",
"510 0 LINE",
"510 341 LINE SMOOTH",
"510 463 OFFCURVE",
"444 533 OFFCURVE",
"327 533 CURVE SMOOTH",
"223 533 OFFCURVE",
"172 471 OFFCURVE",
"154 434 CURVE",
"154 432 LINE",
"150 432 LINE",
"150 436 LINE",
"150 525 LINE",
"90 525 LINE",
"90 0 LINE"
);
}
);
};
layerId = "E773EBAE-783E-4D91-931E-4E5C9CF0967C";
paths = (
{
closed = 1;
nodes = (
"150 0 LINE",
"150 315 LINE SMOOTH",
"150 437 OFFCURVE",
"237 478 OFFCURVE",
"313 478 CURVE SMOOTH",
"399 478 OFFCURVE",
"450 425 OFFCURVE",
"450 325 CURVE SMOOTH",
"450 0 LINE",
"510 0 LINE",
"510 341 LINE SMOOTH",
"510 463 OFFCURVE",
"443 533 OFFCURVE",
"329 533 CURVE SMOOTH",
"222 533 OFFCURVE",
"172 471 OFFCURVE",
"154 434 CURVE",
"154 432 LINE",
"150 432 LINE",
"150 436 LINE",
"150 525 LINE",
"90 525 LINE",
"90 0 LINE"
);
}
);
width = 600;
},
{
background = {
paths = (
{
closed = 1;
nodes = (
"220 0 LINE",
"220 290 LINE SMOOTH",
"220 381 OFFCURVE",
"278 419 OFFCURVE",
"328 419 CURVE SMOOTH",
"388 419 OFFCURVE",
"430 388 OFFCURVE",
"430 299 CURVE SMOOTH",
"430 0 LINE",
"570 0 LINE",
"570 333 LINE SMOOTH",
"570 457 OFFCURVE",
"512 537 OFFCURVE",
"387 537 CURVE SMOOTH",
"265 537 OFFCURVE",
"231 457 OFFCURVE",
"224 441 CURVE",
"224 439 LINE",
"220 439 LINE",
"220 443 LINE",
"220 525 LINE",
"80 525 LINE",
"80 0 LINE"
);
}
);
};
layerId = "C89E7CB9-06CC-4D85-8773-832B05BA201B";
paths = (
{
closed = 1;
nodes = (
"220 0 LINE",
"220 290 LINE SMOOTH",
"220 381 OFFCURVE",
"275 419 OFFCURVE",
"333 419 CURVE SMOOTH",
"385 419 OFFCURVE",
"430 388 OFFCURVE",
"430 299 CURVE SMOOTH",
"430 0 LINE",
"570 0 LINE",
"570 333 LINE SMOOTH",
"570 457 OFFCURVE",
"512 537 OFFCURVE",
"389 537 CURVE SMOOTH",
"265 537 OFFCURVE",
"230 456 OFFCURVE",
"224 441 CURVE",
"224 439 LINE",
"220 439 LINE",
"220 443 LINE",
"220 525 LINE",
"80 525 LINE",
"80 0 LINE"
);
}
);
width = 650;
}
);
rightMetricsKey = "=|";
unicode = 006E;
},
{
color = 6;
glyphname = o;
lastChange = "2020-05-11 14:41:17 +0000";
layers = (
{
background = {
paths = (
{
closed = 1;
nodes = (
"532 426 OFFCURVE",
"434 534 OFFCURVE",
"303 534 CURVE SMOOTH",
"222 534 OFFCURVE",
"150 490 OFFCURVE",
"120 406 CURVE",
"120 287 LINE",
"129 400 OFFCURVE",
"195 474 OFFCURVE",
"290 474 CURVE SMOOTH",
"391 474 OFFCURVE",
"467 394 OFFCURVE",
"467 264 CURVE SMOOTH",
"467 135 OFFCURVE",
"391 53 OFFCURVE",
"290 53 CURVE SMOOTH",
"194 53 OFFCURVE",
"129 125 OFFCURVE",
"120 242 CURVE",
"120 117 LINE",
"150 35 OFFCURVE",
"220 -7 OFFCURVE",
"303 -7 CURVE SMOOTH",
"434 -7 OFFCURVE",
"532 102 OFFCURVE",
"532 264 CURVE SMOOTH"
);
},
{
closed = 1;
nodes = (
"48 102 OFFCURVE",
"146 -7 OFFCURVE",
"277 -7 CURVE SMOOTH",
"360 -7 OFFCURVE",
"430 35 OFFCURVE",
"460 117 CURVE",
"460 242 LINE",
"451 125 OFFCURVE",
"386 53 OFFCURVE",
"290 53 CURVE SMOOTH",
"189 53 OFFCURVE",
"113 135 OFFCURVE",
"113 264 CURVE SMOOTH",
"113 394 OFFCURVE",
"189 474 OFFCURVE",
"290 474 CURVE SMOOTH",
"385 474 OFFCURVE",
"451 400 OFFCURVE",
"460 287 CURVE",
"460 406 LINE",
"430 490 OFFCURVE",
"358 534 OFFCURVE",
"277 534 CURVE SMOOTH",
"146 534 OFFCURVE",
"48 426 OFFCURVE",
"48 264 CURVE SMOOTH"
);
}
);
};
layerId = "E773EBAE-783E-4D91-931E-4E5C9CF0967C";
paths = (
{
closed = 1;
nodes = (
"421 -8 OFFCURVE",
"530 100 OFFCURVE",
"530 264 CURVE SMOOTH",
"530 427 OFFCURVE",
"420 533 OFFCURVE",
"290 533 CURVE SMOOTH",
"160 533 OFFCURVE",
"50 427 OFFCURVE",
"50 264 CURVE SMOOTH",
"50 100 OFFCURVE",
"161 -8 OFFCURVE",
"291 -8 CURVE SMOOTH"
);
},
{
closed = 1;
nodes = (
"189 48 OFFCURVE",
"115 133 OFFCURVE",
"115 264 CURVE SMOOTH",
"115 395 OFFCURVE",
"189 477 OFFCURVE",
"290 477 CURVE SMOOTH",
"391 477 OFFCURVE",
"465 395 OFFCURVE",
"465 264 CURVE SMOOTH",
"465 133 OFFCURVE",
"393 48 OFFCURVE",
"291 48 CURVE SMOOTH"
);
}
);
width = 580;
},
{
background = {
paths = (
{
closed = 1;
nodes = (
"38 101 OFFCURVE",
"126 -8 OFFCURVE",
"262 -8 CURVE SMOOTH",
"325 -8 OFFCURVE",
"379 15 OFFCURVE",
"415 67 CURVE",
"415 178 LINE",
"394 135 OFFCURVE",
"358 106 OFFCURVE",
"309 106 CURVE SMOOTH",
"235 106 OFFCURVE",
"178 168 OFFCURVE",
"178 267 CURVE SMOOTH",
"178 372 OFFCURVE",
"235 431 OFFCURVE",
"308 431 CURVE SMOOTH",
"357 431 OFFCURVE",
"394 402 OFFCURVE",
"415 359 CURVE",
"415 467 LINE",
"390 506 OFFCURVE",
"340 546 OFFCURVE",
"265 546 CURVE SMOOTH",
"122 546 OFFCURVE",
"38 436 OFFCURVE",
"38 265 CURVE SMOOTH"
);
},
{
closed = 1;
nodes = (
"568 436 OFFCURVE",
"484 546 OFFCURVE",
"341 546 CURVE SMOOTH",
"266 546 OFFCURVE",
"216 506 OFFCURVE",
"191 467 CURVE",
"191 359 LINE",
"212 402 OFFCURVE",
"249 431 OFFCURVE",
"298 431 CURVE SMOOTH",
"371 431 OFFCURVE",
"428 372 OFFCURVE",
"428 267 CURVE SMOOTH",
"428 168 OFFCURVE",
"371 106 OFFCURVE",
"297 106 CURVE SMOOTH",
"248 106 OFFCURVE",
"212 135 OFFCURVE",
"191 178 CURVE",
"191 67 LINE",
"227 15 OFFCURVE",
"281 -8 OFFCURVE",
"344 -8 CURVE SMOOTH",
"480 -8 OFFCURVE",
"568 101 OFFCURVE",
"568 265 CURVE SMOOTH"
);
}
);
};
layerId = "C89E7CB9-06CC-4D85-8773-832B05BA201B";
paths = (
{
closed = 1;
nodes = (
"438 -12 OFFCURVE",
"560 98 OFFCURVE",
"560 264 CURVE SMOOTH",
"560 430 OFFCURVE",
"437 537 OFFCURVE",
"299 537 CURVE SMOOTH",
"161 537 OFFCURVE",
"40 430 OFFCURVE",
"40 264 CURVE SMOOTH",
"40 98 OFFCURVE",
"162 -12 OFFCURVE",
"300 -12 CURVE SMOOTH"
);
},
{
closed = 1;
nodes = (
"222 103 OFFCURVE",
"180 176 OFFCURVE",
"180 264 CURVE SMOOTH",
"180 353 OFFCURVE",
"221 422 OFFCURVE",
"299 422 CURVE SMOOTH",
"377 422 OFFCURVE",
"420 353 OFFCURVE",
"420 264 CURVE SMOOTH",
"420 176 OFFCURVE",
"379 103 OFFCURVE",
"300 103 CURVE SMOOTH"
);
}
);
width = 600;
}
);
rightMetricsKey = "=|";
unicode = 006F;
},
{
color = 3;
glyphname = oe;
lastChange = "2020-05-27 16:45:18 +0000";
layers = (
{
layerId = "E773EBAE-783E-4D91-931E-4E5C9CF0967C";
paths = (
{
closed = 1;
nodes = (
"382 -8 OFFCURVE",
"452 45 OFFCURVE",
"494 122 CURVE",
"494 126 LINE",
"498 126 LINE",
"498 122 LINE",
"539 42 OFFCURVE",
"608 -8 OFFCURVE",
"708 -8 CURVE SMOOTH",
"818 -8 OFFCURVE",
"884 52 OFFCURVE",
"915 98 CURVE",
"869 131 LINE",
"840 91 OFFCURVE",
"793 47 OFFCURVE",
"708 47 CURVE SMOOTH",
"588 47 OFFCURVE",
"526 138 OFFCURVE",
"526 250 CURVE",
"526 254 LINE",
"530 254 LINE",
"530 252 LINE",
"950 252 LINE",
"920 234 LINE",
"924 254 OFFCURVE",
"926 274 OFFCURVE",
"926 293 CURVE SMOOTH",
"926 420 OFFCURVE",
"837 533 OFFCURVE",
"700 533 CURVE SMOOTH",
"608 533 OFFCURVE",
"536 482 OFFCURVE",
"497 407 CURVE",
"497 403 LINE",
"493 403 LINE",
"493 407 LINE",
"450 484 OFFCURVE",
"378 533 OFFCURVE",
"290 533 CURVE SMOOTH",
"160 533 OFFCURVE",
"50 427 OFFCURVE",
"50 264 CURVE SMOOTH",
"50 100 OFFCURVE",
"162 -8 OFFCURVE",
"291 -8 CURVE SMOOTH"
);
},
{
closed = 1;
nodes = (
"189 48 OFFCURVE",
"115 133 OFFCURVE",
"115 264 CURVE SMOOTH",
"115 395 OFFCURVE",
"189 477 OFFCURVE",
"290 477 CURVE SMOOTH",
"391 477 OFFCURVE",
"466 395 OFFCURVE",
"466 264 CURVE SMOOTH",
"466 133 OFFCURVE",
"393 48 OFFCURVE",
"291 48 CURVE SMOOTH"
);
},
{
closed = 1;
nodes = (
"528 309 LINE",
"528 394 OFFCURVE",
"592 478 OFFCURVE",
"700 478 CURVE SMOOTH",
"808 478 OFFCURVE",
"863 392 OFFCURVE",
"863 309 CURVE",
"863 304 LINE",
"859 304 LINE",
"859 307 LINE",
"532 307 LINE",
"532 304 LINE",
"528 304 LINE"
);
}
);
width = 976;
},
{
layerId = "C89E7CB9-06CC-4D85-8773-832B05BA201B";
paths = (
{
closed = 1;
nodes = (
"382 -12 OFFCURVE",
"441 26 OFFCURVE",
"488 80 CURVE",
"488 84 LINE",
"492 84 LINE",
"492 80 LINE",
"534 26 OFFCURVE",
"596 -12 OFFCURVE",
"686 -12 CURVE SMOOTH",
"809 -12 OFFCURVE",
"876 56 OFFCURVE",
"912 110 CURVE",
"823 175 LINE",
"793 138 OFFCURVE",
"755 103 OFFCURVE",
"690 103 CURVE SMOOTH",
"603 103 OFFCURVE",
"551 167 OFFCURVE",
"551 227 CURVE",
"551 231 LINE",
"555 231 LINE",
"555 229 LINE",
"973 229 LINE",
"903 192 LINE",
"917 216 OFFCURVE",
"920 266 OFFCURVE",
"920 289 CURVE SMOOTH",
"920 413 OFFCURVE",
"825 537 OFFCURVE",
"675 537 CURVE SMOOTH",
"587 537 OFFCURVE",
"534 493 OFFCURVE",
"489 444 CURVE",
"489 440 LINE",
"485 440 LINE",
"485 444 LINE",
"439 497 OFFCURVE",
"382 537 OFFCURVE",
"299 537 CURVE SMOOTH",
"162 537 OFFCURVE",
"40 430 OFFCURVE",
"40 264 CURVE SMOOTH",
"40 98 OFFCURVE",
"162 -12 OFFCURVE",
"300 -12 CURVE SMOOTH"
);
},
{
closed = 1;
nodes = (
"222 103 OFFCURVE",
"180 176 OFFCURVE",
"180 264 CURVE SMOOTH",
"180 353 OFFCURVE",
"221 422 OFFCURVE",
"299 422 CURVE SMOOTH",
"377 422 OFFCURVE",
"420 353 OFFCURVE",
"420 264 CURVE SMOOTH",
"420 176 OFFCURVE",
"379 103 OFFCURVE",
"300 103 CURVE SMOOTH"
);
},
{
closed = 1;
nodes = (
"550 321 LINE",
"550 370 OFFCURVE",
"596 432 OFFCURVE",
"675 432 CURVE SMOOTH",
"754 432 OFFCURVE",
"796 370 OFFCURVE",
"796 321 CURVE",
"796 317 LINE",
"792 317 LINE",
"792 319 LINE",
"554 319 LINE",
"554 317 LINE",
"550 317 LINE"
);
}
);
width = 960;
}
);
leftMetricsKey = "=o";
rightMetricsKey = "=e";
unicode = 0153;
},
{
color = 6;
glyphname = p;
lastChange = "2020-05-15 09:19:57 +0000";
layers = (
{
background = {
paths = (
{
closed = 1;
nodes = (
"150 -170 LINE",
"150 98 LINE",
"150 102 LINE",
"154 102 LINE",
"154 100 LINE",
"183 50 OFFCURVE",
"240 -8 OFFCURVE",
"333 -8 CURVE SMOOTH",
"464 -8 OFFCURVE",
"560 99 OFFCURVE",
"560 261 CURVE SMOOTH",
"560 424 OFFCURVE",
"464 533 OFFCURVE",
"333 533 CURVE SMOOTH",
"232 533 OFFCURVE",
"181 478 OFFCURVE",
"154 431 CURVE",
"154 429 LINE",
"150 429 LINE",
"150 433 LINE",
"150 525 LINE",
"90 525 LINE",
"90 -170 LINE"
);
},
{
closed = 1;
nodes = (
"191 52 OFFCURVE",
"147 178 OFFCURVE",
"147 261 CURVE SMOOTH",
"147 383 OFFCURVE",
"209 473 OFFCURVE",
"320 473 CURVE SMOOTH",
"424 473 OFFCURVE",
"495 391 OFFCURVE",
"495 261 CURVE SMOOTH",
"495 131 OFFCURVE",
"421 52 OFFCURVE",
"320 52 CURVE SMOOTH"
);
}
);
};
layerId = "E773EBAE-783E-4D91-931E-4E5C9CF0967C";
paths = (
{
closed = 1;
nodes = (
"150 -170 LINE",
"150 98 LINE",
"150 102 LINE",
"154 102 LINE",
"154 100 LINE",
"183 50 OFFCURVE",
"239 -8 OFFCURVE",
"334 -8 CURVE SMOOTH",
"463 -8 OFFCURVE",
"560 99 OFFCURVE",
"560 262 CURVE SMOOTH",
"560 424 OFFCURVE",
"466 533 OFFCURVE",
"331 533 CURVE SMOOTH",
"234 533 OFFCURVE",
"181 478 OFFCURVE",
"154 431 CURVE",
"154 429 LINE",
"150 429 LINE",
"150 433 LINE",
"150 525 LINE",
"90 525 LINE",
"90 -170 LINE"
);
},
{
closed = 1;
nodes = (
"201 52 OFFCURVE",
"147 159 OFFCURVE",
"147 261 CURVE SMOOTH",
"147 361 OFFCURVE",
"197 473 OFFCURVE",
"320 473 CURVE SMOOTH",
"425 473 OFFCURVE",
"495 391 OFFCURVE",
"495 262 CURVE SMOOTH",
"495 131 OFFCURVE",
"421 52 OFFCURVE",
"319 52 CURVE SMOOTH"
);
}
);
width = 610;
},
{
background = {
paths = (
{
closed = 1;
nodes = (
"220 -170 LINE",
"220 101 LINE",
"220 105 LINE",
"224 105 LINE",
"224 103 LINE",
"251 42 OFFCURVE",
"301 -8 OFFCURVE",
"393 -8 CURVE SMOOTH",
"533 -8 OFFCURVE",
"615 113 OFFCURVE",
"615 272 CURVE SMOOTH",
"615 446 OFFCURVE",
"519 537 OFFCURVE",
"391 537 CURVE SMOOTH",
"299 537 OFFCURVE",
"244 477 OFFCURVE",
"224 433 CURVE",
"224 431 LINE",
"220 431 LINE",
"220 435 LINE",
"220 525 LINE",
"90 525 LINE",
"90 -170 LINE"
);
},
{
closed = 1;
nodes = (
"286 107 OFFCURVE",
"219 152 OFFCURVE",
"219 269 CURVE SMOOTH",
"219 353 OFFCURVE",
"267 422 OFFCURVE",
"344 422 CURVE SMOOTH",
"418 422 OFFCURVE",
"475 371 OFFCURVE",
"475 271 CURVE SMOOTH",
"475 167 OFFCURVE",
"416 107 OFFCURVE",
"344 107 CURVE SMOOTH"
);
}
);
};
layerId = "C89E7CB9-06CC-4D85-8773-832B05BA201B";
paths = (
{
closed = 1;
nodes = (
"220 -170 LINE",
"220 101 LINE",
"220 105 LINE",
"224 105 LINE",
"224 103 LINE",
"251 42 OFFCURVE",
"301 -8 OFFCURVE",
"393 -8 CURVE SMOOTH",
"533 -8 OFFCURVE",
"615 113 OFFCURVE",
"615 272 CURVE SMOOTH",
"615 446 OFFCURVE",
"516 537 OFFCURVE",
"395 537 CURVE SMOOTH",
"296 537 OFFCURVE",
"244 477 OFFCURVE",
"224 433 CURVE",
"224 431 LINE",
"220 431 LINE",
"220 435 LINE",
"220 525 LINE",
"80 525 LINE",
"80 -170 LINE"
);
},
{
closed = 1;
nodes = (
"288 107 OFFCURVE",
"219 148 OFFCURVE",
"219 263 CURVE SMOOTH",
"219 369 OFFCURVE",
"273 422 OFFCURVE",
"346 422 CURVE SMOOTH",
"416 422 OFFCURVE",
"475 373 OFFCURVE",
"475 271 CURVE SMOOTH",
"475 169 OFFCURVE",
"415 107 OFFCURVE",
"345 107 CURVE SMOOTH"
);
}
);
width = 655;
}
);
leftMetricsKey = "=h";
rightMetricsKey = "=o";
unicode = 0070;
},
{
color = 6;
glyphname = q;
lastChange = "2020-05-15 09:19:57 +0000";
layers = (
{
background = {
paths = (
{
closed = 1;
nodes = (
"520 -170 LINE",
"520 525 LINE",
"470 525 LINE",
"460 433 LINE",
"460 429 LINE",
"456 429 LINE",
"456 431 LINE",
"429 478 OFFCURVE",
"378 533 OFFCURVE",
"277 533 CURVE SMOOTH",
"146 533 OFFCURVE",
"50 424 OFFCURVE",
"50 262 CURVE SMOOTH",
"50 100 OFFCURVE",
"146 -8 OFFCURVE",
"277 -8 CURVE SMOOTH",
"370 -8 OFFCURVE",
"427 50 OFFCURVE",
"456 100 CURVE",
"456 102 LINE",
"460 102 LINE",
"460 98 LINE",
"460 -170 LINE"
);
},
{
closed = 1;
nodes = (
"189 52 OFFCURVE",
"115 132 OFFCURVE",
"115 262 CURVE SMOOTH",
"115 391 OFFCURVE",
"189 473 OFFCURVE",
"290 473 CURVE SMOOTH",
"400 473 OFFCURVE",
"460 399 OFFCURVE",
"460 266 CURVE SMOOTH",
"460 162 OFFCURVE",
"411 52 OFFCURVE",
"290 52 CURVE SMOOTH"
);
}
);
};
layerId = "E773EBAE-783E-4D91-931E-4E5C9CF0967C";
paths = (
{
closed = 1;
nodes = (
"520 -170 LINE",
"520 525 LINE",
"470 525 LINE",
"460 433 LINE",
"460 429 LINE",
"456 429 LINE",
"456 431 LINE",
"429 478 OFFCURVE",
"376 533 OFFCURVE",
"280 533 CURVE SMOOTH",
"144 533 OFFCURVE",
"50 424 OFFCURVE",
"50 262 CURVE SMOOTH",
"50 100 OFFCURVE",
"147 -8 OFFCURVE",
"276 -8 CURVE SMOOTH",
"371 -8 OFFCURVE",
"427 50 OFFCURVE",
"456 100 CURVE",
"456 102 LINE",
"460 102 LINE",
"460 98 LINE",
"460 -170 LINE"
);
},
{
closed = 1;
nodes = (
"188 52 OFFCURVE",
"115 132 OFFCURVE",
"115 262 CURVE SMOOTH",
"115 391 OFFCURVE",
"185 473 OFFCURVE",
"293 473 CURVE SMOOTH",
"394 473 OFFCURVE",
"460 401 OFFCURVE",
"460 268 CURVE SMOOTH",
"460 144 OFFCURVE",
"400 52 OFFCURVE",
"290 52 CURVE SMOOTH"
);
}
);
width = 600;
},
{
background = {
paths = (
{
closed = 1;
nodes = (
"565 -170 LINE",
"565 525 LINE",
"445 525 LINE",
"435 435 LINE",
"435 431 LINE",
"431 431 LINE",
"431 433 LINE",
"411 477 OFFCURVE",
"356 537 OFFCURVE",
"264 537 CURVE SMOOTH",
"136 537 OFFCURVE",
"40 436 OFFCURVE",
"40 260 CURVE SMOOTH",
"40 101 OFFCURVE",
"122 -8 OFFCURVE",
"262 -8 CURVE SMOOTH",
"354 -8 OFFCURVE",
"404 42 OFFCURVE",
"431 103 CURVE",
"431 105 LINE",
"435 105 LINE",
"435 101 LINE",
"435 -170 LINE"
);
},
{
closed = 1;
nodes = (
"239 107 OFFCURVE",
"180 155 OFFCURVE",
"180 259 CURVE SMOOTH",
"180 361 OFFCURVE",
"237 422 OFFCURVE",
"311 422 CURVE SMOOTH",
"388 422 OFFCURVE",
"435 352 OFFCURVE",
"435 269 CURVE SMOOTH",
"435 154 OFFCURVE",
"369 107 OFFCURVE",
"311 107 CURVE SMOOTH"
);
}
);
};
layerId = "C89E7CB9-06CC-4D85-8773-832B05BA201B";
paths = (
{
closed = 1;
nodes = (
"575 -170 LINE",
"575 525 LINE",
"445 525 LINE",
"435 435 LINE",
"435 431 LINE",
"431 431 LINE",
"431 433 LINE",
"411 477 OFFCURVE",
"358 537 OFFCURVE",
"263 537 CURVE SMOOTH",
"138 537 OFFCURVE",
"40 436 OFFCURVE",
"40 260 CURVE SMOOTH",
"40 101 OFFCURVE",
"123 -8 OFFCURVE",
"261 -8 CURVE SMOOTH",
"355 -8 OFFCURVE",
"404 42 OFFCURVE",
"431 103 CURVE",
"431 105 LINE",
"435 105 LINE",
"435 101 LINE",
"435 -170 LINE"
);
},
{
closed = 1;
nodes = (
"242 107 OFFCURVE",
"180 155 OFFCURVE",
"180 260 CURVE SMOOTH",
"180 361 OFFCURVE",
"238 422 OFFCURVE",
"311 422 CURVE SMOOTH",
"385 422 OFFCURVE",
"435 359 OFFCURVE",
"435 269 CURVE SMOOTH",
"435 170 OFFCURVE",
"382 107 OFFCURVE",
"307 107 CURVE SMOOTH"
);
}
);
width = 645;
}
);
leftMetricsKey = "=o";
rightMetricsKey = "=h-10";
unicode = 0071;
},
{
color = 6;
glyphname = r;
lastChange = "2020-05-11 14:41:42 +0000";
layers = (
{
background = {
paths = (
{
closed = 1;
nodes = (
"145 0 LINE",
"145 310 LINE SMOOTH",
"145 416 OFFCURVE",
"213 478 OFFCURVE",
"305 478 CURVE SMOOTH",
"342 478 OFFCURVE",
"360 474 OFFCURVE",
"373 471 CURVE",
"355 462 LINE",
"355 543 LINE",
"374 528 LINE",
"359 531 OFFCURVE",
"347 533 OFFCURVE",
"316 533 CURVE SMOOTH",
"212 533 OFFCURVE",
"167 476 OFFCURVE",
"149 439 CURVE",
"149 437 LINE",
"145 437 LINE",
"145 441 LINE",
"135 525 LINE",
"85 525 LINE",
"85 0 LINE"
);
}
);
};
layerId = "E773EBAE-783E-4D91-931E-4E5C9CF0967C";
paths = (
{
closed = 1;
nodes = (
"145 0 LINE",
"145 310 LINE SMOOTH",
"145 418 OFFCURVE",
"213 478 OFFCURVE",
"308 478 CURVE SMOOTH",
"325 478 OFFCURVE",
"371 476 OFFCURVE",
"396 462 CURVE",
"355 451 LINE",
"355 543 LINE",
"396 522 LINE",
"373 531 OFFCURVE",
"335 533 OFFCURVE",
"316 533 CURVE SMOOTH",
"212 533 OFFCURVE",
"167 476 OFFCURVE",
"149 439 CURVE",
"149 437 LINE",
"145 437 LINE",
"145 441 LINE",
"135 525 LINE",
"85 525 LINE",
"85 0 LINE"
);
}
);
width = 390;
},
{
background = {
paths = (
{
closed = 1;
nodes = (
"215 0 LINE",
"215 286 LINE SMOOTH",
"215 405 OFFCURVE",
"315 409 OFFCURVE",
"354 409 CURVE SMOOTH",
"393 409 OFFCURVE",
"439 400 OFFCURVE",
"468 382 CURVE",
"415 382 LINE",
"415 555 LINE",
"468 523 LINE",
"437 533 OFFCURVE",
"393 537 OFFCURVE",
"371 537 CURVE SMOOTH",
"293 537 OFFCURVE",
"237 497 OFFCURVE",
"219 451 CURVE",
"219 449 LINE",
"215 449 LINE",
"215 453 LINE",
"202 525 LINE",
"75 525 LINE",
"75 0 LINE"
);
}
);
};
layerId = "C89E7CB9-06CC-4D85-8773-832B05BA201B";
paths = (
{
closed = 1;
nodes = (
"215 0 LINE",
"215 286 LINE SMOOTH",
"215 400 OFFCURVE",
"309 409 OFFCURVE",
"348 409 CURVE SMOOTH",
"387 409 OFFCURVE",
"439 400 OFFCURVE",
"468 382 CURVE",
"415 382 LINE",
"415 555 LINE",
"465 519 LINE",
"431 533 OFFCURVE",
"395 537 OFFCURVE",
"371 537 CURVE SMOOTH",
"295 537 OFFCURVE",
"237 497 OFFCURVE",
"219 451 CURVE",
"219 449 LINE",
"215 449 LINE",
"215 453 LINE",
"202 525 LINE",
"75 525 LINE",
"75 0 LINE"
);
}
);
width = 440;
}
);
leftMetricsKey = "=h-5";
rightMetricsKey = "=o-15";
unicode = 0072;
},
{
color = 6;
glyphname = s;
lastChange = "2020-04-29 15:15:46 +0000";
layers = (
{
background = {
paths = (
{
closed = 1;
nodes = (
"364 -8 OFFCURVE",
"455 56 OFFCURVE",
"455 153 CURVE SMOOTH",
"455 226 OFFCURVE",
"403 268 OFFCURVE",
"294 292 CURVE SMOOTH",
"231 306 LINE SMOOTH",
"164 321 OFFCURVE",
"134 349 OFFCURVE",
"134 392 CURVE SMOOTH",
"134 437 OFFCURVE",
"180 473 OFFCURVE",
"257 473 CURVE SMOOTH",
"324 473 OFFCURVE",
"370 444 OFFCURVE",
"397 390 CURVE",
"365 392 LINE",
"462 452 LINE",
"448 423 LINE",
"412 492 OFFCURVE",
"342 533 OFFCURVE",
"257 533 CURVE SMOOTH",
"158 533 OFFCURVE",
"74 473 OFFCURVE",
"74 392 CURVE SMOOTH",
"74 314 OFFCURVE",
"126 269 OFFCURVE",
"212 249 CURVE SMOOTH",
"286 232 LINE SMOOTH",
"365 214 OFFCURVE",
"390 191 OFFCURVE",
"390 149 CURVE SMOOTH",
"390 91 OFFCURVE",
"346 52 OFFCURVE",
"260 52 CURVE SMOOTH",
"188 52 OFFCURVE",
"140 80 OFFCURVE",
"96 153 CURVE",
"131 149 LINE",
"32 85 LINE",
"43 117 LINE",
"93 41 OFFCURVE",
"157 -8 OFFCURVE",
"262 -8 CURVE SMOOTH"
);
}
);
};
layerId = "E773EBAE-783E-4D91-931E-4E5C9CF0967C";
paths = (
{
closed = 1;
nodes = (
"365 -8 OFFCURVE",
"455 53 OFFCURVE",
"455 151 CURVE SMOOTH",
"455 211 OFFCURVE",
"420 265 OFFCURVE",
"311 290 CURVE SMOOTH",
"212 313 LINE SMOOTH",
"156 326 OFFCURVE",
"134 358 OFFCURVE",
"134 389 CURVE SMOOTH",
"134 430 OFFCURVE",
"173 473 OFFCURVE",
"254 473 CURVE SMOOTH",
"322 473 OFFCURVE",
"369 444 OFFCURVE",
"396 390 CURVE",
"365 392 LINE",
"462 452 LINE",
"448 423 LINE",
"412 492 OFFCURVE",
"340 533 OFFCURVE",
"257 533 CURVE SMOOTH",
"159 533 OFFCURVE",
"74 473 OFFCURVE",
"74 386 CURVE SMOOTH",
"74 320 OFFCURVE",
"122 272 OFFCURVE",
"208 252 CURVE SMOOTH",
"299 231 LINE SMOOTH",
"372 214 OFFCURVE",
"390 182 OFFCURVE",
"390 147 CURVE SMOOTH",
"390 93 OFFCURVE",
"347 52 OFFCURVE",
"261 52 CURVE SMOOTH",
"191 52 OFFCURVE",
"143 80 OFFCURVE",
"99 153 CURVE",
"118 156 LINE",
"29 97 LINE",
"46 117 LINE",
"96 41 OFFCURVE",
"166 -8 OFFCURVE",
"260 -8 CURVE SMOOTH"
);
}
);
width = 505;
},
{
background = {
paths = (
{
closed = 1;
nodes = (
"399 -11 OFFCURVE",
"493 59 OFFCURVE",
"493 157 CURVE SMOOTH",
"493 241 OFFCURVE",
"445 290 OFFCURVE",
"356 313 CURVE SMOOTH",
"252 340 LINE SMOOTH",
"208 351 OFFCURVE",
"189 363 OFFCURVE",
"189 391 CURVE SMOOTH",
"189 417 OFFCURVE",
"216 434 OFFCURVE",
"270 434 CURVE SMOOTH",
"336 434 OFFCURVE",
"370 406 OFFCURVE",
"403 345 CURVE",
"345 362 LINE",
"513 467 LINE",
"498 396 LINE",
"462 457 OFFCURVE",
"404 539 OFFCURVE",
"268 539 CURVE SMOOTH",
"140 539 OFFCURVE",
"59 458 OFFCURVE",
"59 383 CURVE SMOOTH",
"59 302 OFFCURVE",
"112 254 OFFCURVE",
"200 231 CURVE SMOOTH",
"301 205 LINE SMOOTH",
"338 196 OFFCURVE",
"353 181 OFFCURVE",
"353 153 CURVE SMOOTH",
"353 121 OFFCURVE",
"315 99 OFFCURVE",
"266 99 CURVE SMOOTH",
"200 99 OFFCURVE",
"154 127 OFFCURVE",
"110 206 CURVE",
"181 190 LINE",
"-8 70 LINE",
"22 139 LINE",
"70 42 OFFCURVE",
"153 -11 OFFCURVE",
"266 -11 CURVE SMOOTH"
);
}
);
};
layerId = "C89E7CB9-06CC-4D85-8773-832B05BA201B";
paths = (
{
closed = 1;
nodes = (
"392 -11 OFFCURVE",
"490 56 OFFCURVE",
"490 162 CURVE SMOOTH",
"490 238 OFFCURVE",
"442 289 OFFCURVE",
"353 313 CURVE SMOOTH",
"251 340 LINE SMOOTH",
"209 351 OFFCURVE",
"188 367 OFFCURVE",
"188 390 CURVE SMOOTH",
"188 417 OFFCURVE",
"217 434 OFFCURVE",
"267 434 CURVE SMOOTH",
"330 434 OFFCURVE",
"371 408 OFFCURVE",
"403 345 CURVE",
"345 362 LINE",
"513 467 LINE",
"498 396 LINE",
"462 457 OFFCURVE",
"402 539 OFFCURVE",
"270 539 CURVE SMOOTH",
"139 539 OFFCURVE",
"59 459 OFFCURVE",
"59 378 CURVE SMOOTH",
"59 317 OFFCURVE",
"104 256 OFFCURVE",
"200 231 CURVE SMOOTH",
"298 205 LINE SMOOTH",
"334 195 OFFCURVE",
"350 175 OFFCURVE",
"350 154 CURVE SMOOTH",
"350 122 OFFCURVE",
"314 99 OFFCURVE",
"267 99 CURVE SMOOTH",
"208 99 OFFCURVE",
"155 135 OFFCURVE",
"111 214 CURVE",
"177 198 LINE",
"-10 75 LINE",
"23 139 LINE",
"71 42 OFFCURVE",
"158 -11 OFFCURVE",
"268 -11 CURVE SMOOTH"
);
}
);
width = 530;
}
);
rightMetricsKey = "=|";
unicode = 0073;
},
{
color = 6;
glyphname = t;
lastChange = "2020-05-21 12:56:41 +0000";
layers = (
{
layerId = "E773EBAE-783E-4D91-931E-4E5C9CF0967C";
paths = (
{
closed = 1;
nodes = (
"305 71 LINE",
"335 57 LINE",
"318 54 OFFCURVE",
"297 53 OFFCURVE",
"275 53 CURVE SMOOTH",
"197 53 OFFCURVE",
"178 68 OFFCURVE",
"178 142 CURVE SMOOTH",
"178 468 LINE",
"176 468 LINE",
"176 472 LINE",
"180 472 LINE",
"180 470 LINE",
"290 470 LINE",
"290 525 LINE",
"180 525 LINE",
"180 523 LINE",
"176 523 LINE",
"176 527 LINE",
"178 527 LINE",
"178 655 LINE",
"120 615 LINE",
"120 527 LINE",
"122 527 LINE",
"122 523 LINE",
"118 523 LINE",
"118 525 LINE",
"30 525 LINE",
"30 470 LINE",
"118 470 LINE",
"118 472 LINE",
"122 472 LINE",
"122 468 LINE",
"120 468 LINE",
"120 126 LINE SMOOTH",
"120 6 OFFCURVE",
"203 -2 OFFCURVE",
"273 -2 CURVE SMOOTH",
"296 -2 OFFCURVE",
"320 2 OFFCURVE",
"336 6 CURVE",
"305 -16 LINE"
);
}
);
width = 355;
},
{
layerId = "C89E7CB9-06CC-4D85-8773-832B05BA201B";
paths = (
{
closed = 1;
nodes = (
"390 146 LINE",
"445 118 LINE",
"413 113 OFFCURVE",
"377 112 OFFCURVE",
"361 112 CURVE SMOOTH",
"309 112 OFFCURVE",
"256 122 OFFCURVE",
"256 168 CURVE SMOOTH",
"256 416 LINE",
"254 416 LINE",
"254 420 LINE",
"258 420 LINE",
"258 418 LINE",
"370 418 LINE",
"370 538 LINE",
"258 538 LINE",
"258 536 LINE",
"254 536 LINE",
"254 540 LINE",
"256 540 LINE",
"256 699 LINE",
"120 659 LINE",
"120 540 LINE",
"122 540 LINE",
"122 536 LINE",
"118 536 LINE",
"118 538 LINE",
"20 538 LINE",
"20 418 LINE",
"118 418 LINE",
"118 420 LINE",
"122 420 LINE",
"122 416 LINE",
"120 416 LINE",
"120 160 LINE SMOOTH",
"120 13 OFFCURVE",
"244 -8 OFFCURVE",
"313 -8 CURVE SMOOTH",
"343 -8 OFFCURVE",
"414 -4 OFFCURVE",
"448 7 CURVE",
"390 -60 LINE"
);
}
);
width = 430;
}
);
unicode = 0074;
},
{
color = 7;
glyphname = t.ss15;
lastChange = "2020-05-21 12:56:32 +0000";
layers = (
{
layerId = "E773EBAE-783E-4D91-931E-4E5C9CF0967C";
paths = (
{
closed = 1;
nodes = (
"305 71 LINE",
"335 57 LINE",
"318 54 OFFCURVE",
"297 53 OFFCURVE",
"275 53 CURVE SMOOTH",
"197 53 OFFCURVE",
"178 68 OFFCURVE",
"178 142 CURVE SMOOTH",
"178 468 LINE",
"176 468 LINE",
"176 472 LINE",
"180 472 LINE",
"180 470 LINE",
"290 470 LINE",
"290 525 LINE",
"180 525 LINE",
"180 523 LINE",
"176 523 LINE",
"176 527 LINE",
"178 527 LINE",
"178 655 LINE",
"130 655 LINE",
"120 527 LINE",
"122 527 LINE",
"122 523 LINE",
"118 523 LINE",
"118 525 LINE",
"30 525 LINE",
"30 470 LINE",
"118 470 LINE",
"118 472 LINE",
"122 472 LINE",
"122 468 LINE",
"120 468 LINE",
"120 126 LINE SMOOTH",
"120 6 OFFCURVE",
"203 -2 OFFCURVE",
"273 -2 CURVE SMOOTH",
"296 -2 OFFCURVE",
"320 2 OFFCURVE",
"336 6 CURVE",
"305 -16 LINE"
);
}
);
width = 355;
},
{
layerId = "C89E7CB9-06CC-4D85-8773-832B05BA201B";
paths = (
{
closed = 1;
nodes = (
"390 146 LINE",
"445 118 LINE",
"413 113 OFFCURVE",
"377 112 OFFCURVE",
"361 112 CURVE SMOOTH",
"309 112 OFFCURVE",
"256 122 OFFCURVE",
"256 168 CURVE SMOOTH",
"256 416 LINE",
"254 416 LINE",
"254 420 LINE",
"258 420 LINE",
"258 418 LINE",
"370 418 LINE",
"370 538 LINE",
"258 538 LINE",
"258 536 LINE",
"254 536 LINE",
"254 540 LINE",
"256 540 LINE",
"256 689 LINE",
"140 689 LINE",
"120 540 LINE",
"122 540 LINE",
"122 536 LINE",
"118 536 LINE",
"118 538 LINE",
"20 538 LINE",
"20 418 LINE",
"118 418 LINE",
"118 420 LINE",
"122 420 LINE",
"122 416 LINE",
"120 416 LINE",
"120 160 LINE SMOOTH",
"120 13 OFFCURVE",
"244 -8 OFFCURVE",
"313 -8 CURVE SMOOTH",
"343 -8 OFFCURVE",
"414 -4 OFFCURVE",
"448 7 CURVE",
"390 -60 LINE"
);
}
);
width = 430;
}
);
},
{
color = 6;
glyphname = u;
lastChange = "2020-04-24 18:54:52 +0000";
layers = (
{
background = {
paths = (
{
closed = 1;
nodes = (
"510 525 LINE",
"450 525 LINE",
"450 83 LINE",
"450 77 LINE",
"450 55 LINE",
"450 47 LINE",
"460 0 LINE",
"510 0 LINE"
);
},
{
closed = 1;
nodes = (
"468 210 LINE",
"450 210 LINE",
"450 88 OFFCURVE",
"354 47 OFFCURVE",
"290 47 CURVE SMOOTH",
"199 47 OFFCURVE",
"150 100 OFFCURVE",
"150 200 CURVE SMOOTH",
"150 525 LINE",
"90 525 LINE",
"90 184 LINE SMOOTH",
"90 62 OFFCURVE",
"156 -8 OFFCURVE",
"273 -8 CURVE SMOOTH",
"358 -8 OFFCURVE",
"425 39 OFFCURVE",
"450 93 CURVE",
"459 93 LINE",
"468 93 LINE"
);
}
);
};
layerId = "E773EBAE-783E-4D91-931E-4E5C9CF0967C";
paths = (
{
closed = 1;
nodes = (
"379 -8 OFFCURVE",
"428 54 OFFCURVE",
"446 91 CURVE",
"446 93 LINE",
"450 93 LINE",
"450 89 LINE",
"460 0 LINE",
"510 0 LINE",
"510 525 LINE",
"450 525 LINE",
"450 210 LINE SMOOTH",
"450 88 OFFCURVE",
"359 47 OFFCURVE",
"284 47 CURVE SMOOTH",
"198 47 OFFCURVE",
"150 100 OFFCURVE",
"150 200 CURVE SMOOTH",
"150 525 LINE",
"90 525 LINE",
"90 184 LINE SMOOTH",
"90 62 OFFCURVE",
"158 -8 OFFCURVE",
"272 -8 CURVE SMOOTH"
);
}
);
width = 600;
},
{
background = {
paths = (
{
closed = 1;
nodes = (
"385 -8 OFFCURVE",
"419 76 OFFCURVE",
"426 94 CURVE",
"426 96 LINE",
"430 96 LINE",
"430 92 LINE",
"440 0 LINE",
"570 0 LINE",
"570 525 LINE",
"430 525 LINE",
"430 245 LINE SMOOTH",
"430 154 OFFCURVE",
"385 110 OFFCURVE",
"319 110 CURVE SMOOTH",
"259 110 OFFCURVE",
"220 141 OFFCURVE",
"220 230 CURVE SMOOTH",
"220 525 LINE",
"80 525 LINE",
"80 196 LINE SMOOTH",
"80 72 OFFCURVE",
"138 -8 OFFCURVE",
"264 -8 CURVE SMOOTH"
);
}
);
};
layerId = "C89E7CB9-06CC-4D85-8773-832B05BA201B";
paths = (
{
closed = 1;
nodes = (
"385 -8 OFFCURVE",
"419 76 OFFCURVE",
"426 94 CURVE",
"426 96 LINE",
"430 96 LINE",
"430 92 LINE",
"440 0 LINE",
"570 0 LINE",
"570 525 LINE",
"430 525 LINE",
"430 245 LINE SMOOTH",
"430 157 OFFCURVE",
"387 110 OFFCURVE",
"318 110 CURVE SMOOTH",
"261 110 OFFCURVE",
"220 143 OFFCURVE",
"220 230 CURVE SMOOTH",
"220 525 LINE",
"80 525 LINE",
"80 202 LINE SMOOTH",
"80 79 OFFCURVE",
"137 -8 OFFCURVE",
"262 -8 CURVE SMOOTH"
);
}
);
width = 650;
}
);
leftMetricsKey = "=n";
rightMetricsKey = "=n";
unicode = 0075;
},
{
color = 6;
glyphname = v;
lastChange = "2020-04-24 18:54:52 +0000";
layers = (
{
background = {
paths = (
{
closed = 1;
nodes = (
"51 0 LINE",
"111 0 LINE",
"111 432 LINE",
"109 432 LINE",
"109 436 LINE",
"111 436 LINE",
"111 525 LINE",
"51 525 LINE"
);
},
{
closed = 1;
nodes = (
"109 315 LINE",
"111 315 LINE",
"111 437 OFFCURVE",
"207 478 OFFCURVE",
"271 478 CURVE SMOOTH",
"362 478 OFFCURVE",
"411 425 OFFCURVE",
"411 325 CURVE SMOOTH",
"411 0 LINE",
"471 0 LINE",
"471 341 LINE SMOOTH",
"471 463 OFFCURVE",
"405 533 OFFCURVE",
"288 533 CURVE SMOOTH",
"184 533 OFFCURVE",
"131 471 OFFCURVE",
"113 434 CURVE",
"113 432 LINE",
"109 432 LINE"
);
}
);
};
layerId = "E773EBAE-783E-4D91-931E-4E5C9CF0967C";
paths = (
{
closed = 1;
nodes = (
"300 0 LINE",
"490 525 LINE",
"422 525 LINE",
"262 56 LINE",
"262 52 LINE",
"258 52 LINE",
"258 56 LINE",
"98 525 LINE",
"30 525 LINE",
"220 0 LINE"
);
}
);
width = 520;
},
{
layerId = "C89E7CB9-06CC-4D85-8773-832B05BA201B";
paths = (
{
closed = 1;
nodes = (
"359 0 LINE",
"540 525 LINE",
"392 525 LINE",
"282 159 LINE",
"282 155 LINE",
"278 155 LINE",
"278 159 LINE",
"168 525 LINE",
"20 525 LINE",
"201 0 LINE"
);
}
);
width = 560;
}
);
rightMetricsKey = "=|";
unicode = 0076;
},
{
color = 6;
glyphname = w;
lastChange = "2020-04-24 18:54:52 +0000";
layers = (
{
background = {
paths = (
{
closed = 1;
nodes = (
"306 0 LINE",
"495 525 LINE",
"426 525 LINE",
"267 68 LINE",
"267 64 LINE",
"264 64 LINE",
"231 0 LINE"
);
},
{
closed = 1;
nodes = (
"299 0 LINE",
"266 64 LINE",
"263 64 LINE",
"263 68 LINE",
"104 525 LINE",
"35 525 LINE",
"224 0 LINE"
);
}
);
};
layerId = "E773EBAE-783E-4D91-931E-4E5C9CF0967C";
paths = (
{
closed = 1;
nodes = (
"259 0 LINE",
"370 444 LINE",
"370 448 LINE",
"374 448 LINE",
"374 444 LINE",
"481 0 LINE",
"558 0 LINE",
"710 525 LINE",
"643 525 LINE",
"523 77 LINE",
"523 73 LINE",
"519 73 LINE",
"519 77 LINE",
"411 525 LINE",
"333 525 LINE",
"221 77 LINE",
"221 73 LINE",
"217 73 LINE",
"217 77 LINE",
"97 525 LINE",
"30 525 LINE",
"182 0 LINE"
);
}
);
width = 740;
},
{
background = {
paths = (
{
closed = 1;
nodes = (
"361 0 LINE",
"546 525 LINE",
"397 525 LINE",
"288 189 LINE",
"288 185 LINE",
"285 185 LINE",
"266 0 LINE"
);
},
{
closed = 1;
nodes = (
"306 0 LINE",
"287 185 LINE",
"284 185 LINE",
"284 189 LINE",
"175 525 LINE",
"26 525 LINE",
"211 0 LINE"
);
}
);
};
layerId = "C89E7CB9-06CC-4D85-8773-832B05BA201B";
paths = (
{
closed = 1;
nodes = (
"327 0 LINE",
"418 390 LINE",
"418 394 LINE",
"421 394 LINE",
"421 390 LINE",
"517 0 LINE",
"681 0 LINE",
"820 525 LINE",
"674 525 LINE",
"593 127 LINE",
"593 123 LINE",
"589 123 LINE",
"589 127 LINE",
"491 525 LINE",
"347 525 LINE",
"254 127 LINE",
"254 123 LINE",
"250 123 LINE",
"250 127 LINE",
"166 525 LINE",
"20 525 LINE",
"160 0 LINE"
);
}
);
width = 840;
}
);
leftMetricsKey = "=v";
rightMetricsKey = "=v";
unicode = 0077;
},
{
color = 6;
glyphname = x;
lastChange = "2020-05-08 11:03:55 +0000";
layers = (
{
background = {
paths = (
{
closed = 1;
nodes = (
"78 0 LINE",
"243 227 LINE",
"243 231 LINE",
"247 231 LINE",
"247 227 LINE",
"396 0 LINE",
"470 0 LINE",
"282 275 LINE",
"278 275 LINE",
"278 279 LINE",
"282 279 LINE",
"460 525 LINE",
"386 525 LINE",
"247 324 LINE",
"247 320 LINE",
"243 320 LINE",
"243 324 LINE",
"110 525 LINE",
"34 525 LINE",
"208 279 LINE",
"212 279 LINE",
"212 275 LINE",
"208 275 LINE",
"10 0 LINE"
);
}
);
};
layerId = "E773EBAE-783E-4D91-931E-4E5C9CF0967C";
paths = (
{
closed = 1;
nodes = (
"93 0 LINE",
"241 231 LINE",
"241 235 LINE",
"245 235 LINE",
"245 231 LINE",
"399 0 LINE",
"475 0 LINE",
"285 275 LINE",
"283 275 LINE",
"283 279 LINE",
"287 279 LINE",
"458 525 LINE",
"385 525 LINE",
"251 322 LINE",
"251 318 LINE",
"247 318 LINE",
"247 322 LINE",
"112 525 LINE",
"36 525 LINE",
"207 279 LINE",
"209 279 LINE",
"209 275 LINE",
"205 275 LINE",
"20 0 LINE"
);
}
);
width = 505;
},
{
background = {
paths = (
{
closed = 1;
nodes = (
"192 279 LINE",
"188 279 LINE",
"-19 0 LINE",
"144 0 LINE",
"270 168 LINE",
"270 172 LINE",
"274 172 LINE",
"274 168 LINE",
"386 0 LINE",
"561 0 LINE",
"353 279 LINE",
"349 279 LINE",
"349 281 LINE",
"192 281 LINE"
);
}
);
};
layerId = "C89E7CB9-06CC-4D85-8773-832B05BA201B";
paths = (
{
closed = 1;
nodes = (
"168 0 LINE",
"269 183 LINE",
"269 187 LINE",
"273 187 LINE",
"273 183 LINE",
"376 0 LINE",
"544 0 LINE",
"361 273 LINE",
"359 273 LINE",
"359 277 LINE",
"363 277 LINE",
"525 525 LINE",
"364 525 LINE",
"274 366 LINE",
"274 362 LINE",
"270 362 LINE",
"270 366 LINE",
"178 525 LINE",
"12 525 LINE",
"181 277 LINE",
"183 277 LINE",
"183 273 LINE",
"179 273 LINE",
"10 0 LINE"
);
}
);
width = 564;
}
);
leftMetricsKey = "=v-10";
rightMetricsKey = "=v";
unicode = 0078;
},
{
color = 6;
glyphname = y;
lastChange = "2020-04-24 18:54:52 +0000";
layers = (
{
background = {
paths = (
{
closed = 1;
nodes = (
"270 0 LINE",
"239 80 LINE",
"236 80 LINE",
"236 84 LINE",
"75 525 LINE",
"6 525 LINE",
"203 2 LINE",
"205 2 LINE",
"205 0 LINE"
);
},
{
closed = 1;
nodes = (
"85 -200 OFFCURVE",
"92 -200 OFFCURVE",
"107 -199 CURVE SMOOTH",
"191 -193 OFFCURVE",
"223 -131 OFFCURVE",
"273 0 CURVE",
"205 0 LINE",
"205 -2 LINE",
"203 -2 LINE",
"202 -5 LINE",
"168 -100 OFFCURVE",
"149 -150 OFFCURVE",
"66 -150 CURVE",
"66 -200 LINE"
);
},
{
closed = 1;
nodes = (
"273 0 LINE",
"466 525 LINE",
"397 525 LINE",
"240 84 LINE",
"240 80 LINE",
"237 80 LINE",
"207 0 LINE"
);
}
);
};
layerId = "E773EBAE-783E-4D91-931E-4E5C9CF0967C";
paths = (
{
closed = 1;
nodes = (
"34 -193 LINE",
"55 -196 OFFCURVE",
"76 -197 OFFCURVE",
"90 -197 CURVE SMOOTH",
"172 -197 OFFCURVE",
"211 -163 OFFCURVE",
"250 -59 CURVE SMOOTH",
"466 525 LINE",
"398 525 LINE",
"241 87 LINE",
"241 83 LINE",
"237 83 LINE",
"237 87 LINE",
"78 525 LINE",
"10 525 LINE",
"208 -2 LINE",
"210 -2 LINE",
"210 -6 LINE",
"206 -6 LINE",
"162 -120 OFFCURVE",
"140 -142 OFFCURVE",
"85 -142 CURVE SMOOTH",
"73 -142 OFFCURVE",
"58 -141 OFFCURVE",
"43 -137 CURVE",
"66 -118 LINE",
"66 -215 LINE"
);
}
);
width = 496;
},
{
background = {
paths = (
{
closed = 1;
nodes = (
"335 0 LINE",
"520 525 LINE",
"371 525 LINE",
"262 189 LINE",
"262 185 LINE",
"259 185 LINE",
"259 0 LINE"
);
},
{
closed = 1;
nodes = (
"226 -203 OFFCURVE",
"284 -137 OFFCURVE",
"316 -51 CURVE SMOOTH",
"335 0 LINE",
"189 0 LINE",
"189 -2 LINE",
"185 -2 LINE",
"183 -8 LINE",
"162 -70 OFFCURVE",
"150 -70 OFFCURVE",
"60 -70 CURVE",
"60 -200 LINE",
"67 -201 OFFCURVE",
"108 -203 OFFCURVE",
"134 -203 CURVE SMOOTH"
);
},
{
closed = 1;
nodes = (
"261 0 LINE",
"261 185 LINE",
"258 185 LINE",
"258 189 LINE",
"151 525 LINE",
"0 525 LINE",
"185 2 LINE",
"189 2 LINE",
"189 0 LINE"
);
}
);
};
layerId = "C89E7CB9-06CC-4D85-8773-832B05BA201B";
paths = (
{
closed = 1;
nodes = (
"13 -192 LINE",
"49 -199 OFFCURVE",
"85 -202 OFFCURVE",
"111 -202 CURVE SMOOTH",
"210 -202 OFFCURVE",
"277 -161 OFFCURVE",
"316 -51 CURVE SMOOTH",
"520 525 LINE",
"371 525 LINE",
"262 185 LINE",
"262 181 LINE",
"258 181 LINE",
"258 185 LINE",
"151 525 LINE",
"0 525 LINE",
"185 2 LINE",
"189 2 LINE",
"189 -2 LINE",
"185 -2 LINE",
"173 -54 OFFCURVE",
"153 -81 OFFCURVE",
"86 -81 CURVE SMOOTH",
"63 -81 OFFCURVE",
"39 -78 OFFCURVE",
"-5 -71 CURVE",
"60 -12 LINE",
"60 -266 LINE"
);
}
);
width = 540;
}
);
rightMetricsKey = "=v";
unicode = 0079;
},
{
color = 7;
glyphname = y.ss04;
lastChange = "2020-05-21 12:23:47 +0000";
layers = (
{
background = {
paths = (
{
closed = 1;
nodes = (
"270 0 LINE",
"239 80 LINE",
"236 80 LINE",
"236 84 LINE",
"75 525 LINE",
"6 525 LINE",
"203 2 LINE",
"205 2 LINE",
"205 0 LINE"
);
},
{
closed = 1;
nodes = (
"85 -200 OFFCURVE",
"92 -200 OFFCURVE",
"107 -199 CURVE SMOOTH",
"191 -193 OFFCURVE",
"223 -131 OFFCURVE",
"273 0 CURVE",
"205 0 LINE",
"205 -2 LINE",
"203 -2 LINE",
"202 -5 LINE",
"168 -100 OFFCURVE",
"149 -150 OFFCURVE",
"66 -150 CURVE",
"66 -200 LINE"
);
},
{
closed = 1;
nodes = (
"273 0 LINE",
"466 525 LINE",
"397 525 LINE",
"240 84 LINE",
"240 80 LINE",
"237 80 LINE",
"207 0 LINE"
);
}
);
};
layerId = "E773EBAE-783E-4D91-931E-4E5C9CF0967C";
paths = (
{
closed = 1;
nodes = (
"199 -200 LINE",
"466 525 LINE",
"400 525 LINE",
"243 82 LINE",
"243 78 LINE",
"239 78 LINE",
"239 82 LINE",
"76 525 LINE",
"10 525 LINE",
"210 4 LINE",
"214 4 LINE",
"214 0 LINE",
"210 0 LINE",
"132 -200 LINE"
);
}
);
width = 496;
},
{
background = {
paths = (
{
closed = 1;
nodes = (
"335 0 LINE",
"520 525 LINE",
"371 525 LINE",
"262 189 LINE",
"262 185 LINE",
"259 185 LINE",
"259 0 LINE"
);
},
{
closed = 1;
nodes = (
"226 -203 OFFCURVE",
"284 -137 OFFCURVE",
"316 -51 CURVE SMOOTH",
"335 0 LINE",
"189 0 LINE",
"189 -2 LINE",
"185 -2 LINE",
"183 -8 LINE",
"162 -70 OFFCURVE",
"150 -70 OFFCURVE",
"60 -70 CURVE",
"60 -200 LINE",
"67 -201 OFFCURVE",
"108 -203 OFFCURVE",
"134 -203 CURVE SMOOTH"
);
},
{
closed = 1;
nodes = (
"261 0 LINE",
"261 185 LINE",
"258 185 LINE",
"258 189 LINE",
"151 525 LINE",
"0 525 LINE",
"185 2 LINE",
"189 2 LINE",
"189 0 LINE"
);
}
);
};
layerId = "C89E7CB9-06CC-4D85-8773-832B05BA201B";
paths = (
{
closed = 1;
nodes = (
"265 -200 LINE",
"520 525 LINE",
"371 525 LINE",
"262 169 LINE",
"262 165 LINE",
"258 165 LINE",
"258 169 LINE",
"149 525 LINE",
"0 525 LINE",
"194 4 LINE",
"198 4 LINE",
"198 0 LINE",
"194 0 LINE",
"114 -200 LINE"
);
}
);
width = 540;
}
);
leftMetricsKey = "=y";
rightMetricsKey = "=y";
},
{
color = 6;
glyphname = z;
lastChange = "2020-05-08 11:05:28 +0000";
layers = (
{
background = {
paths = (
{
closed = 1;
nodes = (
"24 0 LINE",
"84 0 LINE",
"84 432 LINE",
"82 432 LINE",
"82 436 LINE",
"84 436 LINE",
"84 525 LINE",
"24 525 LINE"
);
},
{
closed = 1;
nodes = (
"82 315 LINE",
"84 315 LINE",
"84 437 OFFCURVE",
"180 478 OFFCURVE",
"244 478 CURVE SMOOTH",
"335 478 OFFCURVE",
"384 425 OFFCURVE",
"384 325 CURVE SMOOTH",
"384 0 LINE",
"444 0 LINE",
"444 341 LINE SMOOTH",
"444 463 OFFCURVE",
"378 533 OFFCURVE",
"261 533 CURVE SMOOTH",
"157 533 OFFCURVE",
"104 471 OFFCURVE",
"86 434 CURVE",
"86 432 LINE",
"82 432 LINE"
);
}
);
};
layerId = "E773EBAE-783E-4D91-931E-4E5C9CF0967C";
paths = (
{
closed = 1;
nodes = (
"435 0 LINE",
"435 60 LINE",
"109 60 LINE",
"109 58 LINE",
"105 58 LINE",
"105 62 LINE",
"107 62 LINE",
"429 476 LINE",
"429 525 LINE",
"52 525 LINE",
"52 470 LINE",
"351 470 LINE",
"351 472 LINE",
"355 472 LINE",
"355 468 LINE",
"353 468 LINE",
"25 55 LINE",
"25 0 LINE"
);
}
);
width = 465;
},
{
background = {
paths = (
{
closed = 1;
nodes = (
"216 132 LINE",
"218 132 LINE",
"465 425 LINE",
"465 525 LINE",
"35 525 LINE",
"35 405 LINE",
"295 405 LINE",
"295 407 LINE",
"299 407 LINE",
"299 403 LINE",
"297 403 LINE",
"15 110 LINE",
"15 0 LINE",
"475 0 LINE",
"475 130 LINE",
"220 130 LINE",
"220 128 LINE",
"216 128 LINE"
);
}
);
};
layerId = "C89E7CB9-06CC-4D85-8773-832B05BA201B";
paths = (
{
closed = 1;
nodes = (
"465 0 LINE",
"465 120 LINE",
"208 120 LINE",
"208 118 LINE",
"204 118 LINE",
"204 122 LINE",
"206 122 LINE",
"456 425 LINE",
"456 525 LINE",
"24 525 LINE",
"24 405 LINE",
"289 405 LINE",
"289 407 LINE",
"293 407 LINE",
"293 403 LINE",
"291 403 LINE",
"15 110 LINE",
"15 0 LINE"
);
}
);
width = 485;
}
);
unicode = 007A;
},
{
color = 10;
glyphname = A.sc;
lastChange = "2020-05-21 16:40:27 +0000";
layers = (
{
background = {
paths = (
{
closed = 1;
nodes = (
"89 0 LINE",
"145 158 LINE",
"143 158 LINE",
"143 162 LINE",
"147 162 LINE",
"147 159 LINE",
"377 159 LINE",
"377 162 LINE",
"381 162 LINE",
"381 158 LINE",
"379 158 LINE",
"434 0 LINE",
"500 0 LINE",
"299 551 LINE",
"224 551 LINE",
"25 0 LINE"
);
},
{
closed = 1;
nodes = (
"161 211 LINE",
"163 211 LINE",
"260 487 LINE",
"260 490 LINE",
"263 490 LINE",
"263 487 LINE",
"360 211 LINE",
"362 211 LINE",
"362 207 LINE",
"358 207 LINE",
"358 209 LINE",
"165 209 LINE",
"165 207 LINE",
"161 207 LINE"
);
}
);
};
layerId = "E773EBAE-783E-4D91-931E-4E5C9CF0967C";
paths = (
{
closed = 1;
nodes = (
"89 0 LINE",
"144 155 LINE",
"142 155 LINE",
"142 159 LINE",
"146 159 LINE",
"146 157 LINE",
"378 157 LINE",
"378 160 LINE",
"382 160 LINE",
"382 156 LINE",
"380 156 LINE",
"434 0 LINE",
"500 0 LINE",
"299 551 LINE",
"224 551 LINE",
"25 0 LINE"
);
},
{
closed = 1;
nodes = (
"161 211 LINE",
"163 211 LINE",
"259 487 LINE",
"259 490 LINE",
"263 490 LINE",
"263 487 LINE",
"360 211 LINE",
"362 211 LINE",
"362 207 LINE",
"358 207 LINE",
"358 209 LINE",
"165 209 LINE",
"165 207 LINE",
"161 207 LINE"
);
}
);
width = 525;
},
{
background = {
paths = (
{
closed = 1;
nodes = (
"163 0 LINE",
"199 115 LINE",
"197 115 LINE",
"197 118 LINE",
"200 118 LINE",
"200 117 LINE",
"370 117 LINE",
"370 119 LINE",
"374 119 LINE",
"374 115 LINE",
"372 115 LINE",
"408 0 LINE",
"558 0 LINE",
"369 550 LINE",
"201 550 LINE",
"13 0 LINE"
);
},
{
closed = 1;
nodes = (
"229 224 LINE",
"231 224 LINE",
"284 396 LINE",
"284 399 LINE",
"287 399 LINE",
"287 396 LINE",
"340 224 LINE",
"342 224 LINE",
"342 220 LINE",
"338 220 LINE",
"338 222 LINE",
"233 222 LINE",
"233 220 LINE",
"229 220 LINE"
);
}
);
};
layerId = "C89E7CB9-06CC-4D85-8773-832B05BA201B";
paths = (
{
closed = 1;
nodes = (
"161 0 LINE",
"194 105 LINE",
"192 105 LINE",
"192 109 LINE",
"196 109 LINE",
"196 107 LINE",
"373 107 LINE",
"373 109 LINE",
"377 109 LINE",
"377 105 LINE",
"375 105 LINE",
"408 0 LINE",
"558 0 LINE",
"369 550 LINE",
"204 550 LINE",
"15 0 LINE"
);
},
{
closed = 1;
nodes = (
"224 214 LINE",
"226 214 LINE",
"283 396 LINE",
"283 400 LINE",
"287 400 LINE",
"287 396 LINE",
"343 214 LINE",
"345 214 LINE",
"345 210 LINE",
"341 210 LINE",
"341 212 LINE",
"228 212 LINE",
"228 210 LINE",
"224 210 LINE"
);
}
);
width = 573;
}
);
leftMetricsKey = "=A+5";
rightMetricsKey = "=A+5";
},
{
color = 10;
glyphname = B.sc;
lastChange = "2020-05-21 16:40:40 +0000";
layers = (
{
background = {
paths = (
{
closed = 1;
nodes = (
"336 0 LINE SMOOTH",
"446 0 OFFCURVE",
"500 82 OFFCURVE",
"500 154 CURVE SMOOTH",
"500 220 OFFCURVE",
"460 266 OFFCURVE",
"413 288 CURVE",
"410 288 LINE",
"410 291 LINE",
"413 291 LINE",
"446 313 OFFCURVE",
"479 357 OFFCURVE",
"479 412 CURVE SMOOTH",
"479 482 OFFCURVE",
"424 551 OFFCURVE",
"319 551 CURVE SMOOTH",
"106 551 LINE",
"106 0 LINE"
);
},
{
closed = 1;
nodes = (
"157 45 LINE",
"157 261 LINE",
"157 265 LINE",
"160 265 LINE",
"160 263 LINE",
"319 263 LINE SMOOTH",
"401 263 OFFCURVE",
"445 209 OFFCURVE",
"445 154 CURVE SMOOTH",
"445 100 OFFCURVE",
"404 43 OFFCURVE",
"319 43 CURVE SMOOTH",
"160 43 LINE",
"160 42 LINE",
"157 42 LINE"
);
},
{
closed = 1;
nodes = (
"157 307 LINE",
"157 506 LINE",
"157 509 LINE",
"160 509 LINE",
"160 508 LINE",
"303 508 LINE SMOOTH",
"385 508 OFFCURVE",
"424 466 OFFCURVE",
"424 412 CURVE SMOOTH",
"424 359 OFFCURVE",
"388 306 OFFCURVE",
"303 306 CURVE SMOOTH",
"160 306 LINE",
"160 304 LINE",
"157 304 LINE"
);
}
);
};
layerId = "E773EBAE-783E-4D91-931E-4E5C9CF0967C";
paths = (
{
closed = 1;
nodes = (
"326 0 LINE SMOOTH",
"440 0 OFFCURVE",
"500 74 OFFCURVE",
"500 154 CURVE SMOOTH",
"500 222 OFFCURVE",
"457 265 OFFCURVE",
"410 287 CURVE",
"406 287 LINE",
"406 291 LINE",
"410 291 LINE",
"443 313 OFFCURVE",
"479 347 OFFCURVE",
"479 407 CURVE SMOOTH",
"479 485 OFFCURVE",
"418 551 OFFCURVE",
"309 551 CURVE SMOOTH",
"95 551 LINE",
"95 0 LINE"
);
},
{
closed = 1;
nodes = (
"157 57 LINE",
"157 255 LINE",
"157 259 LINE",
"161 259 LINE",
"161 257 LINE",
"312 257 LINE SMOOTH",
"394 257 OFFCURVE",
"438 209 OFFCURVE",
"438 154 CURVE SMOOTH",
"438 101 OFFCURVE",
"397 55 OFFCURVE",
"312 55 CURVE SMOOTH",
"161 55 LINE",
"161 53 LINE",
"157 53 LINE"
);
},
{
closed = 1;
nodes = (
"157 313 LINE",
"157 494 LINE",
"157 498 LINE",
"161 498 LINE",
"161 496 LINE",
"298 496 LINE SMOOTH",
"380 496 OFFCURVE",
"417 457 OFFCURVE",
"417 407 CURVE SMOOTH",
"417 359 OFFCURVE",
"383 311 OFFCURVE",
"298 311 CURVE SMOOTH",
"161 311 LINE",
"161 309 LINE",
"157 309 LINE"
);
}
);
width = 575;
},
{
background = {
paths = (
{
closed = 1;
nodes = (
"343 0 LINE SMOOTH",
"465 0 OFFCURVE",
"534 80 OFFCURVE",
"534 169 CURVE SMOOTH",
"534 232 OFFCURVE",
"498 268 OFFCURVE",
"461 293 CURVE",
"457 293 LINE",
"457 296 LINE",
"461 296 LINE",
"486 319 OFFCURVE",
"510 346 OFFCURVE",
"510 395 CURVE SMOOTH",
"510 481 OFFCURVE",
"442 551 OFFCURVE",
"320 551 CURVE SMOOTH",
"85 551 LINE",
"85 0 LINE"
);
},
{
closed = 1;
nodes = (
"199 92 LINE",
"199 246 LINE",
"199 250 LINE",
"202 250 LINE",
"202 248 LINE",
"324 248 LINE SMOOTH",
"388 248 OFFCURVE",
"416 209 OFFCURVE",
"416 169 CURVE SMOOTH",
"416 130 OFFCURVE",
"388 91 OFFCURVE",
"324 91 CURVE SMOOTH",
"202 91 LINE",
"202 89 LINE",
"199 89 LINE"
);
},
{
closed = 1;
nodes = (
"199 328 LINE",
"199 459 LINE",
"198 462 LINE",
"202 462 LINE",
"202 461 LINE",
"310 461 LINE SMOOTH",
"370 461 OFFCURVE",
"392 427 OFFCURVE",
"392 395 CURVE SMOOTH",
"392 364 OFFCURVE",
"370 327 OFFCURVE",
"310 327 CURVE SMOOTH",
"202 327 LINE",
"202 325 LINE",
"199 325 LINE"
);
}
);
};
layerId = "C89E7CB9-06CC-4D85-8773-832B05BA201B";
paths = (
{
closed = 1;
nodes = (
"346 0 LINE SMOOTH",
"468 0 OFFCURVE",
"545 80 OFFCURVE",
"545 169 CURVE SMOOTH",
"545 248 OFFCURVE",
"483 281 OFFCURVE",
"462 292 CURVE",
"458 292 LINE",
"458 296 LINE",
"462 296 LINE",
"482 309 OFFCURVE",
"521 337 OFFCURVE",
"521 398 CURVE SMOOTH",
"521 484 OFFCURVE",
"445 551 OFFCURVE",
"323 551 CURVE SMOOTH",
"85 551 LINE",
"85 0 LINE"
);
},
{
closed = 1;
nodes = (
"225 102 LINE",
"225 239 LINE",
"225 243 LINE",
"229 243 LINE",
"229 241 LINE",
"317 241 LINE SMOOTH",
"370 241 OFFCURVE",
"405 220 OFFCURVE",
"405 172 CURVE SMOOTH",
"405 125 OFFCURVE",
"370 100 OFFCURVE",
"317 100 CURVE SMOOTH",
"229 100 LINE",
"229 98 LINE",
"225 98 LINE"
);
},
{
closed = 1;
nodes = (
"225 335 LINE",
"225 449 LINE",
"225 453 LINE",
"229 453 LINE",
"229 451 LINE",
"311 451 LINE SMOOTH",
"362 451 OFFCURVE",
"381 425 OFFCURVE",
"381 395 CURVE SMOOTH",
"381 365 OFFCURVE",
"362 333 OFFCURVE",
"311 333 CURVE SMOOTH",
"229 333 LINE",
"229 331 LINE",
"225 331 LINE"
);
}
);
width = 610;
}
);
leftMetricsKey = "=B+5";
rightMetricsKey = "=B+5";
},
{
color = 10;
glyphname = C.sc;
lastChange = "2020-05-21 16:40:40 +0000";
layers = (
{
background = {
paths = (
{
closed = 1;
nodes = (
"409 -8 OFFCURVE",
"488 57 OFFCURVE",
"521 160 CURVE",
"536 137 LINE",
"449 172 LINE",
"475 181 LINE",
"450 85 OFFCURVE",
"378 37 OFFCURVE",
"299 37 CURVE SMOOTH",
"199 37 OFFCURVE",
"111 122 OFFCURVE",
"111 273 CURVE SMOOTH",
"111 423 OFFCURVE",
"199 509 OFFCURVE",
"299 509 CURVE SMOOTH",
"369 509 OFFCURVE",
"430 472 OFFCURVE",
"463 402 CURVE",
"436 405 LINE",
"515 452 LINE",
"504 428 LINE",
"464 507 OFFCURVE",
"392 553 OFFCURVE",
"299 553 CURVE SMOOTH",
"168 553 OFFCURVE",
"56 443 OFFCURVE",
"56 273 CURVE SMOOTH",
"56 104 OFFCURVE",
"161 -8 OFFCURVE",
"299 -8 CURVE SMOOTH"
);
}
);
};
guideLines = (
{
angle = 90;
position = "{706, 135}";
}
);
layerId = "E773EBAE-783E-4D91-931E-4E5C9CF0967C";
paths = (
{
closed = 1;
nodes = (
"413 -8 OFFCURVE",
"500 56 OFFCURVE",
"534 159 CURVE",
"553 131 LINE",
"450 173 LINE",
"481 183 LINE",
"453 93 OFFCURVE",
"375 47 OFFCURVE",
"304 47 CURVE SMOOTH",
"209 47 OFFCURVE",
"119 129 OFFCURVE",
"119 273 CURVE SMOOTH",
"119 416 OFFCURVE",
"205 498 OFFCURVE",
"307 498 CURVE SMOOTH",
"360 498 OFFCURVE",
"424 476 OFFCURVE",
"472 395 CURVE",
"435 403 LINE",
"533 457 LINE",
"517 428 LINE",
"475 507 OFFCURVE",
"398 553 OFFCURVE",
"307 553 CURVE SMOOTH",
"171 553 OFFCURVE",
"55 443 OFFCURVE",
"55 273 CURVE SMOOTH",
"55 104 OFFCURVE",
"162 -8 OFFCURVE",
"304 -8 CURVE SMOOTH"
);
}
);
width = 583;
},
{
background = {
paths = (
{
closed = 1;
nodes = (
"427 195 LINE",
"403 144 OFFCURVE",
"367 112 OFFCURVE",
"311 112 CURVE SMOOTH",
"231 112 OFFCURVE",
"185 184 OFFCURVE",
"185 277 CURVE SMOOTH",
"185 372 OFFCURVE",
"239 438 OFFCURVE",
"311 438 CURVE SMOOTH",
"354 438 OFFCURVE",
"390 425 OFFCURVE",
"417 386 CURVE",
"527 449 LINE",
"481 518 OFFCURVE",
"409 558 OFFCURVE",
"310 558 CURVE SMOOTH",
"161 558 OFFCURVE",
"45 446 OFFCURVE",
"45 277 CURVE SMOOTH",
"45 107 OFFCURVE",
"154 -8 OFFCURVE",
"310 -8 CURVE SMOOTH",
"427 -8 OFFCURVE",
"505 54 OFFCURVE",
"546 145 CURVE"
);
}
);
};
layerId = "C89E7CB9-06CC-4D85-8773-832B05BA201B";
paths = (
{
closed = 1;
nodes = (
"442 -8 OFFCURVE",
"525 71 OFFCURVE",
"560 182 CURVE",
"600 122 LINE",
"373 211 LINE",
"440 239 LINE",
"425 161 OFFCURVE",
"377 112 OFFCURVE",
"311 112 CURVE SMOOTH",
"231 112 OFFCURVE",
"185 184 OFFCURVE",
"185 277 CURVE SMOOTH",
"185 372 OFFCURVE",
"235 438 OFFCURVE",
"317 438 CURVE SMOOTH",
"365 438 OFFCURVE",
"414 415 OFFCURVE",
"441 337 CURVE",
"366 363 LINE",
"578 478 LINE",
"546 415 LINE",
"503 505 OFFCURVE",
"422 558 OFFCURVE",
"316 558 CURVE SMOOTH",
"161 558 OFFCURVE",
"45 446 OFFCURVE",
"45 277 CURVE SMOOTH",
"45 107 OFFCURVE",
"154 -8 OFFCURVE",
"311 -8 CURVE SMOOTH"
);
}
);
width = 590;
}
);
leftMetricsKey = "=C+5";
rightMetricsKey = "=C+5";
},
{
color = 10;
glyphname = D.sc;
lastChange = "2020-05-21 16:40:40 +0000";
layers = (
{
background = {
paths = (
{
closed = 1;
nodes = (
"288 0 LINE SMOOTH",
"434 0 OFFCURVE",
"531 91 OFFCURVE",
"531 277 CURVE SMOOTH",
"531 463 OFFCURVE",
"433 551 OFFCURVE",
"288 551 CURVE SMOOTH",
"106 551 LINE",
"106 0 LINE"
);
},
{
closed = 1;
nodes = (
"157 45 LINE",
"157 506 LINE",
"157 509 LINE",
"160 509 LINE",
"160 508 LINE",
"288 508 LINE SMOOTH",
"396 508 OFFCURVE",
"480 444 OFFCURVE",
"480 277 CURVE SMOOTH",
"480 109 OFFCURVE",
"397 43 OFFCURVE",
"288 43 CURVE SMOOTH",
"160 43 LINE",
"160 42 LINE",
"157 42 LINE"
);
}
);
};
layerId = "E773EBAE-783E-4D91-931E-4E5C9CF0967C";
paths = (
{
closed = 1;
nodes = (
"277 0 LINE SMOOTH",
"423 0 OFFCURVE",
"525 96 OFFCURVE",
"525 282 CURVE SMOOTH",
"525 468 OFFCURVE",
"422 551 OFFCURVE",
"277 551 CURVE SMOOTH",
"95 551 LINE",
"95 0 LINE"
);
},
{
closed = 1;
nodes = (
"157 57 LINE",
"157 494 LINE",
"157 498 LINE",
"161 498 LINE",
"161 496 LINE",
"277 496 LINE SMOOTH",
"387 496 OFFCURVE",
"463 434 OFFCURVE",
"463 282 CURVE SMOOTH",
"463 130 OFFCURVE",
"387 55 OFFCURVE",
"277 55 CURVE SMOOTH",
"161 55 LINE",
"161 53 LINE",
"157 53 LINE"
);
}
);
width = 580;
},
{
background = {
paths = (
{
closed = 1;
nodes = (
"303 0 LINE SMOOTH",
"450 0 OFFCURVE",
"566 91 OFFCURVE",
"566 277 CURVE SMOOTH",
"566 463 OFFCURVE",
"449 551 OFFCURVE",
"303 551 CURVE SMOOTH",
"86 551 LINE",
"86 0 LINE"
);
},
{
closed = 1;
nodes = (
"200 92 LINE",
"200 459 LINE",
"200 462 LINE",
"203 462 LINE",
"203 461 LINE",
"303 461 LINE SMOOTH",
"396 461 OFFCURVE",
"452 398 OFFCURVE",
"452 277 CURVE SMOOTH",
"452 155 OFFCURVE",
"396 91 OFFCURVE",
"303 91 CURVE SMOOTH",
"203 91 LINE",
"203 89 LINE",
"200 89 LINE"
);
}
);
};
layerId = "C89E7CB9-06CC-4D85-8773-832B05BA201B";
paths = (
{
closed = 1;
nodes = (
"320 0 LINE SMOOTH",
"467 0 OFFCURVE",
"585 96 OFFCURVE",
"585 282 CURVE SMOOTH",
"585 468 OFFCURVE",
"466 551 OFFCURVE",
"320 551 CURVE SMOOTH",
"85 551 LINE",
"85 0 LINE"
);
},
{
closed = 1;
nodes = (
"225 112 LINE",
"225 439 LINE",
"225 443 LINE",
"229 443 LINE",
"229 441 LINE",
"299 441 LINE SMOOTH",
"389 441 OFFCURVE",
"445 392 OFFCURVE",
"445 282 CURVE SMOOTH",
"445 170 OFFCURVE",
"388 110 OFFCURVE",
"299 110 CURVE SMOOTH",
"229 110 LINE",
"229 108 LINE",
"225 108 LINE"
);
}
);
width = 630;
}
);
leftMetricsKey = "=D+5";
rightMetricsKey = "=D+5";
},
{
color = 10;
glyphname = E.sc;
lastChange = "2020-05-21 16:40:40 +0000";
layers = (
{
background = {
paths = (
{
closed = 1;
nodes = (
"441 0 LINE",
"441 47 LINE",
"160 47 LINE",
"160 46 LINE",
"157 46 LINE",
"157 49 LINE",
"157 257 LINE",
"157 260 LINE",
"160 260 LINE",
"160 258 LINE",
"417 258 LINE",
"417 302 LINE",
"160 302 LINE",
"160 300 LINE",
"157 300 LINE",
"157 303 LINE",
"157 502 LINE",
"157 506 LINE",
"160 506 LINE",
"160 504 LINE",
"441 504 LINE",
"441 551 LINE",
"106 551 LINE",
"106 0 LINE"
);
}
);
};
layerId = "E773EBAE-783E-4D91-931E-4E5C9CF0967C";
paths = (
{
closed = 1;
nodes = (
"445 0 LINE",
"445 60 LINE",
"161 60 LINE",
"161 58 LINE",
"157 58 LINE",
"157 62 LINE",
"157 252 LINE",
"157 256 LINE",
"161 256 LINE",
"161 254 LINE",
"415 254 LINE",
"415 309 LINE",
"161 309 LINE",
"161 307 LINE",
"157 307 LINE",
"157 311 LINE",
"157 491 LINE",
"157 495 LINE",
"161 495 LINE",
"161 493 LINE",
"442 493 LINE",
"442 550 LINE",
"95 550 LINE",
"95 0 LINE"
);
}
);
width = 480;
},
{
background = {
paths = (
{
closed = 1;
nodes = (
"473 0 LINE",
"473 102 LINE",
"228 102 LINE",
"228 101 LINE",
"225 101 LINE",
"225 104 LINE",
"225 233 LINE",
"225 236 LINE",
"228 236 LINE",
"228 235 LINE",
"450 235 LINE",
"450 325 LINE",
"228 325 LINE",
"228 324 LINE",
"225 324 LINE",
"225 327 LINE",
"225 455 LINE",
"225 458 LINE",
"228 458 LINE",
"228 457 LINE",
"471 457 LINE",
"471 551 LINE",
"111 551 LINE",
"111 0 LINE"
);
}
);
};
layerId = "C89E7CB9-06CC-4D85-8773-832B05BA201B";
paths = (
{
closed = 1;
nodes = (
"470 0 LINE",
"470 125 LINE",
"229 125 LINE",
"229 123 LINE",
"225 123 LINE",
"225 127 LINE",
"225 220 LINE",
"225 224 LINE",
"229 224 LINE",
"229 222 LINE",
"440 222 LINE",
"440 337 LINE",
"229 337 LINE",
"229 335 LINE",
"225 335 LINE",
"225 339 LINE",
"225 428 LINE",
"225 432 LINE",
"229 432 LINE",
"229 430 LINE",
"464 430 LINE",
"464 550 LINE",
"85 550 LINE",
"85 0 LINE"
);
}
);
width = 495;
}
);
leftMetricsKey = "=E+5";
rightMetricsKey = "=E+5";
},
{
color = 10;
glyphname = F.sc;
lastChange = "2020-05-21 16:40:40 +0000";
layers = (
{
background = {
paths = (
{
closed = 1;
nodes = (
"143 0 LINE",
"143 241 LINE",
"143 244 LINE",
"146 244 LINE",
"146 243 LINE",
"395 243 LINE",
"395 286 LINE",
"146 286 LINE",
"146 284 LINE",
"143 284 LINE",
"143 287 LINE",
"143 502 LINE",
"143 506 LINE",
"146 506 LINE",
"146 504 LINE",
"419 504 LINE",
"419 551 LINE",
"92 551 LINE",
"92 0 LINE"
);
}
);
};
layerId = "E773EBAE-783E-4D91-931E-4E5C9CF0967C";
paths = (
{
closed = 1;
nodes = (
"157 0 LINE",
"157 235 LINE",
"157 239 LINE",
"161 239 LINE",
"161 237 LINE",
"413 237 LINE",
"413 292 LINE",
"161 292 LINE",
"161 290 LINE",
"157 290 LINE",
"157 294 LINE",
"157 491 LINE",
"157 495 LINE",
"161 495 LINE",
"161 493 LINE",
"438 493 LINE",
"438 550 LINE",
"95 550 LINE",
"95 0 LINE"
);
}
);
width = 473;
},
{
background = {
paths = (
{
closed = 1;
nodes = (
"194 0 LINE",
"194 209 LINE",
"194 213 LINE",
"197 213 LINE",
"197 211 LINE",
"411 211 LINE",
"411 300 LINE",
"197 300 LINE",
"197 298 LINE",
"194 298 LINE",
"194 302 LINE",
"194 450 LINE",
"194 453 LINE",
"197 453 LINE",
"197 451 LINE",
"434 451 LINE",
"434 551 LINE",
"80 551 LINE",
"80 0 LINE"
);
}
);
};
layerId = "C89E7CB9-06CC-4D85-8773-832B05BA201B";
paths = (
{
closed = 1;
nodes = (
"225 0 LINE",
"225 196 LINE",
"225 200 LINE",
"229 200 LINE",
"229 198 LINE",
"435 198 LINE",
"435 313 LINE",
"229 313 LINE",
"229 311 LINE",
"225 311 LINE",
"225 315 LINE",
"225 423 LINE",
"225 427 LINE",
"229 427 LINE",
"229 425 LINE",
"460 425 LINE",
"460 550 LINE",
"85 550 LINE",
"85 0 LINE"
);
}
);
width = 485;
}
);
leftMetricsKey = "=F+5";
rightMetricsKey = "=F+5";
},
{
color = 10;
glyphname = G.sc;
lastChange = "2020-05-21 16:40:40 +0000";
layers = (
{
background = {
paths = (
{
closed = 1;
nodes = (
"449 -8 OFFCURVE",
"530 88 OFFCURVE",
"546 135 CURVE",
"546 275 LINE",
"327 275 LINE",
"327 231 LINE",
"497 231 LINE",
"497 233 LINE",
"501 233 LINE",
"501 230 LINE",
"499 230 LINE",
"499 140 LINE",
"480 98 OFFCURVE",
"411 35 OFFCURVE",
"320 35 CURVE SMOOTH",
"215 35 OFFCURVE",
"113 123 OFFCURVE",
"113 275 CURVE SMOOTH",
"113 426 OFFCURVE",
"210 512 OFFCURVE",
"320 512 CURVE SMOOTH",
"401 512 OFFCURVE",
"465 465 OFFCURVE",
"496 403 CURVE",
"470 406 LINE",
"546 452 LINE",
"532 423 LINE",
"501 489 OFFCURVE",
"430 556 OFFCURVE",
"318 556 CURVE SMOOTH",
"179 556 OFFCURVE",
"58 446 OFFCURVE",
"58 275 CURVE SMOOTH",
"58 101 OFFCURVE",
"186 -8 OFFCURVE",
"320 -8 CURVE SMOOTH"
);
}
);
};
layerId = "E773EBAE-783E-4D91-931E-4E5C9CF0967C";
paths = (
{
closed = 1;
nodes = (
"450 -5 OFFCURVE",
"534 91 OFFCURVE",
"551 136 CURVE",
"551 281 LINE",
"327 281 LINE",
"327 226 LINE",
"493 226 LINE",
"493 228 LINE",
"497 228 LINE",
"497 224 LINE",
"495 224 LINE",
"495 145 LINE",
"477 114 OFFCURVE",
"418 50 OFFCURVE",
"318 50 CURVE SMOOTH",
"212 50 OFFCURVE",
"119 125 OFFCURVE",
"119 276 CURVE SMOOTH",
"119 425 OFFCURVE",
"210 499 OFFCURVE",
"318 499 CURVE SMOOTH",
"395 499 OFFCURVE",
"455 460 OFFCURVE",
"486 400 CURVE",
"464 399 LINE",
"551 452 LINE",
"536 422 LINE",
"506 487 OFFCURVE",
"431 554 OFFCURVE",
"318 554 CURVE SMOOTH",
"178 554 OFFCURVE",
"55 445 OFFCURVE",
"55 276 CURVE SMOOTH",
"55 103 OFFCURVE",
"180 -5 OFFCURVE",
"318 -5 CURVE SMOOTH"
);
}
);
width = 606;
},
{
background = {
paths = (
{
closed = 1;
nodes = (
"457 -8 OFFCURVE",
"531 68 OFFCURVE",
"567 137 CURVE",
"567 304 LINE",
"330 304 LINE",
"330 204 LINE",
"449 204 LINE",
"449 206 LINE",
"453 206 LINE",
"453 202 LINE",
"451 202 LINE",
"451 178 LINE",
"431 145 OFFCURVE",
"387 112 OFFCURVE",
"325 112 CURVE SMOOTH",
"243 112 OFFCURVE",
"185 176 OFFCURVE",
"185 277 CURVE SMOOTH",
"185 375 OFFCURVE",
"240 438 OFFCURVE",
"325 438 CURVE SMOOTH",
"379 438 OFFCURVE",
"427 413 OFFCURVE",
"450 370 CURVE",
"428 383 LINE",
"586 479 LINE",
"558 431 LINE",
"535 482 OFFCURVE",
"458 558 OFFCURVE",
"325 558 CURVE SMOOTH",
"165 558 OFFCURVE",
"45 446 OFFCURVE",
"45 277 CURVE SMOOTH",
"45 107 OFFCURVE",
"166 -8 OFFCURVE",
"320 -8 CURVE SMOOTH"
);
}
);
};
layerId = "C89E7CB9-06CC-4D85-8773-832B05BA201B";
paths = (
{
closed = 1;
nodes = (
"454 -8 OFFCURVE",
"531 68 OFFCURVE",
"567 137 CURVE",
"567 304 LINE",
"330 304 LINE",
"330 204 LINE",
"449 204 LINE",
"449 206 LINE",
"453 206 LINE",
"453 202 LINE",
"451 202 LINE",
"451 178 LINE",
"431 145 OFFCURVE",
"387 112 OFFCURVE",
"327 112 CURVE SMOOTH",
"243 112 OFFCURVE",
"185 176 OFFCURVE",
"185 277 CURVE SMOOTH",
"185 375 OFFCURVE",
"240 438 OFFCURVE",
"325 438 CURVE SMOOTH",
"379 438 OFFCURVE",
"427 413 OFFCURVE",
"450 370 CURVE",
"428 383 LINE",
"588 481 LINE",
"558 431 LINE",
"535 482 OFFCURVE",
"458 558 OFFCURVE",
"325 558 CURVE SMOOTH",
"165 558 OFFCURVE",
"45 446 OFFCURVE",
"45 277 CURVE SMOOTH",
"45 107 OFFCURVE",
"163 -8 OFFCURVE",
"324 -8 CURVE SMOOTH"
);
}
);
width = 612;
}
);
leftMetricsKey = "=G+5";
rightMetricsKey = "=G+5";
},
{
color = 7;
glyphname = G.ss16.sc;
lastChange = "2020-05-21 16:40:40 +0000";
layers = (
{
background = {
paths = (
{
closed = 1;
nodes = (
"454 -8 OFFCURVE",
"535 88 OFFCURVE",
"551 135 CURVE",
"551 275 LINE",
"332 275 LINE",
"332 231 LINE",
"502 231 LINE",
"502 233 LINE",
"506 233 LINE",
"506 230 LINE",
"504 230 LINE",
"504 140 LINE",
"485 98 OFFCURVE",
"416 35 OFFCURVE",
"325 35 CURVE SMOOTH",
"220 35 OFFCURVE",
"118 123 OFFCURVE",
"118 275 CURVE SMOOTH",
"118 426 OFFCURVE",
"215 512 OFFCURVE",
"325 512 CURVE SMOOTH",
"406 512 OFFCURVE",
"470 465 OFFCURVE",
"501 403 CURVE",
"475 406 LINE",
"551 452 LINE",
"537 423 LINE",
"506 489 OFFCURVE",
"435 556 OFFCURVE",
"323 556 CURVE SMOOTH",
"184 556 OFFCURVE",
"63 446 OFFCURVE",
"63 275 CURVE SMOOTH",
"63 101 OFFCURVE",
"191 -8 OFFCURVE",
"325 -8 CURVE SMOOTH"
);
}
);
};
layerId = "E773EBAE-783E-4D91-931E-4E5C9CF0967C";
paths = (
{
closed = 1;
nodes = (
"477 226 LINE",
"477 228 LINE",
"481 228 LINE",
"481 224 LINE",
"481 97 OFFCURVE",
"387 47 OFFCURVE",
"309 47 CURVE SMOOTH",
"211 47 OFFCURVE",
"119 129 OFFCURVE",
"119 273 CURVE SMOOTH",
"119 412 OFFCURVE",
"208 498 OFFCURVE",
"310 498 CURVE SMOOTH",
"378 498 OFFCURVE",
"449 460 OFFCURVE",
"478 398 CURVE",
"442 403 LINE",
"540 456 LINE",
"524 429 LINE",
"488 499 OFFCURVE",
"405 553 OFFCURVE",
"310 553 CURVE SMOOTH",
"174 553 OFFCURVE",
"55 443 OFFCURVE",
"55 273 CURVE SMOOTH",
"55 104 OFFCURVE",
"167 -8 OFFCURVE",
"309 -8 CURVE SMOOTH",
"380 -8 OFFCURVE",
"440 19 OFFCURVE",
"482 67 CURVE",
"489 1 LINE",
"535 1 LINE",
"535 281 LINE",
"311 281 LINE",
"311 226 LINE"
);
}
);
width = 590;
},
{
background = {
paths = (
{
closed = 1;
nodes = (
"457 -8 OFFCURVE",
"531 68 OFFCURVE",
"567 137 CURVE",
"567 304 LINE",
"330 304 LINE",
"330 204 LINE",
"449 204 LINE",
"449 206 LINE",
"453 206 LINE",
"453 202 LINE",
"451 202 LINE",
"451 178 LINE",
"431 145 OFFCURVE",
"387 112 OFFCURVE",
"327 112 CURVE SMOOTH",
"243 112 OFFCURVE",
"185 176 OFFCURVE",
"185 277 CURVE SMOOTH",
"185 375 OFFCURVE",
"240 438 OFFCURVE",
"325 438 CURVE SMOOTH",
"379 438 OFFCURVE",
"427 413 OFFCURVE",
"450 370 CURVE",
"428 383 LINE",
"588 481 LINE",
"558 431 LINE",
"535 482 OFFCURVE",
"458 558 OFFCURVE",
"325 558 CURVE SMOOTH",
"165 558 OFFCURVE",
"45 446 OFFCURVE",
"45 277 CURVE SMOOTH",
"45 107 OFFCURVE",
"166 -8 OFFCURVE",
"320 -8 CURVE SMOOTH"
);
}
);
};
layerId = "C89E7CB9-06CC-4D85-8773-832B05BA201B";
paths = (
{
closed = 1;
nodes = (
"449 194 LINE",
"449 196 LINE",
"453 196 LINE",
"453 192 LINE",
"438 142 OFFCURVE",
"381 112 OFFCURVE",
"324 112 CURVE SMOOTH",
"232 112 OFFCURVE",
"185 183 OFFCURVE",
"185 277 CURVE SMOOTH",
"185 372 OFFCURVE",
"240 438 OFFCURVE",
"322 438 CURVE SMOOTH",
"370 438 OFFCURVE",
"424 417 OFFCURVE",
"449 332 CURVE",
"374 351 LINE",
"584 480 LINE",
"555 407 LINE",
"512 502 OFFCURVE",
"429 558 OFFCURVE",
"321 558 CURVE SMOOTH",
"166 558 OFFCURVE",
"45 446 OFFCURVE",
"45 277 CURVE SMOOTH",
"45 114 OFFCURVE",
"157 -8 OFFCURVE",
"313 -8 CURVE SMOOTH",
"371 -8 OFFCURVE",
"423 9 OFFCURVE",
"462 48 CURVE",
"471 0 LINE",
"557 0 LINE",
"557 294 LINE",
"320 294 LINE",
"320 194 LINE"
);
}
);
width = 602;
}
);
leftMetricsKey = "=G+5";
rightMetricsKey = "=G+5";
},
